<?xml version="1.0" standalone="no"?>
<!DOCTYPE svg PUBLIC "-//W3C//DTD SVG 1.1//EN" "http://www.w3.org/Graphics/SVG/1.1/DTD/svg11.dtd" >
<svg>
<metadata>
Created by FontForge 20090914 at Fri Feb 24 13:42:20 2012
 By root
Copyright (c) 2010 by Tension Type. All rights reserved.
</metadata>
<defs>
<font id="Leander" horiz-adv-x="491" >
  <font-face 
    font-family="Leander"
    font-weight="400"
    font-stretch="normal"
    units-per-em="1000"
    panose-1="0 0 0 0 0 0 0 0 0 0"
    ascent="750"
    descent="-250"
    x-height="469.5"
    cap-height="736"
    bbox="-85 -304.333 1432.17 991"
    underline-thickness="50"
    underline-position="-50"
    unicode-range="U+0020-U+FB02"
  />
<missing-glyph horiz-adv-x="500" 
 />
    <glyph glyph-name=".notdef" horiz-adv-x="500" 
 />
    <glyph glyph-name=".null" horiz-adv-x="0" 
 />
    <glyph glyph-name="nonmarkingreturn" horiz-adv-x="500" 
 />
    <glyph glyph-name="space" unicode=" " horiz-adv-x="449" 
 />
    <glyph glyph-name="space" unicode="&#xa0;" horiz-adv-x="449" 
 />
    <glyph glyph-name="c" unicode="c" horiz-adv-x="420" 
d="M221 486q9 -8 22 -6.5l26 3t24.5 -0.5t18.5 -16q10 10 18 9t14.5 -6.5t13.5 -13t15 -10.5q5 -27 -2.5 -42.5t-18.5 -27.5q-26 -4 -44.5 -0.5t-35.5 9t-34.5 10t-42.5 1.5q-16 -16 -33 -30.5t-43 -20.5q0 -14 0.5 -28t-10.5 -17q6 -4 9 -16t3 -25.5t-3 -25t-9 -15.5
l20 -31t11 -39q18 -27 44.5 -41t57.5 -17t64.5 3t66.5 19q-2 -8 3.5 -8.5t6.5 -6.5q-3 -20 -13.5 -32.5t-23.5 -22l-26.5 -19t-22.5 -22.5q-6 1 -13 4.5t-14 5t-13.5 0t-10.5 -9.5q-23 -5 -38 -1.5t-28.5 8.5t-27 9.5t-33.5 3.5q-4 6 -6.5 13.5t-6 14t-9.5 10.5t-18 2
q-3 9 -4.5 18.5t-4.5 18.5t-8 15.5t-14 8.5q-5 27 -9 51.5t-5.5 48.5t-0.5 49t5 54l25.5 30t15.5 41h20v30q18 3 28.5 13.5t22 20t26 15.5t40.5 2q4 0 4 3.5t1 6.5z" />
    <glyph glyph-name="d" unicode="d" horiz-adv-x="596" 
d="M490 729q1 -7 0 -15.5t10 -4.5q-12 -26 -16.5 -59.5t-7 -69.5t-5.5 -71t-12 -64q11 -29 10 -57t-3.5 -53.5t-1.5 -49t16 -42.5q-5 -16 -6 -32t-1 -32.5v-34.5t-3 -38q12 -17 35.5 -22.5t55.5 -2.5q16 -31 5 -48t-36.5 -25t-58.5 -9t-62 1q0 7 -4.5 10.5t-9 6.5t-7 8
t-0.5 15q-40 -2 -70 -13.5t-56 -26.5q-16 -3 -28 -2t-23 3.5l-22 5t-23 3.5q-15 18 -34.5 31.5t-36.5 29.5q-6 22 -14 41.5t-27 29.5q-2 16 -0.5 34.5t1.5 36.5t-2 34t-9 26q3 17 20 20q4 50 27.5 87t61 58.5t86 26t104.5 -8.5q10 6 16 16.5t19 13.5q1 22 0 46t10 35
q-5 16 -18 23t-28 12t-28 12.5t-17 23.5q11 19 28 30.5t48 9.5q10 10 21.5 20t25 17.5t30.5 11.5t40 2zM196 375q-8 -12 -18 -23t-19 -23t-15.5 -25.5t-8.5 -30.5q-1 -12 1 -28.5t5 -33t7 -30t7 -19.5q9 -15 23 -25.5t30 -18.5t33 -14.5t31 -12.5q49 8 76 37t40 74
q-5 4 -6.5 10.5t-2.5 13.5t-3 13t-8 9q8 8 10.5 22t1 30t-5 30.5t-6.5 23.5q-19 -1 -26.5 9.5t-13.5 21.5q-21 5 -38 6.5t-32 0t-30 -6t-32 -10.5z" />
    <glyph glyph-name="f" unicode="f" horiz-adv-x="426" 
d="M400 625l-28.5 -12t-32.5 -8q-20 7 -30 30q-43 2 -61 -11t-23.5 -36.5t-4.5 -55t-2 -64.5q12 -5 28.5 -5.5t33.5 -0.5t32.5 -1.5t26.5 -7.5q0 -20 0.5 -40.5t-10.5 -30.5q-3 6 -11 7t-17 2t-16.5 3t-10.5 8q-6 -5 -13.5 -6t-15.5 -1.5t-15.5 -3t-11.5 -9.5
q-6 -10 -6 -26.5t2.5 -34t6.5 -33.5t7 -23q-7 -14 -10 -33.5t10 -32.5q-8 -4 -9 -15t-1 -23t-1 -23t-9 -15q0 -24 12 -36.5t27.5 -22l30.5 -19.5t21 -28q-15 -23 -40 -25t-53.5 3t-57 9t-52.5 -7q-5 0 -7.5 2.5l-5 5t-6.5 4t-11 -1.5q0 26 11 41t24.5 27.5t24.5 27t11 41.5
q-11 25 -11 52.5t3 55.5t4.5 54.5t-6.5 49.5q-5 19 -19.5 27.5l-29.5 17t-25.5 22t-6.5 40.5q4 1 11.5 0t14 -1t11 1.5t3.5 9.5q5 -1 8 -3.5t6.5 -4.5t8.5 -3t13 1q4 2 5.5 6.5t9.5 3.5q-10 51 -5 94.5t24.5 77t52.5 55t80 26.5q12 12 25 10.5t26 -8t25.5 -14t24.5 -8.5
q5 -18 9.5 -36.5t0.5 -44.5z" />
    <glyph glyph-name="g" unicode="g" horiz-adv-x="603" 
d="M320 463q10 8 24 8t27.5 -5t24.5 -14t15 -20q28 -4 47 1t35.5 12.5t34.5 13.5t45 4q-1 -13 0 -28t1 -28.5t-2 -25.5t-9 -19q-17 3 -29 0.5t-21.5 -6.5t-19 -9t-21.5 -6q-4 -17 1 -24t9 -16q0 -9 -2.5 -15.5l-5 -13t-4 -14t1.5 -18.5l-41.5 -45l-39.5 -46l-105 -22
t-108 -19q-1 -23 6 -33t18.5 -13t26.5 -2l30 2t28.5 -1.5t22.5 -13.5q12 13 31.5 10.5t33.5 -10.5q31 12 55 5t42.5 -24.5t30.5 -42.5t19 -49q-5 -47 -23 -80t-46.5 -55.5t-66.5 -36t-82 -20.5q-7 3 -19.5 6.5t-26.5 4.5t-26.5 -1.5t-18.5 -9.5h-96q-21 3 -37 12t-28.5 21
t-23.5 25.5l-22 27.5q0 28 10.5 47t24 34.5l27 31.5t19.5 39q-34 20 -36.5 42.5t12 45t37 43.5l37.5 36l-26 32t-23.5 34.5t-16.5 42t-5 53.5q22 13 21 51q18 12 30.5 31t26.5 35.5t34.5 27.5t55.5 7q3 5 15.5 8.5t27 3.5t27.5 -2.5t16 -9.5zM178 372q-6 -19 -9.5 -39.5
t-0.5 -46.5q4 -15 10.5 -26.5t14 -22.5t14 -22.5t11.5 -25.5l39 -9.5t37 -10.5l34.5 16.5t35.5 22.5t22 29.5t-6 37.5q2 6 8.5 7.5t2.5 13.5q-12 23 -35 45.5t-51.5 36t-61 14.5t-65.5 -20zM234 -23q-17 -10 -35 -18t-33.5 -18.5t-26 -26t-12.5 -39.5q8 -42 35 -55.5
t63.5 -12.5t77.5 9t77 9q16 28 41 40q2 28 -1 50t-9 41q-22 15 -44.5 19t-45 3.5t-44.5 -2.5t-43 1z" />
    <glyph glyph-name="h" unicode="h" horiz-adv-x="604" 
d="M226 726q-11 -63 -19 -128t-22 -125q3 -4 6.5 -10.5t4 -13.5t-1.5 -13t-9 -9l15 -15q15 9 33 21t38 22t40.5 13.5t40.5 -5.5q3 5 9 7t13 3.5l13.5 3t10.5 6.5q18 -9 41 -22t41 -30t25 -39.5t-6 -50.5q-2 -6 0 -7.5t5 -2.5t5.5 -2.5t-0.5 -7.5q-8 -35 -11.5 -79.5t2 -85.5
t21.5 -71.5t49 -37.5v-40q-8 3 -11.5 1.5t-6 -4l-5 -5t-7.5 -2.5q-22 6 -44.5 5.5t-46.5 -2t-49 -1.5t-53 8q4 9 9 16.5t1 23.5q27 7 39 37t14.5 68t-2 77.5t-10.5 66.5q-3 7 -1 9.5t5 4t5 3.5t1 8q-5 19 -21.5 32.5t-38.5 21t-47 8t-47 -6t-38 -20.5t-21 -35
q-1 -33 -6.5 -76t-5 -82.5t13.5 -69t49 -35.5q1 -7 0 -16t10 -5q-4 -11 -10 -20t-10 -20q-41 1 -65.5 1.5t-44 1t-40 2.5l-53.5 5q0 16 7.5 28.5t17.5 23.5t21 21t17.5 21t7 25t-9.5 33q7 36 10 80.5t2 91t-4.5 91.5t-7.5 81q11 19 10 38.5t-10 35.5t-25.5 26.5t-35.5 11.5
q-2 12 0.5 20t6 14.5t7.5 12.5t6 14q27 1 45 10.5l36 19.5t39 17t53 3z" />
    <glyph glyph-name="i" unicode="i" horiz-adv-x="251" 
d="M165 595q-9 21 -30 30q-5 28 2 48t22 30.5t35.5 11.5t41.5 -9q9 -20 11 -43.5t-5.5 -41.5t-26 -26.5t-50.5 0.5zM185 473q-1 -48 -5 -93.5t-15 -83.5q9 -17 8.5 -41l-1 -48.5t3 -48t19.5 -40.5q1 -6 -1 -8t-5 -3.5t-5 -4t1 -9.5q15 -3 27 -14t19 -26t6.5 -32.5
t-11.5 -33.5q-12 -1 -21.5 2l-17.5 5.5t-16 2t-16 -9.5q3 8 -1 9t-9 1t-9 1t-1 9q-10 -10 -20.5 -10.5t-21.5 2.5l-23.5 6.5t-26.5 1.5q-2 16 1 27.5t9 19t14.5 13t16.5 11.5q-2 19 0.5 34t19.5 17q-10 48 -10 104v113q-13 18 -29 32.5l-32 28.5q7 19 24.5 33.5t40 23.5
t46 11.5t41.5 -2.5z" />
    <glyph glyph-name="j" unicode="j" horiz-adv-x="257" 
d="M221 660q2 -10 -0.5 -16t-5.5 -11t-5 -11t1 -17q-23 -11 -46 -11t-40 10t-25 30.5t-1 51.5q15 16 33.5 21.5t35.5 2t31.5 -16t21.5 -33.5zM190 473q1 -7 0 -15.5t10 -4.5q-2 -68 -4 -122t-2 -106.5t3.5 -109t13.5 -128.5q-4 -17 -21 -21q-3 -41 -16 -73t-33 -57t-45 -45
t-53 -37q-7 -2 -10 0.5t-6 5.5t-6.5 5t-12.5 -1q0 10 2 15t3.5 8t1 6.5t-6.5 10.5q24 10 45 31.5t34.5 49t17.5 59t-6 63.5q3 17 20 20q-9 36 -9.5 73.5t1.5 74t3.5 70t-4.5 63t-22.5 52t-49.5 37.5q43 70 152 76z" />
    <glyph glyph-name="k" unicode="k" horiz-adv-x="625" 
d="M248 747q-6 -49 -12.5 -97t-11 -97.5t-7 -102t0.5 -109.5q-6 3 -8 0.5t-2.5 -5.5t-2.5 -5t-8 0q7 -14 12.5 -28.5t8.5 -32.5q13 18 29.5 32.5t34.5 27.5l35 26.5t32 30.5q-1 26 -14 38.5t-36 17.5q-4 17 1 24t9 16q20 -5 38.5 -1l35.5 8t33 4t30 -11q12 6 31 9t36 1
t29 -11.5t10 -28.5q-6 -16 -18.5 -24.5t-27.5 -13.5t-31 -9.5t-29 -13.5q-8 -5 -13 -15t-13 -15q-11 -8 -22.5 -12.5t-22.5 -10t-20.5 -13t-15.5 -20.5q4 -23 17.5 -36t33.5 -20q-3 -12 -1 -18.5t7 -10.5t11.5 -6t12.5 -5q-3 -24 7 -34t24 -17q-1 -5 -3.5 -8t-4.5 -6.5
t-3 -8.5t1 -13q1 -4 6 -5t11 -0.5l12 1t11 -0.5q10 -17 26 -27.5t33 -20t31.5 -22t21.5 -31.5q-11 -13 -28 -16.5t-35 -2.5t-34.5 4.5t-24.5 4.5q-14 -10 -28.5 -10t-31 4t-34.5 7t-38 -1q-6 9 -9 21t-1 30q8 -3 11.5 -1.5t6 4l5 5t8.5 2.5q2 34 -8 55.5t-25.5 38t-32 31.5
t-26.5 37q-21 6 -31.5 2t-14.5 -15t-4 -25.5v-29.5t-1.5 -28.5t-8.5 -20.5q4 -15 13.5 -25l19 -20t17.5 -21.5t10 -29.5q-21 -5 -47 -10t-53 -8t-53.5 -1.5t-48.5 9.5v51q14 6 27 18.5t20.5 29t9 34t-6.5 34.5q7 45 10 100.5t2.5 112.5t-3.5 112t-9 101l-60 60q-3 13 1 20.5
t9.5 12l11.5 9.5t8 14q26 -4 46.5 5t38.5 18.5t36 14.5t41 -7z" />
    <glyph glyph-name="l" unicode="l" horiz-adv-x="335" 
d="M219 189q-10 -10 -11 -25t3 -30.5t9.5 -30.5t8.5 -25q68 7 61 -61q-17 -3 -20 -20q-20 0 -43 3.5t-45.5 6t-44 1.5t-39.5 -11q-7 1 -12.5 4.5l-11 7t-12 6t-15.5 2.5v51q40 10 54.5 39t15.5 65t-4.5 74t-4.5 65q10 5 10.5 20.5t-1 32.5t-1 32.5t11.5 20.5
q-6 27 -6.5 60.5t-5.5 64t-19.5 54t-49.5 29.5v40q42 26 88.5 47.5l93.5 44.5q6 2 8 0t2.5 -5t2 -5.5t7.5 0.5q0 -42 -10 -81l-19 -77.5t-12 -78.5t11 -83q-6 -22 -9 -53.5t-3 -65t3 -65.5t9 -54z" />
    <glyph glyph-name="m" unicode="m" horiz-adv-x="877" 
d="M224 468q3 -7 1 -10t-5 -4.5t-5.5 -3t-1.5 -7.5q0 -6 2.5 -8.5t5.5 -5t4.5 -6t-1.5 -11.5h35q20 46 64 60t103 1q7 -12 16.5 -22t19.5 -19t19.5 -18.5t15.5 -21.5q27 11 46 29.5t35 41.5q52 0 86 20q21 -4 32.5 -7t19.5 -8.5t15 -14.5t19 -26q7 -9 17 -17.5t14 -22.5
t2 -30.5t-3.5 -33t0 -33t11.5 -30.5l-5 -54.5t-0.5 -64.5t15 -58t41.5 -36v-40q-27 1 -51 -2t-47.5 -5.5t-47 -1t-47.5 13.5q0 7 2.5 11.5l5 9t4 10t-1.5 15.5q13 1 20.5 7.5t13.5 14.5l12 15.5t15 12.5q-4 29 -4.5 62t-2.5 64.5t-8.5 59.5t-22 49t-41.5 31.5t-68 7.5
q-12 -11 -24.5 -20t-24.5 -19.5t-22 -23t-15 -28.5q9 -30 9 -69.5t3 -76t14.5 -64t44.5 -34.5v-40q-25 -2 -49 -4.5t-48.5 -4.5t-50.5 -2.5t-55 1.5q-2 21 4 34.5t15.5 23t21 17t20.5 16.5q-3 60 1 113t9 105q-12 18 -27 34.5t-33.5 27.5t-42.5 13t-54 -9q-21 -12 -36 -38.5
t-23 -60.5t-9 -72t5.5 -72t20.5 -61.5t37 -40.5q0 -6 -3 -9.5t-7 -5.5t-7 -5.5t-3 -9.5q-19 11 -39.5 11t-42.5 -3.5l-44.5 -7t-45.5 -0.5q-7 9 -9.5 21t-0.5 29q39 6 54 36t17 72.5t-1 91t0 89.5q-11 26 -33 40.5t-48 25.5v30q20 6 42.5 20t45.5 24.5t45 11t40 -19.5z" />
    <glyph glyph-name="n" unicode="n" horiz-adv-x="586" 
d="M500 73q9 -6 18.5 -11t17 -12t12 -17t3.5 -26q-10 -3 -25 -8.5t-30.5 -9.5t-30.5 -3t-25 11q-10 -9 -21 -10t-23 1t-24 5.5t-24 3.5v50q10 2 16.5 7l12.5 10t13.5 9.5t18.5 4.5q4 32 -10 51q9 13 10.5 33.5t1 43.5t-2 46.5t0.5 43.5q-10 24 -27 41.5l-34 34.5h-50
q-11 -6 -24 -10l-26.5 -8t-25.5 -9t-21 -14q-8 -14 -14.5 -30.5t-20.5 -25.5q1 -17 3.5 -36t3.5 -39.5t0 -41.5t-7 -40q4 -19 15.5 -30.5t23.5 -22t22 -23.5t10 -35q-25 -13 -47 -16t-44.5 -1.5t-47 5t-54.5 2.5q-1 15 3 26t10 19.5t13.5 15.5t14.5 15q-4 21 -1 49l6.5 59.5
t6 65.5t-1.5 69q-16 14 -28.5 29.5t-32.5 26.5q4 9 9 16t1 24q23 1 38 10.5t29 19.5t31 17t44 4q-3 -12 1.5 -16t8.5 -9q3 -8 0.5 -11t-5.5 -5t-5 -5t0 -10q2 -5 8.5 -4.5t12.5 -0.5l39 26.5t41 24.5t49 17t63 3q17 -5 29 -14.5t21.5 -21l19 -24t21.5 -21.5q10 -39 8.5 -79
t-4.5 -80.5t-4 -80.5t10 -79z" />
    <glyph glyph-name="o" unicode="o" horiz-adv-x="529" 
d="M291 -15q-7 8 -19.5 10t-26 3t-25 4t-15.5 14q-8 2 -13 1t-8.5 -3t-6.5 -4.5t-8 -3.5q-35 19 -64.5 50t-49 71t-25.5 88.5t7 104.5q6 -3 8 -0.5t2.5 5.5t2.5 5t8 0q15 130 162 132q3 10 9 10.5t12.5 -2.5l14 -6.5t14.5 -1.5q52 10 92.5 -5t69.5 -46.5t47 -75t24 -91.5
q-8 -110 -60 -175.5t-152 -83.5zM179 381q-5 -9 -9 -19t-9.5 -18.5t-12.5 -15t-19 -8.5q1 -31 2.5 -62t7 -57.5t17 -47.5t33.5 -31q9 -16 27.5 -26.5t40.5 -15.5t44.5 -3.5t39.5 10.5q12 6 18.5 15.5t12.5 19.5t12.5 17t17.5 9q3 22 1.5 40t-4.5 35t-5.5 34t-1.5 37
q-7 21 -19.5 35.5t-28 26.5t-32 22.5t-31.5 22.5q-17 1 -27.5 -3.5t-21 -9.5t-22.5 -8t-31 1z" />
    <glyph glyph-name="p" unicode="p" horiz-adv-x="571" 
d="M196 473q5 -17 8.5 -37t11.5 -34q36 14 67.5 31.5t69.5 29.5q76 -10 117.5 -54t59.5 -113v-137q-9 -16 -15.5 -35.5t-14 -37t-19 -31.5t-32.5 -18q0 -5 -2.5 -7.5l-5 -5t-4 -6.5t1.5 -11q-27 -15 -57.5 -17.5t-61.5 1.5t-61.5 12t-57.5 14q-9 -5 -13.5 -21t-4.5 -35
t3.5 -36t9.5 -24q1 -8 -1.5 -11t-5.5 -6t-5 -6.5t1 -12.5l50 -56.5t62 -44.5v-31q-44 4 -82 0t-72 -5.5t-63.5 4t-56.5 27.5q14 17 29.5 40.5t26 51t13.5 57t-8 58.5q7 48 13.5 106.5t5.5 114.5t-14 104.5t-45 75.5v25q22 7 37 21l30 28.5t34 24t51 7.5zM185 311
q1 -64 -1 -106.5t-9 -65.5q14 -12 21 -30t20 -31q24 -6 43.5 -6.5t38 0.5t38 0.5t42.5 -4.5q25 15 40 39.5t21.5 55.5t6 66t-6.5 72l-21.5 14t-9.5 26q-28 13 -59.5 16.5t-62 -1t-57 -16t-44.5 -29.5z" />
    <glyph glyph-name="q" unicode="q" horiz-adv-x="569" 
d="M517 459q-17 -41 -27 -96.5t-14 -113t-3.5 -112t3.5 -94.5q-6 -7 -8.5 -21t-2.5 -29.5t2.5 -29.5t8.5 -21q3 -8 1.5 -11.5t-4 -6l-5 -5t-2.5 -7.5q10 -10 10.5 -28t-0.5 -38q4 -17 16.5 -25.5t25.5 -16t24.5 -17t14.5 -27.5q0 -6 -2.5 -8.5l-5 -5t-4 -6t1.5 -11.5
q-63 -5 -127.5 -6.5t-125.5 6.5q1 18 10 32.5t21 27t25 24t21.5 24.5t10.5 28.5t-7 36.5q10 10 10 25t-10 25q7 -1 9 4t1.5 12.5t-1.5 16t1 13.5q-27 2 -54 -3t-55 -11t-59 -10.5t-65 -0.5q-12 18 -27 32.5l-30.5 29t-30 30t-24.5 34.5q-3 7 -1 10t5 4.5t5 3.5t1 8
q-10 21 -11.5 46.5t2 51.5t9.5 50.5l11 43.5q12 16 26 29.5t27.5 28t26 30t21.5 34.5q27 1 44 3t33 3.5t35 3t50 0.5q6 -13 19.5 -17.5t31 -5.5l35 -2t31.5 -6q6 8 13.5 20t16.5 20.5t20 10.5t26 -10zM172 317q2 -14 -4 -21t-16 -9q2 -32 -5 -55.5t-15 -46.5q3 -12 10 -20
l14 -16.5t12 -18.5t4 -26q19 2 26.5 -8.5t14.5 -21.5q13 2 23 0.5t17.5 -5t14.5 -8t15 -7.5l54.5 22t47.5 28q7 56 7 101.5t-7 101.5q-14 19 -33 28t-39 13t-41 7.5t-39 12.5q-13 -16 -24.5 -32t-36.5 -19z" />
    <glyph glyph-name="r" unicode="r" horiz-adv-x="425" 
d="M188 479v-81q22 1 34.5 12t22.5 24.5l20.5 26.5t28.5 18q7 0 11.5 -2.5l9 -5t10 -4t15.5 1.5q1 -17 9.5 -26l17 -18t14 -21.5t-0.5 -36.5q-13 -10 -26 -19t-14 -31q-8 3 -11.5 1.5t-6 -4l-5 -5t-8.5 -2.5q-20 7 -30 30q-33 1 -50 -13.5t-26 -37t-13.5 -49.5t-11.5 -52
q6 -12 8.5 -29t4 -34.5t5 -33t12.5 -25.5q32 2 47.5 -13t23.5 -37q-9 -5 -19 -8.5t-17 -11.5q-24 7 -50 6t-51.5 -1.5t-50 2.5t-45.5 18q4 13 16 24t22 23t13 26t-11 33q9 7 10.5 20.5t1 29.5t-2 32.5t0.5 29.5q11 26 6.5 49t-16.5 44t-26.5 40.5t-23.5 38.5q21 6 38 21.5
l34.5 30t36.5 22t43 -2.5z" />
    <glyph glyph-name="s" unicode="s" horiz-adv-x="409" 
d="M281 459q13 -16 33.5 -23t37.5 -18q3 -63 -25 -91q-29 11 -52.5 26.5t-33.5 44.5q-48 4 -81.5 -5.5t-40.5 -45.5q3 -17 20 -20v-25q21 -15 47 -25.5t53 -19.5l53.5 -18.5t49.5 -23.5q7 -26 18 -48t23 -43q-2 -21 -8.5 -37.5t-15.5 -30.5t-18.5 -26.5t-18.5 -26.5
q-34 -9 -73.5 -14.5t-78.5 -5t-73.5 9.5t-58.5 30q1 16 0 35t-1 37t1.5 33.5t9.5 26.5q6 0 8.5 -2.5l5 -5t6 -4t11.5 1.5q-7 -47 40 -41q6 -16 22.5 -27.5t38 -17.5t43.5 -5.5t39.5 9.5t26 27.5t2.5 48.5q-18 28 -51.5 41t-70 22.5t-70 22.5t-51.5 41q-11 33 -8 60t14 49.5
t28.5 40.5t36.5 33q21 4 43.5 5.5t44 1.5h41t33.5 3z" />
    <glyph glyph-name="t" unicode="t" horiz-adv-x="418" 
d="M220 570q0 -23 -1.5 -38t-3 -27l-3 -23.5t-2.5 -27.5q8 -8 25.5 -12t37.5 -5t38.5 2t29.5 10q19 -10 27.5 -29t3.5 -53h-147q-14 -10 -16 -32.5t-0.5 -48t1.5 -49.5t-11 -37q4 -16 7.5 -32t8 -31.5t10.5 -29t15 -23.5h121v-51q-12 -16 -31 -24.5t-43 -12.5t-51.5 -4.5
t-56.5 1.5q-12 11 -22.5 23t-28.5 17q-2 8 4 8.5t7 6.5q-11 17 -11.5 44.5t1 57t1 57t-11.5 44.5q4 15 6 39t-4 44.5t-23 31.5t-50 1q3 10 1.5 16t-4.5 11t-5.5 10t-1.5 14q36 38 74 73.5t68 78.5h41z" />
    <glyph glyph-name="u" unicode="u" horiz-adv-x="518" 
d="M178 479q9 -24 6.5 -56t-7.5 -66.5t-7.5 -67.5t8.5 -58q-10 -10 -9.5 -21.5t3 -23t3.5 -21t-7 -15.5q16 -40 55 -57.5t92 1.5q20 15 34.5 36t31.5 40q0 9 -3.5 20.5t-6 22.5t-1.5 21t11 17q-8 4 -10 13.5t-1.5 21t1.5 24t0 22.5q-4 13 -12 21.5t-18 15t-21 12t-20 12.5
q22 40 65.5 58t106.5 18q4 -16 1.5 -29t-5.5 -24t-3.5 -20.5t7.5 -17.5q-4 -12 -8 -26.5t-6 -29t-1.5 -28t5.5 -23.5q-6 -21 -10 -52t-1.5 -61t12 -53.5t29.5 -30.5q4 -23 -2 -35t-17 -19.5t-24 -12.5t-23 -14q-11 0 -19 2.5l-16 5t-18 4t-23 -1.5q-3 12 1.5 16t9.5 9
q-3 4 -7.5 5.5t-3.5 9.5q-32 -11 -60.5 -25t-60.5 -25q-13 11 -22 7.5t-24 -7.5q-37 3 -55 24.5t-27 52.5t-12.5 67t-11.5 68q7 17 10 41.5t1.5 49.5t-7 47.5t-14.5 34.5q-17 -3 -26.5 1.5t-14.5 13.5q25 35 61.5 57t90.5 29z" />
    <glyph glyph-name="v" unicode="v" horiz-adv-x="596" 
d="M236 479q21 -9 30 -30q-32 -25 -71 -41q14 -78 44 -141t63 -122q23 16 37 42.5t25 55l22.5 56.5t31.5 48q4 26 -5.5 38t-22.5 20.5t-24 19t-9 34.5q9 5 19 8.5t17 11.5q15 -7 35 -9t42.5 -2t45.5 1t44 0q3 -10 8.5 -17t1.5 -24q-32 -11 -52 -34.5t-34 -52t-26.5 -59
t-29.5 -56.5q3 -25 -4 -39.5t-16 -27t-16 -26.5t-4 -39q-12 -11 -17 -28.5t-11.5 -34t-17.5 -28.5t-35 -10q-9 6 -21.5 9t-29.5 1q-3 17 -20 20q2 27 -5.5 45t-25.5 26q-9 44 -23 83t-30.5 75.5t-34.5 72t-33 73.5q-7 1 -16 0t-5 10q-6 2 -7.5 0t-2 -5t-2.5 -5t-8 0
q4 11 -4.5 10t-15.5 0q-3 13 -1.5 21.5t5 15t8.5 12t8 12.5q20 -2 43.5 -1l46.5 2t43 -1t34 -10q0 5 4.5 6.5t9.5 2t9 2.5t3 9z" />
    <glyph glyph-name="w" unicode="w" horiz-adv-x="901" 
d="M406 489q7 -5 17.5 -7.5t19 -6.5t13 -12t0.5 -25q-6 0 -9.5 -3t-5.5 -6.5t-5.5 -7t-9.5 -3.5q-3 -26 1 -44.5t9 -36.5q25 -8 35 -0.5t13 21.5t4 30t9 25q-7 4 -9.5 15t-2 23t3.5 22.5t8 15.5q30 -8 66 -10t76 0q3 -10 8.5 -17t1.5 -24q-14 -7 -25.5 -17l-23 -20.5
t-24.5 -19.5t-29 -14q0 -18 -6 -30t-13.5 -23t-13.5 -23t-7 -30q21 -19 33 -45.5t18 -60.5h25q18 34 39 65.5t38 67t26 79t3 102.5q14 9 32.5 7.5t37.5 -4t37 -0.5t30 17q7 0 11.5 -2.5l9 -5t10 -4t15.5 1.5v-61q-14 -6 -28 -10.5t-26 -11.5t-19.5 -18.5t-7.5 -30.5
q-41 -42 -65.5 -97.5t-46.5 -115.5h-20q-8 -32 -21 -59t-20 -62q-18 -5 -36.5 -9.5t-44.5 -0.5q-19 11 -24.5 35l-11 48t-17.5 42t-43 17q-14 -38 -32 -72t-34 -70h-81q-42 59 -61 136q-9 12 -19 24t-18 25.5t-14 28.5t-9 34q-6 3 -8.5 9.5t-12.5 5.5q0 16 -3.5 28.5
t-8 23.5t-10 21.5t-8.5 22.5q-13 5 -22 15t-18.5 18.5t-23.5 13t-37 -0.5q0 20 -0.5 40.5t10.5 30.5q69 -2 122 -1.5t101 -8.5q-1 -18 -5.5 -31.5l-9 -27.5t-7 -30t0.5 -38q11 -15 19.5 -32l17.5 -34.5t19.5 -33t24.5 -27.5v-25q11 -5 20.5 -10.5t15.5 -14.5q20 -3 28.5 4.5
t12 20.5t6 27.5t9.5 23.5q-10 24 -18 49t-19 48t-26 41.5t-39 28.5q2 12 -2.5 17.5t-9.5 10.5t-8.5 12t0.5 21q10 8 27 8.5t35 0t34.5 1t25.5 10.5z" />
    <glyph glyph-name="x" unicode="x" horiz-adv-x="546" 
d="M47 469h212v-31q-16 0 -26 -5.5t-17 -14.5t-13 -18.5t-15 -16.5q16 -6 25.5 -19t17 -28t15.5 -29t23 -21l22 22.5t19.5 25t14 30.5t5.5 39q-14 10 -19.5 28t-10.5 38q24 1 52.5 0.5t55.5 -1.5t49.5 -1t34.5 2q-1 -7 2.5 -8.5t8.5 -1.5q-19 -36 -48.5 -61t-60.5 -48.5
t-59 -50t-45 -63.5q19 -24 36 -50l35 -51.5t37.5 -49t43.5 -42.5h40v-40q-11 -3 -18.5 -1.5t-14 4l-13 5t-15.5 2.5v40h-20q-1 -9 1.5 -14t5.5 -9.5t4.5 -10.5t-1.5 -16q-19 3 -35.5 3t-34 -1t-37 -2.5t-45.5 0.5v30q19 -9 27.5 1.5t9.5 29.5t-4 40.5t-12 34.5q-5 4 -11 6
t-11 5.5t-8 9t-1 15.5q-19 -8 -36 -18t-29.5 -25t-19.5 -35.5t-6 -48.5l16.5 -16.5t3.5 -28.5q-16 4 -31 3.5t-32 -2t-36 -2.5t-43 1q-6 8 -9 20.5t-1 29.5q27 16 50.5 36t45 41.5l43 43t44.5 41.5v36q-10 6 -16.5 15t-12.5 19t-13.5 18.5t-18.5 13.5q-1 22 -11 35t-22 23.5
t-23.5 22t-14.5 30.5q-6 2 -7.5 0t-2.5 -5t-2.5 -5t-7.5 0q-14 19 -10 51zM178 327h10v20h-10v-20zM330 84q5 37 -20 40q-5 -36 20 -40zM351 74h10v20h-10v-20zM361 43q7 3 11 1.5t6.5 -4l5 -5t7.5 -2.5v30h-30v-20zM107 43q4 1 10 0t11.5 -1t8.5 2t1 9h-31v-10zM310 23
q17 3 20 20q-6 -2 -7.5 0t-2.5 5t-2.5 5.5t-7.5 -0.5v-30zM77 33q7 1 15.5 0t4.5 10h-20v-10z" />
    <glyph glyph-name="y" unicode="y" horiz-adv-x="621" 
d="M247 489q8 -9 9.5 -25.5t0.5 -35.5q-9 0 -15.5 -2t-12 -5.5l-11 -7t-12.5 -5.5q3 -41 12 -76t22 -65.5t29 -58t33 -53.5q8 6 13.5 15.5l11 18.5t12.5 16.5t19 9.5q3 29 17 58.5t23 56.5t3 50t-43 38q3 12 0.5 18.5t-5.5 12t-5.5 12t0.5 18.5q35 3 62 4.5t53 2.5t53.5 1.5
t64.5 1.5q8 -21 8 -35t-8 -36q-38 -3 -60.5 -20.5t-37.5 -43.5t-24.5 -57l-19.5 -61q-20 -14 -29 -39.5t-16.5 -52t-19 -49.5t-36.5 -32q2 -29 -4 -51t-26 -30q-19 -71 -52.5 -125.5t-79.5 -96.5h-41q-8 -2 -8.5 3.5t-6.5 6.5q-28 -15 -76 -10q-12 25 -7.5 43.5t20.5 30.5
t40.5 16.5t53.5 0.5q20 9 33 26t24 35.5l22 37t27 32.5q-1 17 -4 30.5t-7.5 26.5l-9.5 27t-9 33q-3 13 -14.5 23.5t-16.5 22.5q-3 8 -0.5 17.5t0.5 17.5q-3 12 -14 23t-16 23q-2 5 0 15.5t0 19.5q-2 8 -10.5 14t-10.5 11q-3 11 -3.5 22t-1.5 22.5t-4 22t-11 20.5
q-1 5 -7.5 4.5t-12.5 0.5q-3 15 -14 23.5t-23 15.5t-22 16t-12 26q3 14 16.5 18t30.5 3.5t36 -2.5t34 1q3 10 14.5 10t15.5 -10q3 7 10 9t17 2t20 -1t19 0z" />
    <glyph glyph-name="z" unicode="z" horiz-adv-x="510" 
d="M132 449q51 9 90.5 8.5t76.5 -3t75.5 -3.5t86.5 8q9 -9 10.5 -25.5t-0.5 -35.5q-7 0 -10 -4t-5.5 -8t-6.5 -7t-13 -1q-15 -28 -36.5 -48.5t-44.5 -40t-43.5 -41.5t-32.5 -53q-36 -21 -61.5 -52.5l-50.5 -63.5q10 -2 28 -4.5t36.5 -3t34.5 2t23 10.5q30 -14 51.5 -6
t39.5 24l36.5 33t44.5 20q9 -19 9.5 -42.5t-3 -48t-9 -48.5t-7.5 -44q-15 -2 -25.5 0t-18 7t-14 11.5t-13.5 12.5q-4 -4 -16 -7.5t-25.5 -4.5t-25 1.5t-14.5 10.5q-35 -10 -66 -9t-62.5 4t-64.5 4t-70 -9q3 7 1.5 11t-4 6.5l-5 5t-2.5 7.5q-2 9 0.5 14t5.5 10t5 10.5
t-1 16.5q67 78 140 148t143 145q-10 16 -32.5 20t-49 2.5t-52.5 -6t-43 -5.5q-20 -17 -36.5 -37t-39.5 -34q-9 18 -10.5 41t1.5 46.5t8.5 45.5t10.5 39q10 0 17.5 -4t13.5 -8.5t11.5 -9.5t13.5 -8z" />
    <glyph glyph-name="A" unicode="A" horiz-adv-x="758" 
d="M424 742q21 -36 36.5 -77.5t30 -84.5l29.5 -85t36 -78q-5 -9 -9 -18.5t-1 -26.5q6 -3 8 -9.5t12 -5.5q-1 -17 3 -28.5t8.5 -23t8 -24.5t0.5 -31q6 -3 9 -10t5.5 -14t6 -13t10.5 -8q0 -37 12 -61.5t30 -43.5t37 -36.5t32 -41.5q-11 4 -10 -4.5t0 -15.5q-38 3 -72.5 1
t-66.5 -4.5t-63 -3t-62 6.5q-2 12 0.5 20t6 14.5t8 12.5t6.5 14h25q18 16 21 40.5t-3.5 51t-19 51t-23.5 39.5q-12 -1 -25.5 0t-26 1t-23 -2.5t-16.5 -8.5q0 10 -6.5 12t-9.5 8q-11 -2 -22.5 -6.5t-23 -7.5t-22 -3.5t-18.5 7.5q-12 -3 -18.5 -12t-12 -18.5t-12 -18.5
t-18.5 -12q-7 -18 -5 -35.5t3.5 -34t-1 -30.5t-17.5 -26q12 -3 21 -2t17.5 1.5t18.5 0t24 -4.5q-8 -9 -9.5 -25.5t-0.5 -35.5q-26 9 -57 10.5t-63 -0.5t-63.5 -5.5t-59.5 -4.5v81q24 2 44.5 8.5t34 19t20 33t2.5 50.5q31 31 45.5 76.5t25.5 96.5q25 26 36.5 65t14.5 87
q16 18 25.5 43t17.5 50.5t18.5 49.5t29.5 39v30q24 27 81 21zM292 306q20 10 40.5 10.5t41 -2t41 -3.5t39.5 5q-2 30 1.5 54.5t19.5 36.5q-26 2 -40.5 15.5t-22 33.5t-11 44.5t-7.5 48.5h-31q-7 -32 -18 -60l-22 -56.5t-20 -59t-11 -67.5zM460 448q3 1 4.5 7.5t1 13t-4.5 10
t-12 -0.5q-3 -1 -5 -7.5t-1 -13t5 -10t12 0.5zM495 397h10v20h-10v-20zM495 326q17 3 20 20q-17 -3 -20 -20zM495 245q25 4 20 41q-6 -3 -7.5 -0.5t-2.5 5.5t-2.5 5t-7.5 0v-51zM191 73q-2 6 0.5 8t5.5 3.5t5 4t-1 9.5q-5 3 -8.5 8t-7.5 9.5t-9.5 7t-14.5 1.5q-4 -24 6 -34
t24 -17z" />
    <glyph glyph-name="B" unicode="B" horiz-adv-x="667" 
d="M41 32q-3 7 -4.5 6.5t-3.5 -4t-4.5 -6.5t-7.5 -1q3 10 8.5 17t1.5 24q28 -4 44.5 4t25 24t11.5 37.5t5 44t4.5 44.5t10.5 38q-9 20 -10 45t1.5 51t8 50t10.5 42q-9 19 -11.5 41t-2.5 44t-0.5 44t-5.5 43q-3 16 -12 29.5t-19.5 25t-21.5 21.5t-18 20q0 6 2.5 8.5l5 5t4 6
t-1.5 11.5q25 2 53 0.5t55 -2t52 1.5t43 10q4 -8 17 -10.5t28 -1.5t28 4t18 8q6 -6 15 -8t20 -2.5t23 0t23 0.5q44 -11 76.5 -31.5t55.5 -49.5q-1 -19 0.5 -35.5t9.5 -25.5q-3 -8 -7 -16t-6.5 -16t-2.5 -15.5t6 -13.5q-17 -32 -37.5 -59.5t-53.5 -41.5v-36q3 -8 17 -5.5
t23 0.5q12 -15 27 -26.5l30.5 -23t29.5 -23.5t25 -28q12 -54 7 -99t-22.5 -80t-46.5 -61.5t-65 -43.5q-38 2 -74.5 -3.5l-72.5 -11t-71.5 -6.5t-70.5 11q-8 -6 -23.5 -9t-32 -3t-32 3t-23.5 9q-9 -5 -19 -8.5t-17 -11.5l-27.5 10t-17.5 20q10 -1 12 6t8 9zM264 666
q-14 -18 -18 -45.5t-3.5 -59.5t2 -65.5t-0.5 -62.5q45 -2 86 3t71 23t46 52.5t10 93.5q-33 18 -51 51q-19 0 -35.5 2.5l-33 5t-34 4t-39.5 -1.5zM477 119l19 23.5t15 24.5t8 29.5t-2 38.5q-4 20 -14.5 28t-15.5 23t-11 21.5t-13.5 9.5t-16.5 5.5t-20 8.5q-5 3 -6.5 11
t-3.5 10q-15 10 -37.5 13.5t-46.5 2.5t-47.5 -3.5t-40.5 -2.5v-254q21 -8 30 -30q50 10 104.5 17t98.5 24z" />
    <glyph glyph-name="C" unicode="C" horiz-adv-x="756" 
d="M511 767q4 -10 9 -17.5t1 -23.5q15 -2 21.5 4t9.5 17q3 8 -1 9t-9 0.5t-9 1t-1 9.5q6 -2 7.5 1.5t2.5 8.5q18 -8 36.5 -7.5t37.5 3t38.5 3t39.5 -8.5q-4 -17 1 -24t9 -17q-6 -11 -9 -30t-3 -40.5t3 -41t9 -30.5q-10 -3 -17 -8.5t-24 -1.5q-14 34 -38.5 61t-58 44
t-74.5 22t-87 -5q-14 -15 -31.5 -24.5t-49.5 -5.5l-75.5 -77t-61.5 -91q6 -35 5 -72.5t-1 -75t5 -74.5t22 -71q20 -15 33 -36.5t27.5 -42t35 -34.5t55.5 -14q-2 -6 0 -8t5.5 -2.5t5.5 -2t0 -7.5q113 -10 181 25.5t102 105.5q18 2 30 -0.5t21 -9.5q5 -33 -3 -52.5t-21 -34.5
t-27 -29t-20 -36q-38 -6 -68.5 -19.5t-58.5 -30.5q-56 -11 -111 -9t-103 15.5t-86 38.5t-59 61q-2 5 -8.5 4.5t-12.5 0.5q-13 32 -33 57t-37 54q-1 22 -6.5 37.5t-14.5 28.5q-1 9 0 20t1 21.5t-2 18.5t-9 11q8 17 8 25.5t-8 25.5q2 29 9.5 53t16.5 45.5t19 43t16 45.5
q5 0 7.5 2.5l5 5t6 4t11.5 -1.5v41q19 1 27.5 12t15 24.5t15 24t28.5 10.5q21 25 54.5 42.5t73.5 26.5t84 10t87 -8z" />
    <glyph glyph-name="D" unicode="D" horiz-adv-x="817" 
d="M90 7q-8 -11 -20 -17.5t-35 -2.5q-9 9 -10.5 25.5t0.5 34.5q5 1 8 3.5t6.5 5t8 3.5t12.5 -1q7 9 16 16l18 13.5t17.5 13.5t14.5 17q3 34 1.5 72.5t-2.5 76t0.5 72.5t10.5 63q2 6 0 7.5t-5 2.5t-5 2.5t0 7.5q6 6 8 16.5t3 21.5t2.5 21t6.5 17l-10 64.5t-16.5 58t-33.5 41
t-61 14.5q-2 19 -0.5 35t10.5 25q49 -2 93.5 -3.5t87.5 -2.5t86.5 0t91.5 6q33 13 64 10t60.5 -12.5t58 -21.5t56.5 -16q2 -20 17 -28t33 -13q-1 -19 9.5 -26l21.5 -14q0 -28 12.5 -43t27.5 -28q5 -30 12 -58t18 -54q-3 -9 -8.5 -16t-1.5 -24q8 -11 10 -28.5t1.5 -37
t-2 -39.5t0.5 -37q-3 -11 -8.5 -19t-10.5 -17t-8.5 -19.5t-2.5 -25.5q-22 -18 -40.5 -39.5l-37 -42.5t-40 -39.5t-49.5 -30.5q-39 -3 -83.5 -9.5t-90 -10t-90.5 -2.5t-86 12q-8 3 -11.5 1.5t-6 -4l-5 -5t-7.5 -2.5q-9 10 -24.5 8t-32 -5.5t-32.5 -4.5t-28 12zM268 666
q-14 -12 -21.5 -36t-10 -52t0.5 -56.5t11 -48.5q-12 -28 -12.5 -65.5t2.5 -75.5t5 -73.5t-6 -59.5q7 -7 9 -19t2 -25.5t-0.5 -28.5t0.5 -28q29 -17 54.5 -19t52.5 1.5l57.5 7.5t68.5 0q4 10 14 15.5t22.5 8.5t26.5 3.5t28 2.5q1 6 0.5 12.5t4.5 8.5q15 6 23.5 18t16 25.5
t15.5 26.5t21 21q-1 33 5.5 60t14.5 51q-12 13 -11.5 28.5t4 32.5l7.5 35t0 36h41q-3 12 -2 20t4.5 13t8 9t9.5 9v20q-14 1 -20.5 -4.5t-10.5 -13.5t-6.5 -17.5t-8.5 -15.5q-20 1 -30 12.5t-17.5 26t-15.5 28t-23 19.5v26q-35 16 -72.5 31t-79.5 25t-87.5 12t-94.5 -7z
M166 493h11v21h-11v-21z" />
    <glyph glyph-name="F" unicode="F" horiz-adv-x="652" 
d="M600 736q10 -21 10.5 -47t-2 -50t-4 -44.5t5.5 -30.5q-7 -17 -20.5 -26t-40.5 -4q-12 29 -28 52.5l-33 48.5q-50 5 -100 9t-87 22l-16.5 -16.5t-29.5 -4.5q-1 -21 -1.5 -52l-1 -63.5t-2 -63t-5.5 -49.5q13 -12 36 -14.5t49 -2t53 2.5t50 -1q31 34 35 91q25 4 39 -1.5
t32 -8.5v-253q-31 -2 -57 1.5t-34 23.5q-3 7 -1 10t5 4.5t5 3.5t1 8q-10 20 -32 28.5t-50 10.5t-60 1t-61 0q3 -29 1 -62.5t-2 -65.5t4 -59.5t18 -45.5q18 2 30.5 -0.5l24 -5t22 -2.5t24.5 8q6 -6 8.5 -16.5t2.5 -23t-1 -26t0 -25.5q-38 -9 -79 -8t-84.5 4.5t-89 6
t-91.5 -2.5q-5 17 -21 20q-5 28 4 42t24 22t32.5 13t30.5 14q-3 12 -2 26t3.5 28.5t5.5 29t4 28.5q0 5 -5.5 10t-5.5 10q6 55 9.5 111t3.5 110t-5.5 103.5t-17.5 90.5q-11 -3 -18.5 -1.5t-14 4t-12.5 5.5t-15 3q4 16 -1.5 23.5t-9.5 16.5q5 25 28 32.5t52.5 5.5t60.5 -9
t52 -9q3 7 12 8t19.5 1t19 1.5t10.5 10.5q23 -8 52.5 -11.5t61 -3t63.5 4.5t61 10q27 -14 76 -11z" />
    <glyph glyph-name="G" unicode="G" horiz-adv-x="805" 
d="M685 726v-182q-8 -2 -14 -6l-12.5 -8t-14.5 -6t-20 0q-5 22 -16.5 36.5t-25.5 27l-27.5 25.5t-21.5 32q-21 -2 -40.5 3.5l-38.5 10.5t-37.5 5.5t-35.5 -9.5q-20 14 -36 11.5t-30.5 -11t-29 -18.5t-30.5 -12q-9 -1 -6.5 -12t0.5 -18q-21 -13 -33.5 -35t-21 -47.5
t-16.5 -52t-20 -48.5q3 -28 4.5 -49t3.5 -42t5 -46t8 -60q28 -21 56 -50t61 -51.5t73 -32t93 6.5q12 3 16.5 -1t9.5 -9l45.5 27t50.5 24q1 24 3.5 46t4.5 44.5t3 46t-1 50.5q-13 13 -33 19t-42.5 10t-45 7t-41.5 10q-2 12 0 19.5t6 14l8 12.5t6 14q43 -7 87 -6.5t86 1.5
t80.5 -1t70.5 -14v-40q-21 -4 -38.5 -18t-28 -34t-13 -43.5t8.5 -46.5q-6 -10 -9 -30.5t-3 -43t3 -43t9 -30.5q1 -19 -7 -35t-21 -26t-28.5 -12t-29.5 7q-5 -12 -19 -15t-30.5 -3.5t-32.5 -1.5t-24 -10q-44 8 -86.5 11t-83 7.5t-77 13.5t-67.5 28q-1 1 -6.5 14t-13.5 17
q-41 20 -69.5 51.5t-32.5 85.5q-32 30 -43 80.5t-7 116.5q8 23 12.5 50.5t10.5 53t16.5 46.5t30.5 32v31q18 13 33.5 28.5l32 30.5t33.5 28.5t38 23.5q33 5 59.5 9.5l51.5 8.5t49.5 7.5t52.5 5.5q22 -12 52.5 -15t63.5 -4l65 -2t57 -10z" />
    <glyph glyph-name="H" unicode="H" horiz-adv-x="891" 
d="M251 706q3 7 12.5 9.5t20 1.5t20 -4t13.5 -7q0 -22 -8 -35.5t-20 -23t-26 -16.5t-27 -16q0 -17 -0.5 -33.5t-3 -31t-8.5 -25.5t-18 -17q-1 -12 5 -17t15 -8q-10 -18 -4.5 -31.5t20 -22.5t36 -13.5t44.5 -5t44.5 2.5t36.5 9q50 -8 111 -8t148 -2q1 46 0.5 89t-8 79
t-25 62.5t-49.5 38.5q-2 7 1 10.5t6 6t5 6.5t-1 12q42 0 75.5 -0.5l64.5 -1t60.5 -2.5t62.5 -6q-3 -9 -0.5 -13t5.5 -7t5.5 -7t-0.5 -13q-21 -3 -39.5 -15t-30.5 -29t-16 -37.5t5 -40.5q-11 -11 -10 -35t0 -46q-4 -33 -3.5 -75t2 -88.5l3 -94.5t-1.5 -92q6 -16 16.5 -26.5
t22.5 -20l23.5 -19.5t18.5 -25q-2 -9 -4 -12.5t-3 -6.5t0.5 -6t6.5 -10q-44 -6 -80.5 -7.5t-69.5 -0.5t-63.5 3.5t-60.5 4.5q-2 12 1 19.5l6 14.5t5 15.5t-1 21.5q9 -2 13.5 0t8 5t8.5 5.5t15 -0.5q14 22 20.5 51t9 60.5t1 64t-4.5 62.5q-2 11 -12.5 13t-23.5 2t-24.5 0.5
t-15.5 9.5q-8 3 -10.5 1t-4 -5t-3.5 -5.5t-8 -0.5q-37 8 -68.5 8t-73.5 -8q3 8 -1 9t-9 1t-9 1t-1 9q-4 -4 -12 -7t-17 -3.5t-16.5 1.5t-10.5 9q-8 -5 -22.5 -6.5t-31 -3t-32 -3.5t-24.5 -7.5t-9.5 -16.5t13.5 -29q-3 -26 -4 -63.5t5 -72.5t22 -61.5t48 -30.5v-60
q-28 4 -53 4h-48t-44.5 0.5t-42.5 5.5q-5 -8 -15 -9.5t-22 -1.5t-25.5 1t-23.5 0q-6 8 -9 20.5t-1 29.5q21 8 40.5 17.5t33 25.5t19 39.5t-1.5 59.5q10 -1 12.5 6t8.5 9q-9 31 -11 66t-2.5 69.5l-1 66.5t-6.5 57q14 29 16.5 60.5t-5 61.5t-23.5 57.5t-38 48.5q3 22 26.5 30
t53.5 8.5t60.5 -4.5t46.5 -9z" />
    <glyph glyph-name="I" unicode="I" horiz-adv-x="428" 
d="M70 736q18 1 38 -3l39 -7.5t36 -4.5t29 5q10 -8 26.5 -7t34.5 5l36 8t33 2.5t24 -12.5t8 -36q-15 -14 -34.5 -22t-37 -18.5t-29.5 -26.5t-11 -45q-6 1 -8 -2.5t-3 -8.5t-2 -9.5t-7 -4.5q6 -3 8.5 -9.5t11.5 -5.5q-5 -17 -4 -30.5t2.5 -25.5t1 -24.5t-9.5 -26.5
q7 -29 9 -59.5t1 -61.5t-4 -59.5t-6 -52.5q7 -21 11.5 -45t13.5 -43.5t26 -31t50 -6.5q9 -9 10.5 -25.5t0.5 -35.5q-7 -2 -17 -1l-19.5 2t-16.5 -1t-8 -10q-52 4 -110.5 4.5t-112.5 -4.5q-13 3 -20 11.5t-9 20t0.5 24.5t8.5 25q11 -3 17 -1t11 5t11 5.5t16 0.5
q18 22 27 47.5t12.5 51.5t2 51t-5.5 48q7 27 6.5 58.5t-3.5 66t-5 71t2 72.5q10 -1 12 5.5t8 9.5q-15 9 -24.5 22.5l-19.5 27t-23 24t-34 12.5q-5 11 -10.5 20.5t-10.5 20.5q0 7 4.5 10.5l9 7t7 8t0.5 14.5z" />
    <glyph glyph-name="J" unicode="J" horiz-adv-x="435" 
d="M372 732q1 -7 0 -15.5t10 -4.5q-2 -20 -11 -32.5t-21.5 -21t-28 -14.5t-30.5 -13q-11 -48 -7.5 -98.5t17.5 -93.5q-4 -41 -4.5 -87.5t1 -92.5t5 -86.5t8.5 -68.5q-5 -9 -9.5 -22.5t-7.5 -27.5t-2 -28t9 -23q-8 -2 -9.5 -9l-3 -14.5t-4.5 -13t-13 -4.5q3 -14 0.5 -23
t-5.5 -17t-5.5 -17.5t0.5 -23.5q-14 -14 -23 -32.5t-19 -36.5t-24 -32.5t-36 -19.5q-4 -11 -9.5 -20.5t-10.5 -20.5q-15 0 -25.5 -4.5t-20.5 -10t-22.5 -8t-32.5 2.5q-8 14 -9 27t1 26.5t5 27.5t3 30q30 8 46 30t27 49t20.5 55.5t27.5 48.5q2 36 1 76l-2 79.5t1 76.5t10 67
q-7 14 -10 33.5t10 32.5q-11 30 -11 63t3 67t5 66.5t-7 61.5q-37 27 -91 35q3 12 0.5 18.5t-5.5 12.5t-5.5 12.5t0.5 17.5q47 9 86.5 11.5t76 2.5t73.5 0.5t78 5.5zM230 560q3 -17 20 -20q-1 4 0 9.5t1 11t-2 8.5t-9 1q0 -5 -1.5 -8.5t-8.5 -1.5z" />
    <glyph glyph-name="K" unicode="K" horiz-adv-x="749" 
d="M408 743q33 -9 68 -11t69 -2t66.5 -1t59.5 -7q2 -19 0.5 -35t-10.5 -25q-12 -1 -24 -1.5t-22 -3t-17 -8.5t-8 -18q-7 -3 -16 -4t-17 -3t-13 -7t-4 -16q-8 -2 -8.5 3.5t-6.5 6.5q-8 -13 -16 -31q-8 -2 -8.5 4t-6.5 7q-32 -41 -75 -72t-82 -65q-1 -8 1.5 -11.5t5.5 -7
t4.5 -8.5t-1.5 -14q14 -2 22 -10t14.5 -17t14 -17t20.5 -11q3 -28 17.5 -45t31.5 -31t32 -29.5t20 -41.5q20 -5 30 -19.5t18.5 -31t19.5 -30t34 -16.5q5 -12 15 -20t21.5 -14t23.5 -11.5t21 -14.5v-51q-8 3 -11.5 1.5t-6 -4l-5 -5t-8.5 -2.5q-22 6 -46 8t-48 1.5t-46.5 -3
t-41.5 -6.5q-6 6 -16.5 8.5t-23 2.5t-26 -1t-25.5 0q-3 16 -0.5 27t9 17.5t16 10t20.5 6.5q5 -1 5.5 3.5t0.5 9t1 7.5t9 0q-14 33 -30 62t-41 49v26q-18 9 -28 24.5l-20 32t-21.5 30.5t-32.5 19q3 12 -1 17t-9 8.5t-9 8.5t-1 17h-25q-10 -27 -13.5 -63t-3 -73.5t4 -75
t7.5 -67.5q12 -8 24 -15t21.5 -17.5t14 -25.5t1.5 -38q-8 2 -19.5 1l-22.5 -2t-19 1t-10 10q-21 -13 -46 -11.5t-51 6t-51 6.5t-45 -11q-11 10 -10.5 30.5t0.5 40.5q33 -1 50.5 12t25.5 33.5t9 47t1 53.5t2.5 51t12.5 41q-6 3 -8 9.5t-12 5.5q2 8 1 19.5l-2 22.5t1 19t10 10
q-9 36 -7.5 67t3.5 61t0 61.5t-16 68.5q-1 9 -12.5 6.5t-17.5 -0.5q3 9 1 13t-6 5.5t-9 2.5t-7 4q4 9 5 13.5t0.5 7.5t-2.5 8t-3 16q12 -2 26.5 -0.5t28 2t25 -1.5t17.5 -10q18 10 40.5 11t45.5 -1t44.5 -3.5t36.5 3.5v-40q-22 2 -38 -2.5t-13 -27.5h-20q-6 -17 -9 -41.5
t-3 -50t3 -50t9 -41.5q31 7 54.5 23t44.5 34l43 36t50 29q-2 12 0.5 20t6 14.5t7.5 12.5t7 14q-3 10 -9.5 16t-21.5 4q2 14 -4 21t-16 9q0 6 2.5 8.5l5 5t4 6t-1.5 11.5zM185 631h20q-1 4 0 10t1 11t-2 8t-9 2q0 -6 -2.5 -8.5l-5 -5t-4 -6t1.5 -11.5zM134 631q15 -2 21.5 4
t9.5 16h-31v-20zM175 479v20h-20q-6 -26 20 -20zM216 439v20h-21q-6 -26 21 -20zM185 307q-2 10 -9 16t-21 4q2 -10 9 -16t21 -4zM530 84h10v20h-10v-20zM185 64q5 -1 10.5 3.5t8.5 10t1.5 10.5t-10.5 6q0 -5 -2.5 -7.5l-5 -5t-4 -6.5t1.5 -11zM519 49q1 -3 7.5 -5t13 -1.5
t10.5 4.5t0 12q-1 3 -7.5 5t-13 1t-10.5 -4.5t0 -11.5z" />
    <glyph glyph-name="L" unicode="L" horiz-adv-x="716" 
d="M47 743q6 -9 19.5 -10t28.5 -0.5t28.5 -0.5t19.5 -10q17 10 39.5 11t45.5 -2t44.5 -9t37.5 -10q9 4 16 10t14.5 11t17 8t23.5 2q6 -6 8 -15t2.5 -20t0 -23t0.5 -23h-97q-22 -23 -31.5 -53.5t-11.5 -66.5t0.5 -75.5l5 -78.5t1.5 -77t-9 -70q5 -10 8 -27.5t3.5 -36
t-2.5 -36t-9 -27.5q0 -7 4 -10.5t8.5 -6.5t7 -8t0.5 -15q17 2 33.5 -1.5l31.5 -6.5t29 -3t28 11q10 -3 16 -9.5t4 -21.5h35q8 1 5.5 12.5t-0.5 18.5q65 2 98 34t44 87q16 1 20.5 13t8.5 24.5t12 21t30 2.5q8 -25 10 -56t1.5 -64.5t-2 -67.5t0.5 -65q-19 -10 -48 -11t-58.5 1
t-55.5 3.5t-40 -3.5q-20 6 -41.5 6.5t-50.5 3.5q-8 1 -10.5 -5t-9.5 -5q-19 2 -38.5 1.5t-40 -0.5t-41.5 1.5t-42 7.5q-14 -9 -35.5 -10t-45 -0.5t-45.5 -0.5t-36 -9q-9 9 -10 25.5t0 34.5q17 11 36 18t50 3q22 15 30 50.5t8.5 77.5t-4.5 84.5t-9 70.5q4 4 7.5 15.5t4 23.5
t-2 22.5t-9.5 14.5q9 23 8.5 43.5t-3 39.5t-3.5 37t8 37q-5 25 -17 44t-28 33t-35.5 25t-40.5 20q4 11 10 20.5t10 20.5zM604 94v20h-20q3 -17 20 -20z" />
    <glyph glyph-name="M" unicode="M" horiz-adv-x="955" 
d="M656 580q26 4 21 41q-7 0 -10 -3t-5.5 -7t-5.5 -7t-10 -3q-13 11 -22.5 25.5l-19.5 28.5t-21.5 26.5t-27.5 20.5q5 11 10.5 20.5t9.5 20.5q21 -2 46 -1l49.5 2t46 -1t36.5 -11q0 7 6 8.5t12.5 1.5t12 1.5t4.5 9.5q16 -11 39 -8.5t44.5 4.5t38 -4t20.5 -33
q-13 -17 -30 -29.5l-34.5 -25t-32.5 -27t-25 -34.5q11 -39 14.5 -92t3.5 -109t-2.5 -110l-4.5 -95q4 -24 9.5 -46.5t16 -40.5t28.5 -29t47 -10q2 -9 5 -18.5t4.5 -18.5t-0.5 -18t-9 -16q-76 11 -147 8.5t-127 -8.5q3 7 0 8.5t-7.5 1.5h-8.5t-4 5q3 14 9 24.5t1 31.5
q22 2 36 10t35 10q-3 21 0 37.5t5 31t0 26t-15 22.5q16 28 18 60.5t0.5 66.5t-1 69t12.5 67q-11 13 -14 25.5t-2 26t3.5 29.5t2.5 35q-32 -26 -49 -67t-22 -95q-20 -11 -31 -29.5t-9 -51.5q-6 3 -8 0.5t-2.5 -5.5t-2 -5t-7.5 0q0 -22 -7.5 -36t-15.5 -27.5t-14 -29t-4 -39.5
q-6 -6 -13.5 -16.5t-12 -22.5t-4.5 -24.5t10 -22.5q-8 -29 -17.5 -56t-23.5 -50h-61q-11 76 -33 141t-48 126.5l-53 122.5t-48 127h-25q-11 -32 -12.5 -68t0 -72t2.5 -70t-5 -64q3 -17 20 -20q-2 -12 -1 -26t1.5 -28t-1.5 -25t-9 -17q5 -23 22 -33l34.5 -19.5t29 -25.5
t5.5 -49q-17 4 -24 -1.5t-17 -8.5q-4 6 -19 9.5t-31.5 3.5t-31.5 -3.5t-19 -9.5q-12 9 -28 8.5t-33.5 -3t-35.5 -3t-35 7.5q-4 33 9.5 48.5t32 26t36.5 22t24 35.5q-11 23 -15 51.5t-3 58t6 58.5t12 55q-5 16 -8.5 41.5t-4 52.5t2 52t10.5 41q-6 3 -9 13t-3 22t3 22.5
t9 13.5q-26 23 -49.5 49.5t-52.5 46.5q5 11 10.5 20.5t10.5 20.5q75 -12 148 -14.5t145 14.5q9 -22 31 -31q-12 -40 -51 -50q-3 -27 -0.5 -48t8.5 -38.5t15 -32l18 -28.5q-6 -36 1.5 -57t19 -38.5t21.5 -37t8 -50.5q10 -8 15.5 -19t10.5 -23.5t10.5 -24t14.5 -19.5
q24 16 36.5 42.5t22.5 56t21 57.5t31 47q-2 16 0.5 27.5t7 21t8.5 19.5t5 23q10 -2 14.5 0.5t8 7t7 8.5t10.5 4q0 6 -2.5 8.5l-5 5t-4 6t1.5 11.5q7 0 10 -3.5t5.5 -7t5.5 -7t9 -3.5zM231 641q-1 4 0 10t1 11t-2 8t-9 2q1 -4 0 -10t-1 -11.5t2 -8.5t9 -1zM180 368v30h-30
q-3 -33 30 -30z" />
    <glyph glyph-name="N" unicode="N" horiz-adv-x="881" 
d="M235 743l14 -21.5t26 -9.5q1 -18 8 -30t15.5 -22.5t16.5 -22t11 -26.5q14 0 23 -5t16.5 -11.5l15 -13.5t16.5 -11q2 -25 14 -40t27 -27.5l29.5 -25t20.5 -33.5q27 -15 47.5 -36.5t39.5 -44l38 -45.5t42 -41q8 2 12 11.5t4 21t-3 22t-8 15.5q8 -3 9.5 1.5t1 9.5t1 9t9.5 1
q-9 5 -10 18t0 28t0 27.5t-11 17.5q8 32 9.5 67.5t-8 66.5t-31.5 52.5t-61 26.5q-4 28 3.5 44.5t22.5 26.5q54 -10 113 -7.5t125 7.5q12 -19 16.5 -38.5t-6.5 -42.5q-30 4 -47.5 -12t-25 -40.5t-6.5 -52t8 -47.5q-6 -14 -4 -40.5t4 -56.5t1.5 -59t-11.5 -47l4.5 -35
t3.5 -39.5t-0.5 -40t-7.5 -37.5q5 -23 8.5 -48t5 -48t1 -43t-4.5 -33h-91q-9 21 -31 30q3 13 1.5 23t-3.5 18t-5 16t-3 19q-14 9 -23.5 21l-19 25t-21 23.5t-27.5 16.5q-12 16 -22 34t-20.5 35t-24.5 31t-34 22q-9 27 -27 44.5t-37 33.5t-35.5 35t-22.5 49q-13 4 -23 11
t-19 15.5t-17 17.5t-17 17q-17 -13 -18.5 -31t0.5 -38t3 -40t-10 -38q9 -13 10 -37t-0.5 -52.5t-2.5 -57.5t3 -51q3 -20 10 -32.5t18 -21.5t26.5 -15t36.5 -12q6 -14 8.5 -31t1 -34t-6 -32t-13.5 -24q-32 14 -66 16t-69.5 0t-73 -3.5t-75.5 7.5v81q13 0 21 5.5t15 11.5
t16 10.5t24 2.5q21 28 25.5 66t3.5 79l-2 81.5t9 72.5q-5 10 -8 28.5t-4 38t2 37.5t10 28q-8 4 -10 13.5t-1.5 21t1.5 24t0 22.5q-7 11 -18 17.5t-23 12.5t-22.5 13t-17.5 18q1 20 7.5 35t12.5 31h162z" />
    <glyph glyph-name="O" unicode="O" horiz-adv-x="870" 
d="M506 790q11 4 10 -5t0 -16q72 -2 121.5 -23.5t71.5 -72.5q45 -25 73 -68t41.5 -98.5t14.5 -120.5t-8 -133q-6 2 -7.5 0t-2 -5.5t-2.5 -5.5t-8 0q3 -32 -6 -52t-21.5 -36.5l-25 -33t-18.5 -40.5q-36 -18 -76 -40.5t-84.5 -39t-95 -22.5t-108.5 11q-6 2 -8 0t-2.5 -5
t-2.5 -5t-8 0q-17 9 -34 17t-47 3q-23 11 -42.5 26l-38 30.5l-38 30.5t-43.5 25q1 15 -5 23.5t-12.5 16.5t-11 18t-1.5 28q-25 13 -34 37t-10.5 52.5t-1 58.5t-5.5 54q11 122 60 204t148 116q9 24 29.5 32.5t46 11t51.5 2t45 4.5q9 -4 23 -5t28.5 1t27 8t17.5 17zM223 668
v20h-21q-6 -26 21 -20zM243 638q3 -12 -1.5 -17.5t-12 -9t-15.5 -6.5t-12 -8q-5 -6 -6 -14t-3 -16t-6.5 -14t-14.5 -7q-9 -34 -15 -79t-6 -90.5t9 -85.5t32 -64q0 -6 -6 -6.5t-4 -8.5q23 -26 46.5 -50t44.5 -51q13 -4 28 -5.5t29.5 -4t26 -7t18.5 -14.5h162q7 14 22.5 18.5
t37.5 2.5q6 7 12 15.5t12.5 16t15.5 12.5t21 6q3 38 41 41q-2 27 4 55t11 56t5.5 55t-10.5 52q1 3 3.5 4t4.5 2.5t3 4.5t-1 9q-14 32 -25.5 68t-25.5 69q-5 1 -11.5 0.5t-8.5 4.5q-5 18 -16.5 28t-25.5 18.5l-27.5 17t-21.5 22.5q-22 -4 -38 3.5t-31 15.5t-29.5 11
t-33.5 -10q-6 12 -18 12t-25 -3t-23.5 -5t-14.5 6q-12 -7 -22.5 -15.5t-21.5 -16t-25 -13t-32 -5.5zM760 172v20h-21q3 -17 21 -20z" />
    <glyph glyph-name="P" unicode="P" horiz-adv-x="621" 
d="M275 759q55 -7 103 -18.5t87 -31.5t68 -51t46 -76q2 -24 1.5 -45.5t-3 -41.5l-5 -39.5t-3.5 -40.5q-16 -24 -31 -49t-34 -46t-45.5 -34t-66.5 -13q-4 -9 -15.5 -10t-15.5 -10h-106q2 -7 -1.5 -8.5t-8.5 -2.5q3 -10 3.5 -24.5t-1 -30t-5 -32t-7.5 -29.5q-1 -20 8 -30
t22.5 -15t29.5 -8t29 -9.5t19.5 -19t2.5 -35.5q-11 -4 -20 -9.5t-20 -10.5q-27 10 -61.5 9.5t-71 -1.5t-71 2.5t-60.5 20.5q4 9 9 16t1 24q27 7 42.5 32t22.5 58t5 69t-9 64q17 31 17 74.5t-5 90t-8.5 92.5t6.5 82q-16 19 -34.5 34t-46.5 22q-2 13 0 23t5.5 18t8 15t7.5 15
q31 4 60.5 0.5l56.5 -6.5t51 -1t44 17zM235 658q-2 -5 -0.5 -12.5t1.5 -14t-2 -11t-9 -3.5q6 -30 7.5 -66.5t2.5 -75.5t2.5 -77.5t7.5 -73.5q19 -3 34 -0.5t29 5.5t29 5.5t35 -0.5q36 13 57.5 47t30 76.5t2.5 87.5t-25 82q-22 1 -31 14.5t-19 26.5q-25 -3 -47 0t-40.5 5
t-34.5 0t-30 -15z" />
    <glyph glyph-name="Q" unicode="Q" horiz-adv-x="880" 
d="M550 734q11 0 31.5 -2t41.5 -8t37.5 -17t21.5 -29q16 1 26 -3t16.5 -12.5t10.5 -19l8 -21.5q19 -3 28.5 -15.5t16.5 -27.5l14.5 -30t21.5 -23q-2 -38 2.5 -74t6 -69t-3.5 -61t-25 -49q4 -32 -3 -53t-18 -38q-8 -2 -8.5 3.5t-6.5 6.5q-6 -7 -12.5 -13t-12.5 -13
q-3 -7 -1.5 -9.5t4.5 -4t5.5 -3.5t1.5 -8q-5 -10 -13 -17l-16 -14.5t-14 -17t-8 -22.5q-18 -4 -32 -12t-27 -17.5t-25 -19.5t-27 -17q-3 -7 -1.5 -9.5t4.5 -4t5.5 -3.5t1.5 -8q33 2 51.5 -9.5t29.5 -31.5q50 -9 93 -25t84 -35q29 5 69 3.5t81.5 -2t80 5t63.5 23.5
q34 -6 66.5 2.5t64 23.5l63 31t64.5 24q16 -3 21 -20q1 -7 -4 -8.5l-10 -3t-8 -5t1 -14.5q-9 -3 -19.5 -5.5t-19 -6t-14.5 -10t-7 -18.5q-21 -2 -33.5 -11.5l-24.5 -19.5t-27.5 -17t-41.5 -3q-5 -6 -12 -10.5t-3 -19.5q-5 -2 -12.5 -0.5t-14 1.5t-11 -2t-3.5 -9
q-8 -2 -8.5 3.5t-6.5 6.5q-6 -5 -10 -10.5t-10 -9.5q-11 4 -25.5 3.5t-30.5 -4.5t-32 -9.5t-29 -10.5q-33 3 -86 3.5t-111 5t-111.5 16t-86.5 36.5q-6 2 -7.5 0t-2.5 -5t-2.5 -5t-7.5 0q0 5 -2.5 7.5l-5 5t-4 6t1.5 11.5q-21 -3 -32 4t-20 15.5t-20 15.5t-30 6q0 5 -2.5 7.5
l-5 5t-4 6t1.5 11.5q-18 -3 -28 2.5t-18.5 12.5t-18 12.5t-26.5 3.5q3 7 1.5 11t-4 6.5l-5 5t-2.5 7.5q-9 -8 -18 -7.5t-20 3.5t-24 5.5t-29 -1.5q2 6 0 8t-5 2.5t-5.5 2t0.5 7.5q-21 -3 -32.5 3.5t-20.5 15.5t-19.5 16t-29.5 6q-10 13 -19 26.5t-31 13.5q-9 27 -19.5 52.5
t-31.5 39.5q2 19 -1 33.5t-19 16.5q-2 5 -0.5 12.5t1.5 14t-2 11t-9 3.5q-2 8 3.5 8.5t6.5 6.5l-13.5 19.5t-7.5 26.5q7 10 9.5 25.5t2 33.5t-1.5 37t1 35q3 13 8.5 24t10.5 22.5t8.5 24.5t2.5 31q18 10 25 30.5t16 40.5q19 5 32.5 16.5l26.5 23t28.5 20.5t38.5 11
q3 5 9.5 7.5t5.5 12.5q46 10 82.5 16.5t70 9t69.5 1t82 -6.5q2 -8 -3.5 -8.5t-6.5 -6.5zM581 698h10v21h-10v-21zM246 617q-18 0 -26 -11t-13 -25t-11 -27.5t-21 -17.5q-6 -24 -8 -52.5t-12 -48.5q4 -7 5.5 -10t1.5 -5.5t-1.5 -5.5t-5.5 -9q9 -2 10.5 -9t0 -15.5t-5 -16
t-5.5 -10.5q6 -23 10.5 -47t10.5 -46.5t15 -41.5t25 -32v-26q10 -2 16 -9t4 -21q26 -7 48 -18l44 -22t46 -20t55 -11q23 8 50 5t51 -5q1 6 0.5 12.5t4.5 7.5q17 0 27.5 7t20 14.5t20.5 13.5t28 6q-2 12 2.5 17.5t10 10.5t8.5 12t-1 21q12 -3 16 1.5t6.5 11t5.5 12.5t13 5
q3 56 20 101q-6 2 -9 14.5t-3 26.5t3 26t9 14q-11 28 -13 50.5t3 51.5q-5 1 -12 0.5t-8 4.5q4 29 -6 43.5t-24.5 25t-27 22t-13.5 35.5l-52 27t-60 25.5t-67.5 12t-73.5 -13.5q-1 5 -2.5 8.5t-7.5 1.5q-11 -11 -27 -16t-32 -11t-28 -15.5t-15 -28.5zM763 415h20q-1 9 1.5 14
t5.5 9.5t4.5 10t-1.5 16.5h-20q3 -11 1 -16.5t-5 -10t-5.5 -9.5t-0.5 -14zM783 324q15 -2 21.5 3.5t9.5 16.5q-6 0 -8.5 2.5l-5 5t-6 4t-11.5 -1.5v-30zM74 288q6 -5 11 -12t19 -3v40q-30 3 -30 -25zM773 242v41h-20q-5 -37 20 -41z" />
    <glyph glyph-name="R" unicode="R" horiz-adv-x="786" 
d="M251 729q23 14 49.5 16.5t54.5 -0.5t57 -8.5t56 -7.5q9 -12 20.5 -20.5t24 -16.5l24.5 -16t23 -18q4 -12 5 -27t2.5 -30.5t4 -29.5t8.5 -25l-24 -49t-27 -47t-34.5 -39.5t-46.5 -26.5q0 -17 10.5 -32l20.5 -28.5t15 -27t-5 -28.5q0 -8 11.5 -5.5t18.5 0.5q0 -26 10.5 -41
t23.5 -27t24.5 -26t12.5 -38q26 -9 54.5 -16t51.5 -19.5t36.5 -35t9.5 -61.5q-21 -3 -35 0.5t-27 8.5t-26.5 9t-33.5 3q-9 18 -28.5 26t-42.5 14q-44 45 -81 96t-81 97q0 26 -8.5 43.5t-23 28.5t-34 17.5t-40.5 11.5q-22 -10 -31 -24t-11.5 -31.5t0 -37t4.5 -39t1.5 -39.5
t-9.5 -37q6 -2 8 -7.5t2.5 -12.5t0 -15t-0.5 -15q10 -7 23.5 -11t27.5 -7.5l27 -7t24 -10.5v-51q-41 -4 -78 -5.5t-74 -1t-76.5 2t-85.5 4.5q-5 28 2.5 43.5t21.5 24t32.5 13t34.5 11.5q2 30 0.5 63.5t-2 66.5t1 63.5t10.5 54.5q-11 24 -12 58t1 71t3.5 73.5t-4.5 65.5
t-24 46t-55 15q-1 8 -6.5 15.5t-10 15t-6.5 15t3 15.5q9 14 27 13t37.5 -5.5t38 -7t28.5 9.5q7 -4 20 -3.5t27 0.5t27.5 -3.5t22.5 -13.5zM245 658q-4 -59 -2.5 -106t-7.5 -87q8 -21 17.5 -38.5t33.5 -21.5l54 19.5t50.5 22.5t41.5 31.5t26 47.5q-5 10 -8 22.5t-4.5 26
l-3 27t-4.5 25.5q-8 12 -21 19.5t-28 12.5t-31 9.5t-31 9.5q-8 -3 -18 -4t-20.5 -1.5t-21.5 -3.5t-22 -11z" />
    <glyph glyph-name="S" unicode="S" horiz-adv-x="604" 
d="M515 759q1 -17 0 -37t-1 -39.5t1.5 -36.5t9.5 -29q-5 -10 -6 -24t-4.5 -26t-12.5 -18.5t-28 -2.5q-5 10 -9 21.5t-9 21.5t-12.5 17.5t-19.5 10.5q-3 28 -24 39t-49.5 12t-59.5 -3.5t-55 -6.5q-8 -12 -15 -25.5t-14.5 -26t-16 -24t-20.5 -20.5q16 -10 24 -28t17.5 -34.5
t25 -27.5t45.5 -7q51 -49 142 -60q1 -8 5.5 -12.5t9.5 -8.5t9.5 -8.5t5.5 -11.5q21 3 31 -5t16.5 -19l13 -22t20.5 -15q-1 -17 2.5 -29t9 -22.5l11 -21t8.5 -23.5q1 -11 -1.5 -17t-4.5 -10t-1.5 -8t7.5 -11q-8 0 -10 -5.5t-1.5 -13.5t1.5 -16.5t0 -14.5q-23 -18 -38.5 -43
t-32.5 -48q-23 -3 -43.5 -7.5t-27.5 -23.5q-4 4 -13.5 4.5t-20 -1t-21 -5t-16.5 -8.5q-27 3 -62.5 5t-74.5 2.5t-79.5 -1t-77.5 -6.5q-5 26 -5 54t1 57t0.5 59.5t-6.5 62.5q9 9 25.5 10t35.5 0q-2 -19 8.5 -26.5t21.5 -13.5q4 -41 26 -65t55 -34.5t74 -10t83 7.5l44.5 40
t31.5 52q2 6 0 7.5t-5 2t-5 2.5t0 8q-2 6 0 7.5t5 2.5t5 2.5t0 7.5q-13 46 -47.5 69t-84.5 32q0 7 -3 10t-7 5.5t-7 5.5t-3 10q-62 11 -114 32.5t-89 58.5q4 11 0.5 20.5t-9.5 18l-12.5 17.5t-8.5 20q-4 19 -2.5 39.5t7 39t15 33.5t21.5 25q-3 14 -1.5 20.5t6 10.5t12.5 7.5
t18 11.5t20 17.5t22 17.5t27.5 12.5t36.5 3.5q34 6 66 7.5t65 0.5t68 -1t75 3z" />
    <glyph glyph-name="T" unicode="T" horiz-adv-x="803" 
d="M257 749q19 -13 35.5 -15t31.5 -0.5t29.5 2t30.5 -6.5q3 6 15 9t25.5 3t25.5 -3t15 -9q22 11 50.5 9t56 -5t52 0t38.5 26q13 -1 28 0t29 1t25.5 -2t19.5 -9q3 -19 -4.5 -33.5l-15 -28t-10.5 -26.5t9 -28q-7 -23 -11.5 -47t-8.5 -50q-8 3 -11.5 1.5t-6 -4l-5 -5t-7.5 -2.5
q4 11 -5 10t-16 0q-3 20 -11.5 34l-17.5 28t-15.5 30t-5.5 40q-9 3 -13.5 1t-6 -6.5t-1 -11.5t0.5 -13q-3 -1 -7.5 -0.5t-8 0t-5.5 -2.5t0 -8q-32 9 -66 15t-65 16l9 -37t-9 -34q5 -7 8 -22t3.5 -31.5t-2.5 -31.5t-9 -21q8 -42 7.5 -92l-1 -101.5t3 -101t20.5 -90.5
q11 -10 25 -17t27 -14.5t23.5 -18t15.5 -26.5q-6 -11 -10.5 -22.5t-14.5 -18.5q-19 12 -44 16t-51 3t-52 -4t-46 -5q-20 6 -34.5 6.5t-29.5 -1.5l-31.5 -4t-40.5 -1q-3 18 -9 32.5l-12 28.5q11 -4 10 4.5t0 15.5q48 3 83.5 16.5t58.5 39.5q-9 12 -10 32.5t0.5 41t3 38
t-3.5 25.5q14 92 16.5 189.5t-16.5 185.5q-9 1 -21 0t-23 -1t-19.5 2t-12.5 9q-22 -5 -43 -11t-38.5 -16t-29.5 -25.5t-16 -38.5q-11 1 -17 -2.5t-10 -8.5t-8 -11t-10 -9q-27 3 -36 20t-7 39t11 45t17 38q-12 11 -8 27t18 24q2 6 0 7.5t-5 2.5t-5.5 2.5t0.5 7.5
q10 24 33.5 25.5t50.5 -5l54 -13t44 2.5z" />
    <glyph glyph-name="U" unicode="U" horiz-adv-x="780" 
d="M720 739q5 0 7.5 -2.5l5 -5t6 -4t11.5 1.5q1 -18 -6 -31.5t-17.5 -25t-22 -22t-18.5 -22.5t-7.5 -26.5t11.5 -34.5q-6 -5 -8.5 -15t-2.5 -21t2.5 -20.5t8.5 -14.5q-9 -22 -11.5 -51t-1 -60t5.5 -60.5l7 -51.5q-11 -12 -14.5 -24t-3.5 -26t2.5 -29t4.5 -33
q-20 -9 -29 -28.5t-17 -39.5t-20.5 -35.5t-39.5 -17.5q-20 -21 -49.5 -32t-72.5 -9q-2 -5 -6 -7t-8.5 -3.5t-9 -3.5t-6.5 -6h-25t-15 10q-6 2 -9 1t-4.5 -3t-3 -4.5t-4.5 -3.5q-15 5 -23.5 8.5t-21.5 -8.5q-15 4 -28 10.5l-25.5 13t-26.5 11.5t-32 6v20q-20 1 -29 12t-15 25
t-13.5 26.5t-23.5 17.5q-3 48 -12.5 89t-17.5 83q11 10 11.5 30.5t-1.5 43t-1.5 43t11.5 30.5q-6 4 -9 18.5t-3.5 30t2.5 29.5t10 18q-6 53 -27.5 89.5t-63.5 52.5q-4 32 10 51q16 3 30 0t26 -6.5t23 -3.5t22 10q22 -10 39.5 -10.5t34.5 2.5l35.5 6t42.5 2q-2 -17 1 -29.5
t9 -21.5q-5 -14 -16.5 -21.5t-24 -14t-23.5 -14.5t-17 -21q2 -23 1 -48.5l-2 -51t1 -48.5t10 -39q-11 -30 -9.5 -60.5t7 -62l11 -64.5t2.5 -67q11 -21 26.5 -36.5t23.5 -39.5h31q-1 -8 3.5 -11.5t10 -5t10.5 -4t6 -9.5h81q29 3 48.5 15t34.5 28.5t28.5 35t30.5 33.5
q-2 19 3 37l10 35.5t6 33.5t-9 30q7 14 10 34t-10 32q5 10 10.5 24t8.5 30t1.5 31t-10.5 27q12 0 10.5 3t-5 6.5t-5 7t9.5 3.5q-9 18 -10.5 44.5t-6 50t-18 38t-46.5 9.5q-3 17 -20 20q-1 19 0.5 35.5t9.5 25.5q30 3 59 -1t56.5 -7t52 -0.5t45.5 18.5z" />
    <glyph glyph-name="V" unicode="V" horiz-adv-x="875" 
d="M821 745q4 -8 9.5 -18t8.5 -21t2 -22t-10 -20q-34 -3 -56 -17.5t-36.5 -36.5t-23.5 -50.5t-15 -58.5q-13 -6 -19 -18.5t-11.5 -26.5t-11.5 -27t-19 -19q-1 -38 -13.5 -64.5t-27.5 -51t-27.5 -51.5t-12.5 -66q-7 -1 -9.5 -6t-4.5 -10.5t-5 -10t-12 -3.5v-31q-6 3 -7.5 0.5
t-2.5 -5.5t-2.5 -5t-7.5 0q-4 -27 -11.5 -49.5t-20 -40t-32 -28t-47.5 -13.5q-8 11 -21 16.5t-20 18.5q-2 6 -1 8.5t3 4t4.5 3t3.5 4.5q-20 21 -31.5 50.5t-22 60.5t-23 59.5t-34.5 47.5q1 5 3.5 8t4.5 6.5t3 8.5t-1 13q-8 5 -13.5 14t-16.5 11q-6 19 -10.5 38.5t-11 37
t-15.5 32.5t-24 24q1 12 -1.5 20t-5.5 16t-4.5 17t1.5 23q-6 3 -8.5 9.5t-12.5 5.5q5 37 -20 40q0 25 -10 40.5t-25 25.5t-33 17.5t-33 18.5v50q38 4 69 5.5t64.5 2t73.5 1t97 2.5q8 -22 8 -36t-8 -35q-17 -6 -37 -9t-34 -12q-1 -47 12.5 -80t30 -62.5t31 -61t17.5 -74.5
q6 -3 8.5 -9.5t11.5 -5.5v-36q2 -5 8.5 -4.5t12.5 -0.5q-2 -19 0.5 -34t19.5 -17q-4 -19 -1 -31t8.5 -21.5t12 -18t10.5 -20.5q25 29 38 68.5t23 83.5q12 3 17 13.5t8 22.5t8 22.5t18 12.5q4 35 14 65t22 58l24 56t21 59q-21 14 -39 30t-42 26v51q27 8 62 6t71.5 -5t73 -3
t66.5 12z" />
    <glyph glyph-name="W" unicode="W" horiz-adv-x="1195" 
d="M938 748q10 -10 25 -10t25 10q11 -8 27.5 -10t35.5 -2t39 1.5t37.5 0.5t31.5 -5.5t22 -15.5q-5 -22 -19 -34t-30.5 -22t-31.5 -22t-21 -33q-15 -5 -23 -17.5t-14 -26.5t-13 -27.5t-20 -19.5q0 -17 -0.5 -33t-4.5 -29t-12 -21t-24 -8q-13 -58 -35 -107t-46 -96t-46 -96
t-35 -107q-8 -2 -14 -6t-12.5 -7.5t-14.5 -6t-20 -0.5q-16 21 -25.5 48t-14.5 58q-31 46 -55.5 97.5t-36.5 115.5q-6 7 -12 13l-13 13q-3 -10 -8.5 -18t-10 -17t-6.5 -20.5t0 -26.5q-22 -25 -38 -56t-29.5 -64l-26.5 -67.5t-28 -65.5q-7 -1 -15.5 0t-4.5 -10q-7 2 -12.5 5.5
l-11 7t-12 5.5t-15.5 2q-1 17 -6 31l-10 27t-9.5 27t-4.5 32l-19.5 28.5t-18 30t-14.5 33.5t-9 40q-11 19 -24 36.5t-24.5 36.5t-20.5 40.5t-12 48.5q-17 8 -24.5 25t-13 36.5t-12 37.5t-21.5 27q-13 44 -38 74t-73 38v61q21 9 39 8t34.5 -4t33 -4t34.5 10q19 -11 39.5 -10
t40.5 3.5t38.5 1.5t33.5 -16q-5 -28 -21.5 -44t-38.5 -27q-3 -16 -1.5 -27.5t4 -22l5 -21.5t2.5 -25q21 -9 29 -30.5t13.5 -46t12.5 -47t26 -33.5q3 -28 13 -49t21.5 -40.5t21.5 -40t15 -47.5q6 -7 12.5 -13l12.5 -12l56 98t50 104h21q-3 26 -9.5 47t-21.5 34l-22.5 66
t-27 62t-37.5 51.5t-55 33.5v41q21 6 45.5 5.5t52 -3t56.5 -4.5t59 2q4 -10 9 -17t1 -24q-7 0 -10 -4l-6 -8t-6.5 -7t-12.5 -1q-3 -2 -4.5 -6t-2.5 -8t-2.5 -7.5t-5.5 -4.5q11 -8 16 -23t8.5 -31t8.5 -30.5t17 -21.5q13 8 28 27t24 41.5t8.5 45t-19.5 38.5q-4 32 10 51
q16 -8 35.5 -7.5t42 3.5t46.5 5.5t48 -1.5q-1 -9 1.5 -14t5.5 -10t4.5 -11t-1.5 -16q-11 -11 -25 -18t-27.5 -15t-24.5 -19t-14 -29h-20q-18 -38 -34.5 -77t-46.5 -65l19.5 -59t21 -58t26 -52.5t34.5 -43.5v-35q2 -3 6 -4.5t8 -2.5t7.5 -2.5t4.5 -5.5q11 5 14 18.5t1 31.5
q25 4 20 41q36 23 41 81q15 3 21 14.5t10 25t9.5 25.5t19.5 16q4 26 13 47l18 41.5t15 44t5 54.5q-10 13 -22.5 21.5t-28.5 14.5v51q17 3 21 20zM593 353q2 14 -4 20.5t-16 9.5q-2 -14 4 -21t16 -9z" />
    <glyph glyph-name="X" unicode="X" horiz-adv-x="833" 
d="M115 751q54 -12 109 -10t104 10q39 -12 51 -51q-17 -13 -31 -27.5t-30 -27.5q2 -15 8 -25t13 -20t12.5 -20.5t6.5 -26.5q2 -5 8.5 -4.5t12.5 -0.5q0 -14 4.5 -23t11 -16.5l13 -14.5t11.5 -17q31 3 47 20t28 38t26 39.5t41 24.5q0 14 -0.5 28t10.5 18q-9 17 -24.5 28.5
t-46.5 6.5q-10 10 -10 30.5t10 30.5q41 -3 71.5 -4t60 -1t62.5 1.5l80 3.5q9 -12 8.5 -24.5t-7.5 -23t-19.5 -17t-27.5 -6.5q-5 -2 -4.5 -8.5t-0.5 -11.5h-35q-3 -3 -4 -7.5t-3 -9t-6 -6t-13 1.5q3 -8 1.5 -11.5t-4 -6l-5 -5t-2.5 -7.5q-38 -2 -40 -41q-38 -30 -68 -68.5
t-64 -72.5v-36q25 -14 38 -38.5t23 -52.5q1 -5 8 -4.5t12 -0.5q18 -38 39.5 -72t48.5 -63.5t60 -52t75 -35.5q3 -12 1.5 -19.5t-4 -13.5l-5 -12.5t-2.5 -15.5q-42 -3 -80.5 -1.5t-75 3.5t-71 2.5t-67.5 -4.5q0 11 -8 14t-12 11q-2 7 0.5 10.5t5.5 6.5t5 6.5t-1 12.5
q10 -3 16 -1.5t11 4.5t10 5.5t14 1.5q-3 10 -1.5 15.5t4 10l5 9t2.5 11.5q-2 5 -8.5 4.5t-12.5 0.5q-16 56 -48 96t-68 76q-11 1 -16 -3t-8 -10t-5 -14t-7 -14q-6 -7 -14 -12.5t-16.5 -10.5t-16 -11.5t-13.5 -15.5q-2 -4 0 -10.5t0 -9.5q-6 -9 -14 -17t-14.5 -17
t-10.5 -21.5t-2 -31.5q12 -12 25 -22.5t36 -12.5q1 -12 -1 -20t-5.5 -14.5t-7.5 -12.5t-6 -14q-37 7 -71.5 6t-67.5 -2.5t-64 0.5t-61 16q-1 19 0.5 35.5t9.5 25.5h36l52.5 40.5t50.5 41.5t43.5 49t30.5 62q18 4 30.5 13.5t22 22t18.5 26t20 24.5q1 7 -1.5 11t-5 7.5t-4.5 8
t1 13.5q-51 63 -94 131.5l-88 137.5q-12 -2 -19.5 0.5t-14.5 5.5t-15.5 5t-21.5 -1q0 6 -2.5 9t-6 5.5t-7 4.5t-4.5 6q-2 7 0.5 10.5t5.5 6.5t5 6.5t-1 12.5q4 1 11.5 0t14 -1t11 1.5t3.5 9.5zM358 477h11v21h-11v-21z" />
    <glyph glyph-name="Y" unicode="Y" horiz-adv-x="858" 
d="M703 761q11 -9 20.5 -9t20.5 9q6 -11 13.5 -14t16 -2.5t18.5 3.5t23 3q8 -38 -3.5 -55t-29.5 -28l-36 -22.5t-22 -36.5q-26 -2 -36.5 -20t-14.5 -41q-26 -17 -44 -42t-27 -59q-29 -27 -50.5 -61t-30.5 -81q-8 -1 -12 -5.5t-8 -9.5t-8.5 -9.5t-12.5 -5.5q-7 -35 -9.5 -74
t5 -72t27.5 -55t58 -22q5 -29 -2.5 -45.5t-22.5 -25.5q-11 2 -23.5 5.5t-26 5t-25.5 -0.5t-21 -10q-19 11 -49 10.5t-61 -1.5t-57 2.5t-36 23.5q-1 11 1 18t6 13l8 11.5t6 13.5q12 2 22 0t13 -10q37 29 46.5 71t1 85.5t-29.5 83t-43 64.5v25q-42 61 -81 124t-71 135
q-25 -3 -42.5 5t-27 23t-10 34t8.5 39q39 -2 74 -4.5t70 -3t71.5 1t78.5 6.5v-41q-20 -8 -37.5 -18t-33.5 -22q-6 -13 -3.5 -22.5t8.5 -17.5t13 -15t12 -16q3 -5 0.5 -12.5t-0.5 -12.5q3 -7 8 -12.5t11 -11l12 -11t10 -11.5q10 -17 14.5 -37.5t15.5 -38.5q6 -11 14 -19.5
t15.5 -18t13.5 -21t8 -27.5h25q6 8 9.5 19.5t7.5 22t10.5 18.5t18.5 11v40q5 0 7.5 2.5l5 5t6 4t11.5 -1.5q3 27 14.5 45.5t24 35.5t22.5 37t10 50q-12 17 -32 26t-39 19v51q29 3 54.5 0.5l47.5 -4.5t42 0t38 14z" />
    <glyph glyph-name="Z" unicode="Z" horiz-adv-x="853" 
d="M147 748q94 -7 172 -30q4 3 10.5 6t13.5 4t13 -1t9 -9q4 5 18.5 8.5t30 3.5t29.5 -2.5t18 -9.5q37 14 76.5 14.5t77.5 -1t73.5 0t66.5 16.5q9 -7 21 -9.5t30 -0.5q11 -11 10 -35t0 -46q-34 -27 -64 -57.5t-58 -64.5q-44 -6 -50 -50q-30 -15 -54 -35t-47 -41.5
t-47.5 -41.5t-54.5 -34q3 -9 0.5 -13t-5.5 -7.5t-5.5 -7.5t0.5 -13q-33 -12 -55 -35.5t-46 -45.5q-8 0 -10 5.5t-1.5 13.5t1.5 17t-1 15h-20q7 -12 6.5 -21t-2 -17t-1.5 -16t7 -17q-6 -18 -20 -29t-29 -21t-27 -22.5t-15 -34.5q31 4 73.5 3.5t86.5 0t85 5t69 17.5
q25 -3 55.5 2t59 17.5t50 33t28.5 48.5q12 -1 25 0t25.5 1t23.5 -2.5t17 -8.5q-11 -14 -16 -34.5t-9 -42t-9 -42t-17 -33.5q9 -11 9 -21.5t-4 -22t-9.5 -23.5t-5.5 -24h-30v30q-37 -1 -51 20q-29 1 -54 -1.5t-50 -5.5t-51.5 -4.5t-57.5 1.5q-4 4 -12 7t-16.5 4t-16 -1.5
t-10.5 -9.5q-13 7 -26 6t-26.5 -3.5t-28.5 -2t-31 9.5q-6 -7 -18.5 -8t-26 -0.5t-25 -1t-16.5 -10.5q-18 11 -34 13.5t-33.5 1t-38 -4t-46.5 -0.5q-10 23 -9 40.5t7.5 32.5t15.5 29t16 30q37 14 60.5 41.5t41.5 59.5l30.5 17.5t29 19t24.5 24t17 31.5q33 -3 30 30
q21 6 34 19.5t24.5 28.5t25.5 27.5t38 15.5q1 19 12 28.5t23.5 17.5t23 17.5t12.5 27.5q24 2 37.5 15.5t25 28.5t26.5 26.5t43 10.5q2 10 -0.5 15t-7 8t-9 6.5t-4.5 11.5q-38 -3 -79 -1.5t-82 2.5t-79 -0.5t-69 -10.5q-33 0 -57 -9t-43 -22.5t-36 -29.5t-36 -30
q-8 -2 -11 0.5t-5.5 5.5t-6.5 5t-12 -1q3 25 8.5 47t11.5 43.5t11.5 44t8.5 47.5zM188 677q4 1 9.5 0t11 -1t8.5 2t1 9h-30v-10z" />
    <glyph glyph-name="zero" unicode="0" horiz-adv-x="577" 
d="M401 473q17 -17 40 -35.5t41.5 -40t29 -46.5t1.5 -55q7 0 8 -6t1 -13t1.5 -12.5t9.5 -4.5q-8 -18 -9.5 -41.5t-2 -48t-4 -46.5t-14.5 -36q-10 1 -15.5 -2.5t-8.5 -9.5t-4.5 -14t-2.5 -15q-22 -1 -31.5 -14l-19.5 -26q-24 3 -39 -3.5t-26 -16.5q-57 -12 -107 -6t-88 27.5
t-62.5 58.5t-31.5 87q-6 3 -8.5 9.5t-11.5 5.5q-5 35 -2 62.5t9 52t12.5 48t10.5 50.5q5 0 7.5 2.5l5 5t6 4t11.5 -1.5q-2 12 2.5 18t10 10t11 8.5t7.5 13.5q24 1 41 10l33.5 17.5t36.5 13.5t51 0q7 -7 19 -9t26 -2t28.5 1t27.5 0zM320 382q-47 11 -81.5 0.5t-56 -37.5
t-30.5 -68.5t-4 -92.5q15 -37 37 -66t64 -40q30 1 59.5 3.5t52 11.5t36.5 26.5t14 49.5q6 -2 8 0t2.5 5t2.5 5t8 0q0 11 -0.5 23t0 23t2.5 20t8 15q-14 48 -45.5 76.5t-76.5 45.5z" />
    <glyph glyph-name="one" unicode="1" horiz-adv-x="447" 
d="M284 509q-6 -8 -7.5 -20.5l-3 -25l-3 -25t-7.5 -20.5q6 -29 9.5 -67.5t3.5 -79.5t-3 -80t-10 -67q3 -17 10 -29.5l14 -25.5t12 -27t5 -34q-7 2 -8.5 -1.5t-1.5 -8.5h-152v50q8 -1 11.5 3.5t5 10t4 11t9.5 6.5q-5 30 -1.5 60t7.5 58t4.5 54t-10.5 50q-2 6 0.5 8t5.5 3.5
t5 4.5t-1 10q3 7 1 9.5t-5 4t-5.5 3.5t-0.5 8q-1 13 0.5 22.5t9.5 13.5q-15 19 -21.5 46t-18.5 50q13 7 32 15.5t39.5 14t39 5t31.5 -9.5z" />
    <glyph glyph-name="two" unicode="2" horiz-adv-x="523" 
d="M360 484q33 -57 28.5 -110.5t-30.5 -100t-65 -83.5t-75 -61q0 -12 8 -22t20 -15.5t25 -4.5t23 12q18 -6 38.5 -5.5t40 5t37 12.5t31.5 18q-2 -6 1.5 -7.5t8.5 -2.5q-8 -27 -17 -53t-13 -58q-33 -12 -76 -12t-90 4.5t-95.5 10.5t-93.5 7q5 35 28 52.5t53 28.5l23.5 -15.5
t22.5 -15.5q7 7 5 12t-7.5 8t-12.5 5.5t-10 5.5q-2 20 4 31t26 9q-3 10 -1.5 16t4.5 11t5.5 10t1.5 14q13 2 22.5 0t13.5 -10q-2 12 -2.5 27.5t2.5 30.5t11.5 27t23.5 16q3 14 6 30t4 32t-1 31t-9 29q-23 12 -53 19.5t-60 8t-56.5 -8t-43.5 -29.5q2 54 34.5 83t77.5 38
t94.5 0.5t87.5 -30.5z" />
    <glyph glyph-name="three" unicode="3" horiz-adv-x="448" 
d="M259 210q28 -34 81 -40q5 -17 20 -25l30 -16q-2 -12 1 -19.5l6 -14.5t5 -15.5t-1 -21.5q2 -8 -4 -8.5t-7 -6.5q-7 -70 -37.5 -116t-78 -75t-108.5 -44.5t-130 -22.5q-14 17 -10 50l111 43.5t117 37.5q18 25 26.5 59.5t8.5 77.5q-9 19 -24.5 31.5t-34.5 21.5t-41.5 14
t-46.5 9q-2 -6 -8 -8t-14 -2t-17 0.5t-16 -0.5q-11 10 -11 30.5t11 30.5q12 -5 19 -3.5t12 6t9 9.5t10 8q5 2 13 -0.5t13 0.5q8 5 11.5 13.5t13.5 16.5q6 5 14.5 8.5t16 5.5l13 3.5t6.5 3.5q5 6 10.5 19t9.5 29.5t7 34.5t4 33q-15 17 -28 36t-33 30h-132q8 22 29 40t49 29
t60.5 14.5t64.5 -2.5q22 -5 40.5 -16.5t32 -28t23 -36t15.5 -40.5q-8 -31 -22.5 -56t-32.5 -46.5t-37.5 -41z" />
    <glyph glyph-name="four" unicode="4" horiz-adv-x="611" 
d="M446 524q11 -20 7.5 -37.5t-9 -34t-8 -34t9.5 -36.5q-6 0 -9.5 -9.5t-3.5 -20.5t3.5 -20.5t9.5 -9.5q-5 -25 -9.5 -52.5t-7 -56t-1 -56.5t7.5 -53q28 -11 54 -12.5t47 17.5q-4 -11 4.5 -10t15.5 0q-4 -17 1.5 -24t8.5 -17q-6 -11 -10.5 -22.5t-14.5 -17.5
q-19 12 -47.5 10t-48.5 -10q-3 -30 -3 -54.5t0.5 -48.5t1.5 -50t1 -60q-23 -11 -56 -10.5t-66 0.5q-10 30 -4.5 63.5t13.5 68.5t11.5 70.5t-10.5 70.5q-4 -17 -16.5 -25.5t-30.5 -11.5t-39.5 -3h-42.5t-40 -1.5t-33 -8.5q-11 10 -19.5 8.5t-17.5 -6.5t-19 -10t-25 -2
q-1 3 -0.5 7t0 7.5t-2.5 5.5t-8 0q9 9 10.5 25.5t0.5 35.5q15 19 33 35l35.5 32.5t32 36.5t20.5 48q65 67 124.5 138.5l118.5 144.5h31zM228 210q-27 -13 -44 -34.5t-22 -56.5q11 -9 29.5 -10t38.5 -0.5t39 0t30 -9.5l19 13.5t26 6.5q-4 24 -1.5 54t4 59.5t-2.5 53.5t-20 36
q-10 -17 -23 -29.5l-26.5 -25t-26 -26t-20.5 -31.5zM385 119q7 -2 13 5.5t8 17t-0.5 18t-10.5 10.5q-14 -19 -10 -51z" />
    <glyph glyph-name="five" unicode="5" horiz-adv-x="450" 
d="M390 529q-5 -23 -13 -44.5t-7 -51.5q-9 -20 -28 -25t-42.5 -3.5t-49 5.5t-46 2.5t-34 -13.5t-13.5 -42l28 -28l28 -28q7 -2 10.5 0.5t6.5 5.5t6.5 5t12.5 -1q23 -9 40 -24t30.5 -34t25.5 -39t25 -39v-157q-3 -13 -10.5 -22.5t-14 -19t-11.5 -21t-4 -29.5
q-29 -27 -63.5 -48.5t-58.5 -52.5q-18 -2 -37.5 -12t-39 -18t-38.5 -9.5t-37 14.5q5 22 23.5 31t39 16t38 16.5t21.5 32.5q11 -3 16 1t9 9t9 9t16 1q1 28 13 43.5t28 27.5q4 29 6.5 57.5t13.5 49.5q-6 15 -11 30t-10.5 29.5t-12.5 27.5t-17 24q-3 3 -10 2.5t-10 2.5
q-5 5 -6.5 10t-3.5 10.5t-6 10.5t-14 10q-15 7 -28.5 8.5t-42.5 1.5q-1 7 -5.5 11.5t-10.5 7.5t-13 5t-12 6q13 57 29.5 108t31.5 105q15 2 34.5 0.5t38 -2t34.5 1t25 10.5q9 -5 18.5 -9t26.5 -1q6 6 15.5 16.5t19.5 17t21 6.5t20 -15zM147 433q15 -2 21.5 4t9.5 16
q-15 2 -21.5 -4t-9.5 -16zM238 433h11v20h-11v-20z" />
    <glyph glyph-name="six" unicode="6" horiz-adv-x="546" 
d="M459 727q5 -14 12 -26t18 -20q-2 -16 -9.5 -26.5t-17 -19.5l-19 -18.5t-15.5 -21.5h-25q-11 -14 -24.5 -24t-21.5 -27q-21 -2 -32 -13.5t-19.5 -25.5t-19 -26.5t-30.5 -15.5q-4 -14 -0.5 -20.5t8.5 -11.5t9.5 -10.5t2.5 -17.5q37 1 63.5 -8t47 -24t37.5 -33.5l35 -36.5
q2 -18 6.5 -33.5t8.5 -31.5t6 -34.5t-1 -42.5q-11 -10 -10.5 -30t0.5 -40q-5 -8 -11.5 -14.5l-12.5 -13t-11 -14t-6 -19.5q-19 1 -26.5 -9.5t-13.5 -21.5q-28 -3 -55 -11t-54 -14t-55 -6.5t-59 11.5q-7 11 -17.5 18.5t-22 13.5t-22.5 13t-19 16q1 13 -2 22t-8.5 16t-11.5 13
t-9 15q-3 7 -1 9.5t5 4t5 3.5t1 8q-20 43 -16.5 88t18.5 88.5t35 84t34 73.5q38 3 41 41h20q-3 9 -0.5 13t5.5 7t5.5 7t-0.5 13q21 9 37 23t30.5 29t30.5 28.5t39 21.5q5 1 4.5 7.5t0.5 12.5q18 4 27.5 16l19.5 23.5t24 19t41 2.5zM134 261q-8 -55 0 -93t29.5 -63t54 -38.5
t73.5 -18.5q15 4 25 12.5t19 18t18.5 18t23.5 12.5q11 23 11 55.5v65.5q-20 14 -30.5 36l-20.5 45q-58 15 -71 71q-35 3 -54.5 -9t-32 -31.5t-21.5 -41.5t-24 -39z" />
    <glyph glyph-name="seven" unicode="7" horiz-adv-x="550" 
d="M105 393q-5 -8 -8 -17.5t-12 -13.5q-22 10 -21.5 29t10 41t21.5 43.5t15 38.5q42 -17 89 -15.5t94 15.5q20 -12 41.5 -12t43 5.5l44 11.5t43.5 5q3 -17 20 -20q1 -40 -13 -65t-32 -46.5t-35 -44t-21 -57.5q-7 0 -10.5 -4.5t-7 -8.5t-8.5 -7t-15 0q0 -15 -5.5 -24.5
l-11.5 -19t-10.5 -20.5t-2.5 -27q-18 -10 -29.5 -26t-11.5 -45q-14 -5 -21.5 -16t-14.5 -23.5t-14.5 -24t-19.5 -17.5q-3 -32 -15 -54t-26.5 -42t-26.5 -42.5t-14 -54.5q-5 0 -8 -2.5t-5.5 -5.5t-5 -6.5t-6.5 -5.5q-11 -3 -16.5 -0.5t-9.5 7t-8 8.5t-11 5q-3 16 -1 26.5
t5 20t5.5 19.5t0.5 25q6 9 9 21.5t1 29.5q17 19 31 40.5t19 50.5q21 7 34 22t24 32t22.5 33t31.5 25v30q20 17 36.5 37.5t31.5 42l30.5 42.5t33.5 40q3 12 1 19t-6.5 11.5l-9 9t-6.5 11.5q-62 -5 -124 -9.5t-114 -20.5z" />
    <glyph glyph-name="eight" unicode="8" horiz-adv-x="496" 
d="M345 697v-21q20 3 31 -4.5t18 -18t13.5 -21.5t18.5 -16v-40.5t10 -30.5q-11 -21 -21 -43t-22 -41.5t-28 -34.5t-40 -23v-25q25 -21 46.5 -43t38 -49.5t26.5 -63t11 -83.5q-23 -89 -96.5 -126.5t-187.5 -35.5q-11 16 -26 29l-30.5 25.5t-30.5 26t-25 31.5q-3 24 -1 42
t6 34t9 32t7 34q10 3 15.5 10.5t10 17t9.5 18.5t15 14q7 4 15.5 8t15 11t10 18t0.5 29q-22 28 -41 58t-50 49q-1 12 -0.5 25t0.5 25.5t-2 23.5t-8 17q15 11 19.5 31t10.5 40q19 4 33.5 20l29 31t30.5 23t39 -3q5 0 7.5 2.5l5 5t6 4t11.5 -1.5q6 -6 16.5 -8.5t23 -2.5t26 1
t25.5 0zM213 626q-3 -12 -9 -21t-13.5 -17l-15 -15.5t-12.5 -17.5q5 -46 24.5 -77t46.5 -55q42 -4 61.5 15.5t25 50t-0.5 65.5t-15 62q-13 0 -23 2.5l-20.5 5t-22 4t-26.5 -1.5zM153 231q-9 -58 -1.5 -95.5t41.5 -66.5q85 -11 124 22.5t28 118.5q-25 19 -42.5 44t-38.5 48
q-31 8 -46 0t-24 -21.5t-17 -28.5t-24 -21z" />
    <glyph glyph-name="nine" unicode="9" horiz-adv-x="515" 
d="M356 8q-9 -20 -23 -35.5t-30.5 -28.5t-34 -24.5l-34.5 -23.5q-12 -24 -30 -42.5t-38 -34l-41 -31t-38 -34.5q-15 2 -23.5 9.5t-21.5 11.5q-4 20 -0.5 33t9.5 23.5t12.5 20.5t8.5 24q9 2 18.5 4.5t17 6.5t11.5 11t4 19q15 -1 22 5.5t13 14.5t13.5 14.5t22.5 5.5
q1 13 6 21.5t12.5 15.5t15.5 12.5l16 11.5v25q-10 14 -24 24t-26 22q-31 6 -54 20.5t-41 34t-31.5 43t-25.5 49.5v96q2 25 10 45t19.5 36.5t25 31l26.5 29.5q18 2 32 9t28.5 13.5t32.5 9.5t44 -2q0 3 4 6t9 4.5t9 -0.5t3 -10q6 -2 7.5 0t2.5 5t2.5 5.5t7.5 -0.5
q31 -12 64 -31t58 -44.5t37.5 -58.5t2.5 -73q8 -36 4 -73t-16.5 -71.5t-31 -64t-37.5 -50.5v-30q-5 0 -7.5 -2.5l-5 -5t-6.5 -4t-11 1.5zM184 413q-1 -6 -1 -12.5t-5 -7.5q-21 -9 -31.5 -29.5t-12 -46t4 -51.5t14.5 -45q24 -7 34 -27t17 -44q15 -1 24.5 -6t19 -11t20 -10.5
t27.5 -3.5q9 12 20.5 20.5t22 18.5t16 24.5t2.5 38.5h20q-4 16 1.5 23.5t8.5 16.5q-9 1 -10.5 8t0 16t5 16.5t5.5 10.5q-6 26 -19 45.5t-21 45.5q-15 -2 -21.5 4t-9.5 16q-22 3 -38.5 4t-30.5 0t-28.5 -4.5t-33.5 -9.5z" />
    <glyph glyph-name="question" unicode="?" horiz-adv-x="571" 
d="M142 765q35 2 60.5 -5.5t48 -18l44.5 -21.5t49 -16q-6 -26 21 -20q-4 -12 0.5 -16t9.5 -9q19 -7 32 -20t24 -28t21 -31t24 -28q1 -13 0 -27.5t-1 -28.5t2 -26t9 -19q-5 -12 -11.5 -22t-12.5 -20.5t-10.5 -22t-5.5 -26.5q-19 -8 -34 -18.5t-32 -19.5t-38.5 -13.5
t-52.5 0.5q-11 -11 -12.5 -21.5t1 -22.5l5.5 -26t1 -31q-11 -8 -26 -10.5t-25 -10.5q2 6 0.5 8t-5 2.5t-8 0t-7.5 0.5q2 26 1 49t-3.5 44.5l-5 43t-2.5 45.5q11 10 23 9.5t24.5 -3.5l27 -6.5t31.5 0.5q6 3 10 8.5t8.5 11t10.5 8.5t17 2q13 38 10 97q-4 15 -12.5 24.5
t-18 18.5t-18 19t-12.5 24q-9 1 -16.5 3.5t-15.5 4.5t-17.5 3t-21.5 -1q-3 9 -12 15.5t-20 9.5t-21.5 2t-17.5 -7q-17 1 -22.5 13.5t-7 28.5t-2.5 32.5t-9 26.5q11 5 15 16t6 25zM273 157q8 -30 32 -44.5t50 -26.5q2 -11 1 -18.5t-3.5 -14t-5.5 -13t-3 -15.5
q-26 -2 -35.5 -19.5t-14.5 -40.5q-18 -5 -36.5 -9.5t-44.5 -1.5q-10 9 -17 21t-13.5 25t-13.5 25t-17 21q6 8 9 20.5t1 29.5q5 0 7.5 2.5l5 5t6 4t11.5 -1.5q5 29 24.5 42.5t56.5 8.5z" />
    <glyph glyph-name="emdash" unicode="&#x2014;" horiz-adv-x="1079" 
d="M1028 269q-47 -15 -112 -18.5t-135 -2.5t-139.5 3t-124.5 -2q-13 4 -34.5 7.5t-45 4t-44.5 -2t-33 -9.5q-23 12 -48 12.5t-51 -1.5t-52.5 -2t-51.5 11q-5 -5 -13.5 -7t-17.5 -3t-17 -3t-13 -7q-19 6 -31 19t-9 41q6 -1 7.5 2.5t2.5 8.5q16 4 23.5 -1.5t16.5 -9.5
q21 18 51 18.5t62.5 -3.5t65 -6t59.5 12q35 -7 73.5 -8.5t77 0t75 4.5t68.5 4q34 -3 76 -4t85 -0.5t84 2t74 2.5q12 -5 27 -6.5t26.5 -6.5t17.5 -15.5t0 -32.5z" />
    <glyph glyph-name="comma" unicode="," horiz-adv-x="370" 
d="M274 -8q-67 -45 -91 -132q-5 0 -7.5 -2.5l-5 -5t-6.5 -4t-11 1.5q-6 -14 -13.5 -27.5t-18 -23t-25 -15.5t-35.5 -5q3 8 1.5 11.5t-4 6l-5 5t-2.5 7.5q16 13 35 37.5t27.5 51t1.5 50t-43 34.5v50q9 9 19.5 16t19.5 15.5t15 20t6 29.5q10 4 17 9.5t24 1.5q12 -17 30 -28.5
t34 -24.5t27 -31t10 -48z" />
    <glyph glyph-name="hyphen" unicode="-" horiz-adv-x="524" 
d="M389 370q-2 -11 -6 -20.5l-8 -19t-6 -20.5t0 -26q-73 -55 -168 -81q-5 -2 -4.5 -8.5t-0.5 -12.5q-17 2 -27 -3.5t-18 -12t-18 -12t-28 -2.5q1 9 -1.5 14t-5.5 10t-4.5 10.5t1.5 16.5q13 12 24.5 33t25.5 38.5t32 25.5t45 -6q8 1 5.5 12t-0.5 18q21 4 42 20t42 29.5
t40.5 16t37.5 -19.5z" />
    <glyph glyph-name="quoteright" unicode="&#x2019;" horiz-adv-x="387" 
d="M210 721q28 -54 81 -81q3 -11 1.5 -16.5t-4.5 -10.5t-5.5 -10t-1.5 -14q-26 -1 -33 -22t-7 -49q-19 -7 -23.5 -27.5t-7.5 -43.5q-9 -8 -18.5 -14.5t-18 -14.5t-15 -18t-8.5 -24q-12 -2 -21.5 -1.5t-17.5 3l-15.5 5t-16.5 3.5q3 13 10.5 22.5l14 18.5t11.5 20.5t4 29.5
q8 -3 11.5 -1.5t6 4.5t5 5.5t8.5 2.5v65l-22.5 14.5t-19.5 18t-11 26t2 38.5q20 2 28.5 16.5l17 29t22 23.5t43.5 2z" />
    <glyph glyph-name="colon" unicode=":" horiz-adv-x="427" 
d="M208 501q16 -5 26 -16t19 -22.5t20 -21.5t31 -11v-61q-9 -8 -18.5 -14.5t-18 -14t-15 -17.5t-8.5 -24q-12 -2 -21.5 -1.5t-17.5 2.5t-15.5 4.5t-16.5 4.5q-2 10 -5 20t-8 17.5t-14 11t-24 1.5q-8 22 -8 36t8 35q16 3 27 11.5t20.5 19t18 21.5t20.5 19zM223 187
q4 -8 9 -14l10 -12.5t8.5 -14.5t3.5 -20q10 3 16 1.5t10.5 -4.5t9.5 -5.5t14 -1.5q-2 -27 -11 -47t-23 -35t-31.5 -27t-35.5 -23q-13 9 -24 19.5l-21.5 21.5l-21.5 21.5t-24 18.5q0 25 9.5 41t22.5 28.5t27 24t22 28.5h30z" />
    <glyph glyph-name="quotedblleft" unicode="&#x201c;" horiz-adv-x="589" 
d="M230 714q14 -19 10 -51q-10 -2 -21.5 -12.5t-21 -25.5t-15 -32t-3 -31t14 -23t36.5 -7q8 -14 8.5 -25.5t-2.5 -22t-8 -21t-8 -23.5q-25 0 -32 -18t-8 -42q-12 3 -16.5 -1.5l-9.5 -9.5q-22 3 -37 13t-27 22.5l-24 25t-28 20.5q3 68 50 92v40q16 18 28.5 40t27.5 41.5
t34.5 33.5t51.5 17zM504 699q-5 -23 -18.5 -37.5l-27 -28.5t-22.5 -33.5t-3 -52.5q5 -12 18.5 -14.5t32.5 -0.5q2 -18 8 -32.5t2 -38.5q-20 -5 -32.5 -18.5t-28.5 -22.5v-40q-9 -7 -21 -10t-30 -1q-7 18 -21 29.5t-29 22t-26.5 24t-14.5 36.5q5 20 18 32.5l25.5 25
t21.5 29.5t6 45q15 11 28.5 33.5t29.5 41t36 25t48 -13.5z" />
    <glyph glyph-name="quotedblright" unicode="&#x201d;" horiz-adv-x="590" 
d="M257 592q-10 -2 -14.5 -8.5t-7.5 -15t-6.5 -16.5t-11.5 -11q-2 -33 -12 -59t-24.5 -47t-31.5 -39t-33 -37q-18 -2 -30 0.5t-21 9.5q-6 28 2.5 40.5t20.5 22t22 21.5t6 38q6 -3 7.5 -0.5t2 5.5t2.5 5t8 0q-1 13 -3 25t-7.5 20.5t-15 12.5t-25.5 3q0 9 -2.5 15l-5 12.5
t-4 14t1.5 18.5q21 15 38.5 32.5t22.5 48.5q16 -4 23.5 1.5t16.5 9.5q12 -14 25.5 -26t25 -25.5t20 -30.5t10.5 -40zM531 582q-8 -2 -12 -6t-8 -9.5t-8.5 -10t-12.5 -5.5q-4 -36 -16.5 -64t-30 -51t-37 -44t-37.5 -43q-54 -3 -51 50l28.5 29.5t27 34t14.5 40t-9 48.5
q-18 2 -29.5 9t-21.5 17q3 14 9 24.5t1 30.5q21 4 34.5 23l26 35.5t28.5 21.5t43 -19q-2 -23 9 -34t24 -19.5t22.5 -20.5t5.5 -37z" />
    <glyph glyph-name="period" unicode="." horiz-adv-x="347" 
d="M194 123q7 -16 16.5 -29t20.5 -25t22.5 -23t21.5 -24q-7 -12 -16.5 -22l-18.5 -20t-16 -22t-10 -28q-17 4 -24 -1t-17 -9q-15 5 -26.5 14t-21.5 19.5l-20 20.5t-23 17q-3 23 5 35.5t18.5 22.5t19.5 21.5t8 32.5q8 2 14 6l12.5 8t14.5 6t20 0z" />
    <glyph glyph-name="semicolon" unicode=";" horiz-adv-x="434" 
d="M190 430q35 -22 63.5 -50t42.5 -71q-7 -12 -17 -21t-20.5 -17.5t-19.5 -18.5t-14 -24h-61q-2 16 -9.5 25.5t-18 17t-22 13.5t-20.5 15q3 25 14.5 42t26.5 30.5l30 27t25 31.5zM164 126h61q34 -47 81 -81q3 -11 1.5 -18.5t-4 -14l-5 -13t-2.5 -15.5h-20q-11 -24 -24.5 -46
l-27 -44l-26.5 -44.5t-23 -47.5q-8 -2 -14 -6l-12.5 -8t-14.5 -6t-20 0q-7 9 -9.5 21t-0.5 30q17 10 30.5 34.5t17.5 51.5t-6.5 49t-41.5 27q-3 13 -1.5 21t4.5 15t5.5 15t1.5 20q11 -3 16 1t9 9t9 9t16 1v40z" />
    <glyph glyph-name="exclam" unicode="!" horiz-adv-x="388" 
d="M209 121q14 -26 32.5 -46.5t38.5 -39.5q-1 -22 -10.5 -34.5t-21.5 -22.5t-23.5 -21t-15.5 -29q-20 17 -40 0q-16 3 -26 12t-19 19t-19.5 18.5t-26.5 11.5q0 9 2.5 15.5l5 12.5t4 13.5t-1.5 19.5q6 7 16 11.5t18.5 9.5t13.5 14t2 26q18 2 32.5 8t38.5 2zM118 719
q8 -6 23.5 -9t32.5 -3t32.5 3t23.5 9q-2 -6 -0.5 -8t5 -2.5t8 0t7.5 -0.5q1 -4 0 -9.5t-1 -11t2 -8.5t9 -1q-11 -38 -17 -69t7 -63q-7 -11 -9.5 -32t-3 -43t0.5 -41t2 -25q-14 -22 -17.5 -54t-4 -67t-1.5 -70t-8 -63q-9 1 -14 -1.5t-9.5 -5.5t-10.5 -4.5t-16 1.5
q-14 45 -19 98.5t-8 108.5t-7.5 109t-16.5 100q13 16 11.5 37.5t-6 43.5t-6 43t10.5 38z" />
    <glyph glyph-name="parenleft" unicode="(" horiz-adv-x="441" 
d="M413 659q-19 2 -26.5 -8.5t-14.5 -21.5q-37 -7 -54.5 -32t-26.5 -60q-22 -11 -32 -33.5t-17 -48.5t-15.5 -50.5t-26.5 -39.5q2 -26 0.5 -56t-2 -59t1 -56t10.5 -47q2 -48 10.5 -94t30.5 -78q5 -8 14.5 -12t15.5 -13q12 -18 19.5 -40t21.5 -36q6 -7 15 -11.5t16.5 -9.5
t13 -12t5.5 -18q0 -5 4 -5h9t8 -1.5t0 -8.5q-21 -15 -36.5 -9.5t-29.5 17.5t-29 23.5t-37 9.5q-2 16 -10.5 26t-18.5 18t-19.5 17.5t-12.5 24.5q-9 -1 -12 4l-6 10t-7.5 9t-14.5 2q-14 31 -29 60l-29.5 59t-26 63t-17.5 71q9 4 10.5 15t1 24.5t-2 27.5t0.5 24l15.5 36.5
t5.5 45.5q4 24 14.5 41t22.5 33t21.5 34t12.5 43l55 49t55.5 48.5t61 43t71.5 32.5q6 -9 9 -21.5t1 -29.5z" />
    <glyph glyph-name="parenright" unicode=")" horiz-adv-x="379" 
d="M-10 700q60 -14 104.5 -42t79.5 -65.5t64 -82l56 -89.5q2 -6 1 -9t-3 -4.5t-4.5 -2.5t-3.5 -4q16 -15 22 -41t7 -55t0 -56.5t2 -45.5q-15 -44 -33.5 -83.5t-27.5 -88.5q-20 -9 -30.5 -28l-20.5 -38.5t-23 -35.5t-38 -20q-8 -23 -23.5 -37.5t-34 -26t-38 -22t-35.5 -25.5
q-9 9 -14.5 7t-11 -7t-13 -9.5t-22.5 -0.5q5 34 25 53t51 28q33 45 65.5 102t55 122.5t29.5 137t-13 144.5q5 10 5 26.5t-4 34t-12 32t-20 19.5v35q-23 34 -48.5 65.5t-42.5 71.5q-9 2 -18.5 4.5t-17 6.5t-11.5 11t-4 19zM173 11q17 3 20 20h-20v-20z" />
    <glyph glyph-name="AE" unicode="&#xc6;" horiz-adv-x="1121" 
d="M994 755q14 -2 20.5 -11.5t9 -23t1.5 -30.5t-1 -33t2 -30.5t9 -23.5q-9 -8 -25.5 -9.5t-35.5 -0.5q-8 27 -28.5 48.5t-50 33t-64 12t-70.5 -12.5q-14 12 -39.5 13.5t-46 -6t-28.5 -23.5t13 -39q-6 -18 -9 -44.5t-3 -55t3 -55t9 -43.5q5 4 18 7.5t28 4.5t27.5 -2t17.5 -10
q9 7 22.5 9t30 2t33 -1t31.5 0q7 1 9.5 7.5t4 14t3.5 14.5t8 10q2 8 1 12.5t-3 8t-4.5 6.5t-3.5 8q10 11 30.5 10.5t40.5 -0.5q-3 -41 0 -72.5l6 -61t3 -60t-9 -69.5q-19 1 -35.5 -0.5t-25.5 -9.5q2 6 -1.5 7.5t-8.5 2.5q5 11 5 19.5t-2 17.5t-3.5 20.5t0.5 28.5
q-16 10 -34 7t-36 -7.5t-34 -5.5t-28 11q-6 -6 -16 -8t-22 -2t-24.5 0.5t-23.5 -0.5q-12 -17 -12.5 -36t2.5 -38.5t4 -37t-9 -30.5q5 -14 6.5 -25.5t1.5 -24.5v-28.5t2 -37.5q11 -8 33.5 -12.5t47.5 -5t48.5 2.5t37.5 10h86q21 3 36 12t28 20l26.5 22t31.5 17q-2 15 5 22
t10 18q19 -8 23.5 -30.5t4 -50.5l-1 -55.5t8.5 -45.5q-6 2 -7.5 -1.5t-2.5 -8.5q-64 -2 -120.5 -4t-109.5 -3t-104.5 0t-105.5 7q-22 -10 -45 -9.5t-46.5 2.5t-47.5 3t-49 -7q1 19 0 35.5t-10 25.5q1 8 5.5 12.5t10.5 7.5t12.5 5t11.5 6q11 -1 14.5 -9t11.5 -12q4 3 7 7
t6.5 7.5t8 5.5t13.5 1v167q-2 4 -6.5 5.5t-3.5 9.5q-5 -7 -16 -5.5t-24 4t-26 2.5t-20 -11q-7 -3 -10 -1t-4.5 5t-3 5t-7.5 1q-5 -5 -15 -8t-20.5 -3t-20.5 3t-15 8q-12 -3 -25 -5.5t-22.5 -8.5t-14 -17t0.5 -30q-14 -8 -22.5 -22t-13.5 -31t-8 -36t-7 -37q17 -11 34 -20
t37 -16q2 -19 0.5 -35.5t-10.5 -25.5q-54 5 -105 4t-118 -14q2 7 -1 9t-8.5 2t-11 -1t-9.5 0v81q7 1 15.5 0t4.5 10q14 -6 28.5 -11.5t32.5 -8.5q2 6 0 8t-5 2.5t-5.5 2t0.5 7.5q37 73 66 151.5t55 163.5q7 0 10 3t5.5 6.5t5.5 7t10 3.5q-2 12 0.5 19.5t5.5 14.5t5 15.5
t-1 21.5q35 61 60 132l51 141q45 7 85.5 7.5t78 -1t72.5 -2t68 5.5q8 3 11.5 1.5t6 -4l5 -5t8.5 -2.5q42 12 79.5 11.5t71 -4t64 -5t58.5 7.5zM548 695v30h-30q-3 -33 30 -30zM437 674q3 -39 -3 -69.5t-16.5 -56t-24 -48.5t-25.5 -47t-21 -51.5t-11 -61.5q6 2 7.5 0t2.5 -5
t2.5 -5t7.5 0q13 5 34 5.5t45 1.5t48.5 3t44.5 10q0 6 -2.5 8.5l-5 5t-4 6t1.5 11.5h20q-2 10 -0.5 23t1.5 25.5t-2 22.5t-9 15q6 6 9 22t3 33.5t-3 33.5t-9 22q7 7 9.5 21.5t2.5 31t-3.5 31.5t-8.5 22q-12 0 -25.5 0.5t-26 0.5t-23 -2.5t-16.5 -8.5zM579 533q-3 17 -20 20
q3 -17 20 -20zM609 482q-3 17 -20 20q3 -17 20 -20z" />
    <glyph glyph-name="E" unicode="E" horiz-adv-x="684" 
d="M490 733q7 6 19 8t25.5 2t28.5 -0.5t28 0.5q5 -5 7 -13.5t3 -17.5t3 -17t7 -13q0 -11 -8 -14t-12 -11q9 -21 10.5 -43.5t-4.5 -41t-20 -30.5t-37 -12q-12 9 -21.5 24.5l-19 32t-19.5 32t-24 25t-33 10t-45 -12.5q-12 10 -23.5 13.5t-24 2.5t-26.5 -3t-32 -2
q-26 -17 -31 -45t-2 -59.5t5.5 -62t-8.5 -51.5q4 -8 12 -11.5t9 -14.5h81q19 -12 37.5 -11.5t34.5 8.5t28.5 20.5t20.5 23.5q2 6 0 7.5t-5 2.5t-5 2.5t0 7.5q7 10 20 15t27.5 5t26.5 -6.5t17 -18.5q-9 -23 -10 -47t1 -49.5t5.5 -51t3.5 -49.5q-17 -11 -34.5 -21t-46.5 -10
q-4 20 -14 40t-26 33.5t-36.5 17t-44.5 -9.5q-7 10 -18 11.5t-23.5 -1t-24.5 -6.5t-21 -4l-15 -30q2 -18 5 -39t4.5 -43.5t0 -45t-9.5 -44.5q1 -11 10 -18.5t21 -11.5t24.5 -2t20.5 11q10 -5 28.5 -8t38 -3.5t37.5 2t28 9.5q33 -14 55.5 -4.5t39.5 29.5t30 44.5t27 42.5
q22 4 33 -9.5t13.5 -34.5t-1.5 -43t-10 -35q8 -9 10.5 -22t0.5 -26.5t-7.5 -25.5t-13.5 -17q-59 -6 -121.5 -3.5t-125 6t-123.5 4.5t-116 -7q-6 -1 -8 -2.5t-2 -7.5q-10 11 -30.5 11t-30.5 -11q-1 7 -6.5 9t-12 3l-13 2t-8.5 6q-2 12 0.5 19.5t5.5 14.5t5 15.5t-1 21.5
q21 7 39.5 16t41.5 14q-3 17 0.5 32l6.5 28.5t3 26.5t-10 25q8 -3 9 1t1 9t1 9t9 1q-6 13 -9 37t-3.5 49.5t2.5 49t10 36.5q-5 5 -8 15t-3 21t3 20.5t8 14.5q-5 5 -8 15t-3 20.5t3 20.5t8 15q-6 7 -8.5 18t-2.5 24.5t1 27.5t0 26q-8 9 -22 12.5t-28 6.5t-26 8t-15 19
q4 20 14.5 33.5t25 19.5t31.5 3.5t35 -15.5q33 17 72.5 18.5t81.5 -2t83 -5.5t77 9q11 -3 21.5 -6.5t14.5 -13.5z" />
    <glyph glyph-name="e" unicode="e" horiz-adv-x="452" 
d="M408 276q-9 -5 -19 -8.5t-17 -11.5q-26 3 -49.5 -1.5t-48 -10t-52.5 -9t-63 0.5q-7 -3 -10 -9t-5.5 -13t-6.5 -12.5t-13 -6.5q6 -39 25.5 -65t45.5 -46q30 -1 59.5 -1.5t53.5 4.5t40 18t19 40q8 -3 11.5 -1.5t6 4l5 5t8.5 2.5q14 -23 11.5 -40.5t-12 -33t-22 -29.5
t-18.5 -29l-28.5 -14t-35 -13.5t-37.5 -5t-36 12.5q-8 2 -11 -0.5t-5.5 -5.5t-6 -5t-12.5 1q-15 7 -30 12.5t-28.5 12t-24.5 15t-18 21.5q-3 5 -0.5 12.5t0.5 12.5q-5 7 -11 12.5t-12 12t-11 15t-7 21.5q-3 16 -1.5 34t2.5 36.5t-0.5 38t-10.5 38.5q2 13 7 29.5l9.5 32
t6 28.5t-2.5 21q9 2 18.5 4.5t17 6.5t11.5 11t4 19q12 -8 23 -4.5t20.5 11t16.5 15t11 8.5q12 3 30 2.5t35.5 -4.5t30.5 -11.5t15 -16.5h41q34 -28 52 -70.5t29 -92.5zM134 276h81q-1 10 6 12.5t9 8.5q33 1 47.5 11.5t15.5 25t-9.5 31.5t-26.5 31t-35.5 23.5t-36.5 8.5
q-6 -18 -19.5 -34.5t-25.5 -34t-16 -38t10 -45.5z" />
    <glyph glyph-name="a" unicode="a" 
d="M228 499q7 -7 12.5 -8t11 0.5t12 4.5t15.5 3q50 -11 83 -37.5t38 -83.5q-8 -16 -10 -38.5t-1 -47l2 -50t-1 -47.5q-8 -8 -10 -22.5t0 -32.5q8 -13 18.5 -23.5t19.5 -22.5t16 -26t7 -35q-14 -7 -36.5 -13.5t-46 -7t-43 6t-26.5 24.5q-38 -6 -72.5 -14t-59.5 -26
q-28 1 -46.5 12t-31.5 27t-23 35t-21 37q5 13 6 24.5t0.5 22.5t-2.5 24t-4 31q10 5 21 16t23 20.5t25 12.5t28 -9q19 10 48.5 10.5t57 3t48.5 11.5t23 36q-3 16 -7.5 31.5t-11.5 28t-18 21t-29 10.5q-27 -18 -58 -32.5t-53 -38.5q-21 1 -35.5 8t-30.5 13q25 50 68.5 82.5
t93.5 58.5zM167 114q3 -5 12.5 -9t22 -7t26.5 -4t25 0q29 11 40 39t6 73q-25 9 -52 9.5t-48 -10t-31 -32.5t-1 -59z" />
    <glyph glyph-name="b" unicode="b" horiz-adv-x="566" 
d="M158 739h61q6 -27 1.5 -58t-12.5 -63t-17 -64.5t-13 -62.5q-2 -14 7 -25.5t21.5 -17t25 -2t17.5 19.5q28 6 54 7.5t50.5 -1t48.5 -7l50 -9.5l19 -27t32 -14v-46q23 -22 28 -55t0.5 -69t-14 -71.5t-14.5 -62.5q-20 -25 -50.5 -47.5t-67 -37.5t-78 -20.5t-83.5 4.5
q-9 -6 -22.5 -8t-28 -2.5t-28 -2t-22.5 -7.5q-16 -1 -27.5 9.5t-15.5 25t-0.5 29.5t17.5 22q3 7 0.5 10t-5.5 5t-5 4.5t0 10.5q13 29 14 60t-1 62.5t-2.5 63.5t10.5 62q-12 34 -12 75t-2.5 80.5t-13 72.5t-43.5 51q3 24 15 38.5t29.5 23.5t37.5 15t39 14v15zM199 344
q-8 -37 -11.5 -73.5t-0.5 -69.5t15 -61.5t37 -48.5q13 -1 28 0t29 1t25.5 -2t19.5 -9q5 12 15 20t21.5 14l23.5 12t21 15q2 25 8.5 46t21.5 35q-5 40 -18.5 72.5t-37.5 54t-60 31t-87 4.5q1 -12 -4.5 -17.5t-14 -9t-17 -6t-14.5 -8.5z" />
    <glyph glyph-name="fi" unicode="&#xfb01;" horiz-adv-x="624" 
d="M402 625l-28.5 -12t-32.5 -8q-20 7 -30 30q-43 2 -61 -11t-23.5 -36.5t-4.5 -55t-2 -64.5q12 -5 28.5 -5.5t33.5 -0.5t32.5 -1.5t26.5 -7.5q0 -20 0.5 -40.5t-10.5 -30.5q-3 6 -11 7t-17 2t-16.5 3t-10.5 8q-6 -5 -13.5 -6t-15.5 -1.5t-15.5 -3t-11.5 -9.5
q-6 -10 -6 -26.5t2.5 -34t6.5 -33.5t7 -23q-7 -14 -10 -33.5t10 -32.5q-8 -4 -9 -15t-1 -23t-1 -23t-9 -15q0 -24 12 -36.5t27.5 -22l30.5 -19.5t21 -28q-15 -23 -40 -25t-53.5 3t-57 9t-52.5 -7q-5 0 -7.5 2.5l-5 5t-6.5 4t-11 -1.5q0 26 11 41t24.5 27.5t24.5 27t11 41.5
q-11 25 -11 52.5t3 55.5t4.5 54.5t-6.5 49.5q-5 19 -19.5 27.5l-29.5 17t-25.5 22t-6.5 40.5q4 1 11.5 0t14 -1t11 1.5t3.5 9.5q5 -1 8 -3.5t6.5 -4.5t8.5 -3t13 1q4 2 5.5 6.5t9.5 3.5q-10 51 -5 94.5t24.5 77t52.5 55t80 26.5q12 12 25 10.5t26 -8t25.5 -14t24.5 -8.5
q5 -18 9.5 -36.5t0.5 -44.5zM517 473q-1 -48 -5 -93.5t-15 -83.5q9 -17 8.5 -41l-1 -48.5t3 -48t19.5 -40.5q1 -6 -1 -8t-5 -3.5t-5 -4t1 -9.5q15 -3 27 -14t19 -26t6.5 -32.5t-11.5 -33.5q-12 -1 -21.5 2l-17.5 5.5t-16 2t-16 -9.5q3 8 -1 9t-9 1t-9 1t-1 9
q-10 -10 -20.5 -10.5t-21.5 2.5l-23.5 6.5t-26.5 1.5q-2 16 1 27.5t9 19t14.5 13t16.5 11.5q-2 19 0.5 34t19.5 17q-10 48 -10 104v113q-13 18 -29 32.5l-32 28.5q7 19 24.5 33.5t40 23.5t46 11.5t41.5 -2.5z" />
    <glyph glyph-name="fl" unicode="&#xfb02;" horiz-adv-x="702" 
d="M585 733l30 -15q-5 -19 -14 -33.5t-26 -22.5q1 -63 0 -123.5l-2 -116.5t1 -105.5t11 -89.5q-9 -17 -11 -40.5t0 -46.5t5.5 -42t5.5 -28q33 -19 71 -26q1 -19 -0.5 -35t-9.5 -25q-30 10 -61.5 9.5t-62 -2.5t-58.5 -1t-51 14q0 19 5.5 32.5t15 22.5t22.5 15t28 11
q5 94 4.5 175t-4.5 159q4 24 5 57t-5.5 63t-23 51t-47.5 22v30l85.5 45.5zM255 728q14 -8 36.5 -6.5t45.5 1t42.5 -8t27.5 -32.5q-5 -14 -9 -28.5t-1 -36.5q-10 -8 -25 -10.5t-25 -10.5q-12 5 -22.5 12t-21.5 13.5t-23.5 11t-29.5 4.5q-10 -7 -16 -17t-19 -14v-146
q18 -9 32.5 -11.5t29 -0.5t31 7t39.5 10q3 -26 -1.5 -44.5t-9.5 -36.5q-16 -2 -35 -1t-37 1.5t-33.5 -2t-25.5 -9.5q3 -25 6 -57t4.5 -66t-1 -69t-9.5 -66q6 -17 16.5 -30t22.5 -24.5t23 -23.5t19 -28q-17 -24 -42.5 -25.5t-54.5 4t-59.5 9.5t-56.5 -9q-18 10 -20 41
q3 12 12 18.5t19.5 11l21.5 9t18 12.5q-3 70 0.5 133t9.5 125q-8 17 -21.5 28t-28.5 21t-29 20.5t-23 26.5q3 8 12.5 13t20 6.5t21.5 -0.5t17 -9q10 1 14 7t6 14.5l4 16.5t7 13q-9 21 -8.5 44.5t6.5 46.5t15 44t17 37q58 22 91 61z" />
    <glyph glyph-name="ae" unicode="&#xe6;" horiz-adv-x="703" 
d="M662 138q0 -17 -0.5 -33t-4 -29t-12 -21t-24.5 -9q1 -17 -7 -24.5t-19.5 -12l-23 -9t-16.5 -14.5q-6 -2 -9 -1t-4.5 3t-2.5 4.5t-4 3.5q-7 -8 -19.5 -10t-27.5 -1.5t-30.5 1.5t-28.5 0q-23 4 -43 15l-27 -9.5t-15 -5.5q-3 -1 -10 -0.5t-14.5 2t-14 3t-9.5 2.5
q-5 3 -14 12t-21 11q-12 3 -24.5 4.5t-12.5 -2.5t-10.5 -14.5t-17.5 -10.5t-20.5 1t-18.5 -1q-3 -1 -8 -3.5t-10 -5.5q-6 -4 -12 -7q-17 8 -30 16l-22.5 13t-15.5 10q-5 3 -8.5 10t-5.5 14q-3 8 -4 18l-16 9q1 34 2 61q1 23 2.5 43.5t4.5 24.5q3 3 9.5 9t15 12l16.5 11.5
t13 7.5q10 3 21 -1q5 -2 9 -4q1 1 4 3q6 4 10 4q5 0 13.5 -2t20.5 -2t30 3.5t26 3.5q4 0 11 -0.5t14 -0.5q8 -1 16 -1l17 23l11 4l2 58q-9 13 -18 24l-15 17t-11 10q-5 2 -9.5 2.5t-9.5 1.5t-10 1l-38 -17q-15 -9 -26 -18l-20 -15t-11 -11q-4 -8 -12 -13q-4 -3 -9 -5
q-5 2 -9 4q-9 4 -15 8q-7 5 -17.5 9t-12.5 11q-1 3 6 13t16 20.5t18 19.5t13 12l18 13.5l30 23l30 22.5t17 11q6 3 19 -1t17 -4q6 0 15 3l10 4l9 -7q16 -5 31 -11q13 -5 26 -11.5t22 -14.5l6 -6q5 5 9 9.5t6 11.5h35q13 18 32 20t41.5 -1.5t46.5 -8t47 0.5q13 -18 31.5 -38
t32 -43.5t17.5 -51t-10 -60.5q-35 3 -64.5 -5t-57 -17t-54.5 -13.5t-57 5.5q-6 0 -9.5 -3.5t-5.5 -7t-5.5 -7t-9.5 -3.5q-2 -17 -0.5 -29.5t5.5 -23.5l8 -21t7 -22q7 -7 17.5 -11.5l20.5 -8.5t19 -9.5t14 -15.5q37 -6 62.5 0.5t44.5 19t33.5 29.5t31.5 32q6 2 8 0t2.5 -5
t2.5 -5.5t8 0.5zM280 176q-2 1 -5 3q-7 4 -9 8q-2 2 -11 2h-19q-11 0 -26 -1l-29 -14q-11 -5 -20 -10t-11 -7q-1 -2 -1.5 -12t-0.5 -21.5t0.5 -21.5t1.5 -12t6.5 -5.5l13.5 -8.5t19 -11q15 0 28 1q11 0 21 0.5t14 0.5q8 0 6.5 5.5t2.5 10.5q2 2 5 6.5t6 9.5l8 10v67z
M510 391q-22 -3 -38 -2.5t-29.5 0t-26 -4t-28.5 -13.5q5 -17 1 -33l-7.5 -29.5t-1.5 -23.5t18 -16q24 2 60.5 10.5t81.5 10.5q3 6 8 11.5t8.5 12t5 15t-1.5 21.5l-30 16t-20 25z" />
    <glyph glyph-name="oe" unicode="&#x153;" horiz-adv-x="700" 
d="M664 266q-11 4 -10 -4.5t0 -15.5q-14 5 -36 5t-45 -3t-45 -9t-36 -13q-10 10 -24 8.5t-16 -18.5h-66q-20 -34 -13.5 -60.5t28 -46t52 -31t59.5 -14.5q26 1 44 11t32.5 23.5t27 29t28.5 27.5q11 -2 12.5 -13t7.5 -18q-18 -43 -30 -91q-10 2 -14.5 -1t-7 -8t-3.5 -11
t-5 -10q-38 1 -51 -21q-49 -5 -86 1.5t-70 17.5q-2 -2 -2 -3q-37 5 -41 -20q-9 -2 -21.5 -1l-25 2t-22 -1t-12.5 -10q-11 11 -34.5 10t-46.5 0q-36 20 -65.5 46t-49.5 61t-30 81t-7 106q13 13 22 29t9 42q34 15 40 60q48 22 91 51q6 2 8 0t2.5 -5t2.5 -5t8 0q12 12 25.5 14
t29.5 0l34.5 -4.5t41.5 0.5q15 -8 27 -18l10 4t10 3v16q25 2 47 1t42.5 -3t41 -4.5t41.5 -3.5q16 -15 26.5 -35t20 -41t19.5 -41t25 -35q-3 -7 -5 -10t-2 -5.5t2 -5.5t5 -10zM243 49q14 -3 25 -2t20.5 3t18 5t19.5 4q-6 27 -15 57t-15 61t-6.5 62.5t10.5 62.5q-3 4 -7.5 5.5
t-2.5 9.5l11.5 21.5l11.5 21.5q-24 12 -53.5 14.5t-67.5 -11.5q-9 -11 -19.5 -21l-20.5 -20t-18.5 -22t-12.5 -28q-1 -8 3.5 -9.5t7.5 -6.5q-12 -29 -8 -56t16 -51t29.5 -44.5t32.5 -35.5q37 5 41 -20zM553 297q3 13 1 21t-5 15t-5.5 14.5t-0.5 19.5q-11 0 -18.5 4.5
t-13.5 10t-12.5 10t-16.5 6.5q-20 -11 -45 -16t-46 -15q-1 -12 -4.5 -21t-7.5 -17.5t-6.5 -18.5t-1.5 -24q21 -11 44.5 -11.5t47.5 3.5t47 10t43 9z" />
    <glyph glyph-name="dollar" unicode="$" horiz-adv-x="604" 
d="M587 205q1 -11 -1.5 -17t-4.5 -10t-1.5 -8t7.5 -11q-8 0 -10 -5.5t-1.5 -13.5t1.5 -16.5t0 -14.5q-23 -18 -38.5 -43t-32.5 -48q-23 -3 -43.5 -7.5t-27.5 -23.5q-4 4 -13.5 4.5t-20 -1t-21 -5t-16.5 -8.5q-14 2 -30.5 3l-33.5 2q-1 -4 -1 -13q-6 -12 -9.5 -26t-10 -25
t-17.5 -15.5t-32 3.5q-4 17 -5.5 37t-1.5 42q-38 1 -77.5 -1t-75.5 -7q-5 26 -5 54t1 57t0.5 59.5t-6.5 62.5q9 9 25.5 10t35.5 0q-2 -19 8.5 -26.5t21.5 -13.5q4 -41 25 -64t53 -34q7 68 18 138t18 133q-47 12 -86.5 31.5t-68.5 48.5q4 11 0.5 20.5t-9.5 18l-12.5 17.5
t-8.5 20q-4 19 -2.5 39.5t7 39t15 33.5t21.5 25q-3 14 -1.5 20.5t6 10.5t12.5 7.5t18 11.5t20 17.5t22 17.5t27.5 12.5t36.5 3.5q16 3 31 5t30 3q3 8 8 16q-5 6 -6 14t-1 17t-1 17.5t-5 14.5q8 18 22.5 28.5t41.5 4.5q-2 -6 1.5 -8t8.5 -3q2 -17 -4.5 -24t-11.5 -15
q9 -14 11.5 -29t0.5 -32q34 -1 70 -1.5t78 2.5q1 -17 0 -37t-1 -39.5t1.5 -36.5t9.5 -29q-5 -10 -6 -24t-4.5 -26t-12.5 -18.5t-28 -2.5q-5 10 -9 21.5t-9 21.5t-12.5 17.5t-19.5 10.5q-4 29 -25.5 40t-50.5 12q-5 -23 -6 -45.5t7 -43.5q-11 -33 -17 -70t-9 -75
q42 -22 101 -30q1 -8 5.5 -12.5t9.5 -8.5t9.5 -8.5t5.5 -11.5q21 3 31 -5t16.5 -19l13 -22t20.5 -15q-1 -17 2.5 -29t9 -22.5l11 -21t8.5 -23.5zM191 560q15 -9 22.5 -25l15.5 -31.5t20 -27.5t35 -13q3 14 5.5 29.5t3.5 30.5t-0.5 27.5t-5.5 21.5q14 20 17.5 43.5t5.5 47.5
q-15 -2 -28.5 -3.5t-24.5 -3.5q-8 -12 -15 -25.5t-14.5 -26t-16 -24t-20.5 -20.5zM455 190q-2 6 0 7.5t5 2.5t5 2.5t0 7.5q-13 45 -46.5 68t-81.5 33q0 -7 -0.5 -13t-0.5 -12q-10 -45 -17 -102t-12 -113q20 0 40.5 2t41.5 5l44.5 40t31.5 52q2 6 0 7.5t-5 2t-5 2.5t0 8z" />
    <glyph glyph-name="dieresis" unicode="&#xa8;" horiz-adv-x="635" 
d="M527 680q-4 -14 -10 -22t-13.5 -15.5t-16 -17t-18.5 -24.5h-50q-12 14 -23 25t-35 25q-3 20 2 31.5t7 25.5q17 4 25 16t16 26q17 6 29 6t29 -6q13 -19 28.5 -35t29.5 -35zM270 667q-6 -3 -16.5 -11t-20 -17.5t-16 -20t-5.5 -17.5q-22 1 -38 9t-28.5 19t-22 25.5
l-18.5 29.5q14 21 33 37t33 37q21 0 33.5 -8t22.5 -18.5t19.5 -21.5t23.5 -18v-25z" />
    <glyph glyph-name="Edieresis" unicode="&#xcb;" horiz-adv-x="684" 
d="M490 733q7 6 19 8t25.5 2t28.5 -0.5t28 0.5q5 -5 7 -13.5t3 -17.5t3 -17t7 -13q0 -11 -8 -14t-12 -11q9 -21 10.5 -43.5t-4.5 -41t-20 -30.5t-37 -12q-12 9 -21.5 24.5l-19 32t-19.5 32t-24 25t-33 10t-45 -12.5q-12 10 -23.5 13.5t-24 2.5t-26.5 -3t-32 -2
q-26 -17 -31 -45t-2 -59.5t5.5 -62t-8.5 -51.5q4 -8 12 -11.5t9 -14.5h81q19 -12 37.5 -11.5t34.5 8.5t28.5 20.5t20.5 23.5q2 6 0 7.5t-5 2.5t-5 2.5t0 7.5q7 10 20 15t27.5 5t26.5 -6.5t17 -18.5q-9 -23 -10 -47t1 -49.5t5.5 -51t3.5 -49.5q-17 -11 -34.5 -21t-46.5 -10
q-4 20 -14 40t-26 33.5t-36.5 17t-44.5 -9.5q-7 10 -18 11.5t-23.5 -1t-24.5 -6.5t-21 -4l-15 -30q2 -18 5 -39t4.5 -43.5t0 -45t-9.5 -44.5q1 -11 10 -18.5t21 -11.5t24.5 -2t20.5 11q10 -5 28.5 -8t38 -3.5t37.5 2t28 9.5q33 -14 55.5 -4.5t39.5 29.5t30 44.5t27 42.5
q22 4 33 -9.5t13.5 -34.5t-1.5 -43t-10 -35q8 -9 10.5 -22t0.5 -26.5t-7.5 -25.5t-13.5 -17q-59 -6 -121.5 -3.5t-125 6t-123.5 4.5t-116 -7q-6 -1 -8 -2.5t-2 -7.5q-10 11 -30.5 11t-30.5 -11q-1 7 -6.5 9t-12 3l-13 2t-8.5 6q-2 12 0.5 19.5t5.5 14.5t5 15.5t-1 21.5
q21 7 39.5 16t41.5 14q-3 17 0.5 32l6.5 28.5t3 26.5t-10 25q8 -3 9 1t1 9t1 9t9 1q-6 13 -9 37t-3.5 49.5t2.5 49t10 36.5q-5 5 -8 15t-3 21t3 20.5t8 14.5q-5 5 -8 15t-3 20.5t3 20.5t8 15q-6 7 -8.5 18t-2.5 24.5t1 27.5t0 26q-8 9 -22 12.5t-28 6.5t-26 8t-15 19
q4 20 14.5 33.5t25 19.5t31.5 3.5t35 -15.5q33 17 72.5 18.5t81.5 -2t83 -5.5t77 9q11 -3 21.5 -6.5t14.5 -13.5zM553 880q-4 -14 -10 -22t-13.5 -15.5t-16 -17t-18.5 -24.5h-50q-12 14 -23 25t-35 25q-3 20 2 31.5t7 25.5q17 4 25 16t16 26q17 6 29 6t29 -6
q13 -19 28.5 -35t29.5 -35zM296 867q-6 -3 -16.5 -11t-20 -17.5t-16 -20t-5.5 -17.5q-22 1 -38 9t-28.5 19t-22 25.5l-18.5 29.5q14 21 33 37t33 37q21 0 33.5 -8t22.5 -18.5t19.5 -21.5t23.5 -18v-25z" />
    <glyph glyph-name="edieresis" unicode="&#xeb;" horiz-adv-x="452" 
d="M408 276q-9 -5 -19 -8.5t-17 -11.5q-26 3 -49.5 -1.5t-48 -10t-52.5 -9t-63 0.5q-7 -3 -10 -9t-5.5 -13t-6.5 -12.5t-13 -6.5q6 -39 25.5 -65t45.5 -46q30 -1 59.5 -1.5t53.5 4.5t40 18t19 40q8 -3 11.5 -1.5t6 4l5 5t8.5 2.5q14 -23 11.5 -40.5t-12 -33t-22 -29.5
t-18.5 -29l-28.5 -14t-35 -13.5t-37.5 -5t-36 12.5q-8 2 -11 -0.5t-5.5 -5.5t-6 -5t-12.5 1q-15 7 -30 12.5t-28.5 12t-24.5 15t-18 21.5q-3 5 -0.5 12.5t0.5 12.5q-5 7 -11 12.5t-12 12t-11 15t-7 21.5q-3 16 -1.5 34t2.5 36.5t-0.5 38t-10.5 38.5q2 13 7 29.5l9.5 32
t6 28.5t-2.5 21q9 2 18.5 4.5t17 6.5t11.5 11t4 19q12 -8 23 -4.5t20.5 11t16.5 15t11 8.5q12 3 30 2.5t35.5 -4.5t30.5 -11.5t15 -16.5h41q34 -28 52 -70.5t29 -92.5zM134 276h81q-1 10 6 12.5t9 8.5q33 1 47.5 11.5t15.5 25t-9.5 31.5t-26.5 31t-35.5 23.5t-36.5 8.5
q-6 -18 -19.5 -34.5t-25.5 -34t-16 -38t10 -45.5zM438 651q-4 -14 -10 -22t-13.5 -15.5t-16 -17t-18.5 -24.5h-50q-12 14 -23 25t-35 25q-3 20 2 31.5t7 25.5q17 4 25 16t16 26q17 6 29 6t29 -6q13 -19 28.5 -35t29.5 -35zM181 638q-6 -3 -16.5 -11t-20 -17.5t-16 -20
t-5.5 -17.5q-22 1 -38 9t-28.5 19t-22 25.5l-18.5 29.5q14 21 33 37t33 37q21 0 33.5 -8t22.5 -18.5t19.5 -21.5t23.5 -18v-25z" />
    <glyph glyph-name="Odieresis" unicode="&#xd6;" horiz-adv-x="870" 
d="M506 790q11 4 10 -5t0 -16q72 -2 121.5 -23.5t71.5 -72.5q45 -25 73 -68t41.5 -98.5t14.5 -120.5t-8 -133q-6 2 -7.5 0t-2 -5.5t-2.5 -5.5t-8 0q3 -32 -6 -52t-21.5 -36.5l-25 -33t-18.5 -40.5q-36 -18 -76 -40.5t-84.5 -39t-95 -22.5t-108.5 11q-6 2 -8 0t-2.5 -5
t-2.5 -5t-8 0q-17 9 -34 17t-47 3q-23 11 -42.5 26l-38 30.5l-38 30.5t-43.5 25q1 15 -5 23.5t-12.5 16.5t-11 18t-1.5 28q-25 13 -34 37t-10.5 52.5t-1 58.5t-5.5 54q11 122 60 204t148 116q9 24 29.5 32.5t46 11t51.5 2t45 4.5q9 -4 23 -5t28.5 1t27 8t17.5 17zM223 668
v20h-21q-6 -26 21 -20zM243 638q3 -12 -1.5 -17.5t-12 -9t-15.5 -6.5t-12 -8q-5 -6 -6 -14t-3 -16t-6.5 -14t-14.5 -7q-9 -34 -15 -79t-6 -90.5t9 -85.5t32 -64q0 -6 -6 -6.5t-4 -8.5q23 -26 46.5 -50t44.5 -51q13 -4 28 -5.5t29.5 -4t26 -7t18.5 -14.5h162q7 14 22.5 18.5
t37.5 2.5q6 7 12 15.5t12.5 16t15.5 12.5t21 6q3 38 41 41q-2 27 4 55t11 56t5.5 55t-10.5 52q1 3 3.5 4t4.5 2.5t3 4.5t-1 9q-14 32 -25.5 68t-25.5 69q-5 1 -11.5 0.5t-8.5 4.5q-5 18 -16.5 28t-25.5 18.5l-27.5 17t-21.5 22.5q-22 -4 -38 3.5t-31 15.5t-29.5 11
t-33.5 -10q-6 12 -18 12t-25 -3t-23.5 -5t-14.5 6q-12 -7 -22.5 -15.5t-21.5 -16t-25 -13t-32 -5.5zM760 172v20h-21q3 -17 21 -20zM646 880q-4 -14 -10 -22t-13.5 -15.5t-16 -17t-18.5 -24.5h-50q-12 14 -23 25t-35 25q-3 20 2 31.5t7 25.5q17 4 25 16t16 26q17 6 29 6
t29 -6q13 -19 28.5 -35t29.5 -35zM389 867q-6 -3 -16.5 -11t-20 -17.5t-16 -20t-5.5 -17.5q-22 1 -38 9t-28.5 19t-22 25.5l-18.5 29.5q14 21 33 37t33 37q21 0 33.5 -8t22.5 -18.5t19.5 -21.5t23.5 -18v-25z" />
    <glyph glyph-name="odieresis" unicode="&#xf6;" horiz-adv-x="550" 
d="M301 -15q-7 8 -19.5 10t-26 3t-25 4t-15.5 14q-8 2 -13 1t-8.5 -3t-6.5 -4.5t-8 -3.5q-35 19 -64.5 50t-49 71t-25.5 88.5t7 104.5q6 -3 8 -0.5t2.5 5.5t2.5 5t8 0q15 130 162 132q3 10 9 10.5t12.5 -2.5l14 -6.5t14.5 -1.5q52 10 92.5 -5t69.5 -46.5t47 -75t24 -91.5
q-8 -110 -60 -175.5t-152 -83.5zM189 381q-5 -9 -9 -19t-9.5 -18.5t-12.5 -15t-19 -8.5q1 -31 2.5 -62t7 -57.5t17 -47.5t33.5 -31q9 -16 27.5 -26.5t40.5 -15.5t44.5 -3.5t39.5 10.5q12 6 18.5 15.5t12.5 19.5t12.5 17t17.5 9q3 22 1.5 40t-4.5 35t-5.5 34t-1.5 37
q-7 21 -19.5 35.5t-28 26.5t-32 22.5t-31.5 22.5q-17 1 -27.5 -3.5t-21 -9.5t-22.5 -8t-31 1zM487 631q-4 -14 -10 -22t-13.5 -15.5t-16 -17t-18.5 -24.5h-50q-12 14 -23 25t-35 25q-3 20 2 31.5t7 25.5q17 4 25 16t16 26q17 6 29 6t29 -6q13 -19 28.5 -35t29.5 -35z
M230 618q-6 -3 -16.5 -11t-20 -17.5t-16 -20t-5.5 -17.5q-22 1 -38 9t-28.5 19t-22 25.5l-18.5 29.5q14 21 33 37t33 37q21 0 33.5 -8t22.5 -18.5t19.5 -21.5t23.5 -18v-25z" />
    <glyph glyph-name="udieresis" unicode="&#xfc;" horiz-adv-x="525" 
d="M185 479q9 -24 6.5 -56t-7.5 -66.5t-7.5 -67.5t8.5 -58q-10 -10 -9.5 -21.5t3 -23t3.5 -21t-7 -15.5q16 -40 55 -57.5t92 1.5q20 15 34.5 36t31.5 40q0 9 -3.5 20.5t-6 22.5t-1.5 21t11 17q-8 4 -10 13.5t-1.5 21t1.5 24t0 22.5q-4 13 -12 21.5t-18 15t-21 12t-20 12.5
q22 40 65.5 58t106.5 18q4 -16 1.5 -29t-5.5 -24t-3.5 -20.5t7.5 -17.5q-4 -12 -8 -26.5t-6 -29t-1.5 -28t5.5 -23.5q-6 -21 -10 -52t-1.5 -61t12 -53.5t29.5 -30.5q4 -23 -2 -35t-17 -19.5t-24 -12.5t-23 -14q-11 0 -19 2.5l-16 5t-18 4t-23 -1.5q-3 12 1.5 16t9.5 9
q-3 4 -7.5 5.5t-3.5 9.5q-32 -11 -60.5 -25t-60.5 -25q-13 11 -22 7.5t-24 -7.5q-37 3 -55 24.5t-27 52.5t-12.5 67t-11.5 68q7 17 10 41.5t1.5 49.5t-7 47.5t-14.5 34.5q-17 -3 -26.5 1.5t-14.5 13.5q25 35 61.5 57t90.5 29zM475 641q-4 -14 -10 -22t-13.5 -15.5t-16 -17
t-18.5 -24.5h-50q-12 14 -23 25t-35 25q-3 20 2 31.5t7 25.5q17 4 25 16t16 26q17 6 29 6t29 -6q13 -19 28.5 -35t29.5 -35zM218 628q-6 -3 -16.5 -11t-20 -17.5t-16 -20t-5.5 -17.5q-22 1 -38 9t-28.5 19t-22 25.5l-18.5 29.5q14 21 33 37t33 37q21 0 33.5 -8t22.5 -18.5
t19.5 -21.5t23.5 -18v-25z" />
    <glyph glyph-name="Udieresis" unicode="&#xdc;" horiz-adv-x="780" 
d="M720 739q5 0 7.5 -2.5l5 -5t6 -4t11.5 1.5q1 -18 -6 -31.5t-17.5 -25t-22 -22t-18.5 -22.5t-7.5 -26.5t11.5 -34.5q-6 -5 -8.5 -15t-2.5 -21t2.5 -20.5t8.5 -14.5q-9 -22 -11.5 -51t-1 -60t5.5 -60.5l7 -51.5q-11 -12 -14.5 -24t-3.5 -26t2.5 -29t4.5 -33
q-20 -9 -29 -28.5t-17 -39.5t-20.5 -35.5t-39.5 -17.5q-20 -21 -49.5 -32t-72.5 -9q-2 -5 -6 -7t-8.5 -3.5t-9 -3.5t-6.5 -6h-25t-15 10q-6 2 -9 1t-4.5 -3t-3 -4.5t-4.5 -3.5q-15 5 -23.5 8.5t-21.5 -8.5q-15 4 -28 10.5l-25.5 13t-26.5 11.5t-32 6v20q-20 1 -29 12t-15 25
t-13.5 26.5t-23.5 17.5q-3 48 -12.5 89t-17.5 83q11 10 11.5 30.5t-1.5 43t-1.5 43t11.5 30.5q-6 4 -9 18.5t-3.5 30t2.5 29.5t10 18q-6 53 -27.5 89.5t-63.5 52.5q-4 32 10 51q16 3 30 0t26 -6.5t23 -3.5t22 10q22 -10 39.5 -10.5t34.5 2.5l35.5 6t42.5 2q-2 -17 1 -29.5
t9 -21.5q-5 -14 -16.5 -21.5t-24 -14t-23.5 -14.5t-17 -21q2 -23 1 -48.5l-2 -51t1 -48.5t10 -39q-11 -30 -9.5 -60.5t7 -62l11 -64.5t2.5 -67q11 -21 26.5 -36.5t23.5 -39.5h31q-1 -8 3.5 -11.5t10 -5t10.5 -4t6 -9.5h81q29 3 48.5 15t34.5 28.5t28.5 35t30.5 33.5
q-2 19 3 37l10 35.5t6 33.5t-9 30q7 14 10 34t-10 32q5 10 10.5 24t8.5 30t1.5 31t-10.5 27q12 0 10.5 3t-5 6.5t-5 7t9.5 3.5q-9 18 -10.5 44.5t-6 50t-18 38t-46.5 9.5q-3 17 -20 20q-1 19 0.5 35.5t9.5 25.5q30 3 59 -1t56.5 -7t52 -0.5t45.5 18.5zM601 880
q-4 -14 -10 -22t-13.5 -15.5t-16 -17t-18.5 -24.5h-50q-12 14 -23 25t-35 25q-3 20 2 31.5t7 25.5q17 4 25 16t16 26q17 6 29 6t29 -6q13 -19 28.5 -35t29.5 -35zM344 867q-6 -3 -16.5 -11t-20 -17.5t-16 -20t-5.5 -17.5q-22 1 -38 9t-28.5 19t-22 25.5l-18.5 29.5
q14 21 33 37t33 37q21 0 33.5 -8t22.5 -18.5t19.5 -21.5t23.5 -18v-25z" />
    <glyph glyph-name="Ydieresis" unicode="&#x178;" horiz-adv-x="858" 
d="M703 761q11 -9 20.5 -9t20.5 9q6 -11 13.5 -14t16 -2.5t18.5 3.5t23 3q8 -38 -3.5 -55t-29.5 -28l-36 -22.5t-22 -36.5q-26 -2 -36.5 -20t-14.5 -41q-26 -17 -44 -42t-27 -59q-29 -27 -50.5 -61t-30.5 -81q-8 -1 -12 -5.5t-8 -9.5t-8.5 -9.5t-12.5 -5.5q-7 -35 -9.5 -74
t5 -72t27.5 -55t58 -22q5 -29 -2.5 -45.5t-22.5 -25.5q-11 2 -23.5 5.5t-26 5t-25.5 -0.5t-21 -10q-19 11 -49 10.5t-61 -1.5t-57 2.5t-36 23.5q-1 11 1 18t6 13l8 11.5t6 13.5q12 2 22 0t13 -10q37 29 46.5 71t1 85.5t-29.5 83t-43 64.5v25q-42 61 -81 124t-71 135
q-25 -3 -42.5 5t-27 23t-10 34t8.5 39q39 -2 74 -4.5t70 -3t71.5 1t78.5 6.5v-41q-20 -8 -37.5 -18t-33.5 -22q-6 -13 -3.5 -22.5t8.5 -17.5t13 -15t12 -16q3 -5 0.5 -12.5t-0.5 -12.5q3 -7 8 -12.5t11 -11l12 -11t10 -11.5q10 -17 14.5 -37.5t15.5 -38.5q6 -11 14 -19.5
t15.5 -18t13.5 -21t8 -27.5h25q6 8 9.5 19.5t7.5 22t10.5 18.5t18.5 11v40q5 0 7.5 2.5l5 5t6 4t11.5 -1.5q3 27 14.5 45.5t24 35.5t22.5 37t10 50q-12 17 -32 26t-39 19v51q29 3 54.5 0.5l47.5 -4.5t42 0t38 14zM640 880q-4 -14 -10 -22t-13.5 -15.5t-16 -17t-18.5 -24.5
h-50q-12 14 -23 25t-35 25q-3 20 2 31.5t7 25.5q17 4 25 16t16 26q17 6 29 6t29 -6q13 -19 28.5 -35t29.5 -35zM383 867q-6 -3 -16.5 -11t-20 -17.5t-16 -20t-5.5 -17.5q-22 1 -38 9t-28.5 19t-22 25.5l-18.5 29.5q14 21 33 37t33 37q21 0 33.5 -8t22.5 -18.5t19.5 -21.5
t23.5 -18v-25z" />
    <glyph glyph-name="adieresis" unicode="&#xe4;" 
d="M228 499q7 -7 12.5 -8t11 0.5t12 4.5t15.5 3q50 -11 83 -37.5t38 -83.5q-8 -16 -10 -38.5t-1 -47l2 -50t-1 -47.5q-8 -8 -10 -22.5t0 -32.5q8 -13 18.5 -23.5t19.5 -22.5t16 -26t7 -35q-14 -7 -36.5 -13.5t-46 -7t-43 6t-26.5 24.5q-38 -6 -72.5 -14t-59.5 -26
q-28 1 -46.5 12t-31.5 27t-23 35t-21 37q5 13 6 24.5t0.5 22.5t-2.5 24t-4 31q10 5 21 16t23 20.5t25 12.5t28 -9q19 10 48.5 10.5t57 3t48.5 11.5t23 36q-3 16 -7.5 31.5t-11.5 28t-18 21t-29 10.5q-27 -18 -58 -32.5t-53 -38.5q-21 1 -35.5 8t-30.5 13q25 50 68.5 82.5
t93.5 58.5zM167 114q3 -5 12.5 -9t22 -7t26.5 -4t25 0q29 11 40 39t6 73q-25 9 -52 9.5t-48 -10t-31 -32.5t-1 -59zM458 650q-4 -14 -10 -22t-13.5 -15.5t-16 -17t-18.5 -24.5h-50q-12 14 -23 25t-35 25q-3 20 2 31.5t7 25.5q17 4 25 16t16 26q17 6 29 6t29 -6
q13 -19 28.5 -35t29.5 -35zM201 637q-6 -3 -16.5 -11t-20 -17.5t-16 -20t-5.5 -17.5q-22 1 -38 9t-28.5 19t-22 25.5l-18.5 29.5q14 21 33 37t33 37q21 0 33.5 -8t22.5 -18.5t19.5 -21.5t23.5 -18v-25z" />
    <glyph glyph-name="Adieresis" unicode="&#xc4;" horiz-adv-x="758" 
d="M424 742q21 -36 36.5 -77.5t30 -84.5l29.5 -85t36 -78q-5 -9 -9 -18.5t-1 -26.5q6 -3 8 -9.5t12 -5.5q-1 -17 3 -28.5t8.5 -23t8 -24.5t0.5 -31q6 -3 9 -10t5.5 -14t6 -13t10.5 -8q0 -37 12 -61.5t30 -43.5t37 -36.5t32 -41.5q-11 4 -10 -4.5t0 -15.5q-38 3 -72.5 1
t-66.5 -4.5t-63 -3t-62 6.5q-2 12 0.5 20t6 14.5t8 12.5t6.5 14h25q18 16 21 40.5t-3.5 51t-19 51t-23.5 39.5q-12 -1 -25.5 0t-26 1t-23 -2.5t-16.5 -8.5q0 10 -6.5 12t-9.5 8q-11 -2 -22.5 -6.5t-23 -7.5t-22 -3.5t-18.5 7.5q-12 -3 -18.5 -12t-12 -18.5t-12 -18.5
t-18.5 -12q-7 -18 -5 -35.5t3.5 -34t-1 -30.5t-17.5 -26q12 -3 21 -2t17.5 1.5t18.5 0t24 -4.5q-8 -9 -9.5 -25.5t-0.5 -35.5q-26 9 -57 10.5t-63 -0.5t-63.5 -5.5t-59.5 -4.5v81q24 2 44.5 8.5t34 19t20 33t2.5 50.5q31 31 45.5 76.5t25.5 96.5q25 26 36.5 65t14.5 87
q16 18 25.5 43t17.5 50.5t18.5 49.5t29.5 39v30q24 27 81 21zM292 306q20 10 40.5 10.5t41 -2t41 -3.5t39.5 5q-2 30 1.5 54.5t19.5 36.5q-26 2 -40.5 15.5t-22 33.5t-11 44.5t-7.5 48.5h-31q-7 -32 -18 -60l-22 -56.5t-20 -59t-11 -67.5zM460 448q3 1 4.5 7.5t1 13t-4.5 10
t-12 -0.5q-3 -1 -5 -7.5t-1 -13t5 -10t12 0.5zM495 397h10v20h-10v-20zM495 326q17 3 20 20q-17 -3 -20 -20zM495 245q25 4 20 41q-6 -3 -7.5 -0.5t-2.5 5.5t-2.5 5t-7.5 0v-51zM191 73q-2 6 0.5 8t5.5 3.5t5 4t-1 9.5q-5 3 -8.5 8t-7.5 9.5t-9.5 7t-14.5 1.5q-4 -24 6 -34
t24 -17zM590 880q-4 -14 -10 -22t-13.5 -15.5t-16 -17t-18.5 -24.5h-50q-12 14 -23 25t-35 25q-3 20 2 31.5t7 25.5q17 4 25 16t16 26q17 6 29 6t29 -6q13 -19 28.5 -35t29.5 -35zM333 867q-6 -3 -16.5 -11t-20 -17.5t-16 -20t-5.5 -17.5q-22 1 -38 9t-28.5 19t-22 25.5
l-18.5 29.5q14 21 33 37t33 37q21 0 33.5 -8t22.5 -18.5t19.5 -21.5t23.5 -18v-25z" />
    <glyph glyph-name="acute" unicode="&#xb4;" horiz-adv-x="833" 
d="M452 707q4 0 11 -10.5l15 -23.5q9 -15 18 -34q-13 -23 -31.5 -30.5t-38.5 -10.5t-39 -7t-33 -19q-10 7 -19 6t-17.5 -5.5t-16.5 -11t-17 -11.5q-6 10 -10 10t-8 -3.5t-8.5 -6t-9.5 2.5q-12 13 -3 28q20 16 53.5 38t66.5 41.5t58.5 33t28.5 13.5z" />
    <glyph glyph-name="iacute" unicode="&#xed;" horiz-adv-x="251" 
d="M185 473q-1 -48 -5 -93.5t-15 -83.5q9 -17 8.5 -41l-1 -48.5t3 -48t19.5 -40.5q1 -6 -1 -8t-5 -3.5t-5 -4t1 -9.5q15 -3 27 -14t19 -26t6.5 -32.5t-11.5 -33.5q-12 -1 -21.5 2l-17.5 5.5t-16 2t-16 -9.5q3 8 -1 9t-9 1t-9 1t-1 9q-10 -10 -20.5 -10.5t-21.5 2.5
l-23.5 6.5t-26.5 1.5q-2 16 1 27.5t9 19t14.5 13t16.5 11.5q-2 19 0.5 34t19.5 17q-10 48 -10 104v113q-13 18 -29 32.5l-32 28.5q7 19 24.5 33.5t40 23.5t46 11.5t41.5 -2.5zM210 707q4 0 11 -10.5l15 -23.5q9 -15 18 -34q-13 -23 -31.5 -30.5t-38.5 -10.5t-39 -7t-33 -19
q-10 7 -19 6t-17.5 -5.5t-16.5 -11t-17 -11.5q-6 10 -10 10t-8 -3.5t-8.5 -6t-9.5 2.5q-12 13 -3 28q20 16 53.5 38t66.5 41.5t58.5 33t28.5 13.5z" />
    <glyph glyph-name="Iacute" unicode="&#xcd;" horiz-adv-x="428" 
d="M70 736q18 1 38 -3l39 -7.5t36 -4.5t29 5q10 -8 26.5 -7t34.5 5l36 8t33 2.5t24 -12.5t8 -36q-15 -14 -34.5 -22t-37 -18.5t-29.5 -26.5t-11 -45q-6 1 -8 -2.5t-3 -8.5t-2 -9.5t-7 -4.5q6 -3 8.5 -9.5t11.5 -5.5q-5 -17 -4 -30.5t2.5 -25.5t1 -24.5t-9.5 -26.5
q7 -29 9 -59.5t1 -61.5t-4 -59.5t-6 -52.5q7 -21 11.5 -45t13.5 -43.5t26 -31t50 -6.5q9 -9 10.5 -25.5t0.5 -35.5q-7 -2 -17 -1l-19.5 2t-16.5 -1t-8 -10q-52 4 -110.5 4.5t-112.5 -4.5q-13 3 -20 11.5t-9 20t0.5 24.5t8.5 25q11 -3 17 -1t11 5t11 5.5t16 0.5
q18 22 27 47.5t12.5 51.5t2 51t-5.5 48q7 27 6.5 58.5t-3.5 66t-5 71t2 72.5q10 -1 12 5.5t8 9.5q-15 9 -24.5 22.5l-19.5 27t-23 24t-34 12.5q-5 11 -10.5 20.5t-10.5 20.5q0 7 4.5 10.5l9 7t7 8t0.5 14.5zM300 937q4 0 11 -10.5l15 -23.5q9 -15 18 -34
q-13 -23 -31.5 -30.5t-38.5 -10.5t-39 -7t-33 -19q-10 7 -19 6t-17.5 -5.5t-16.5 -11t-17 -11.5q-6 10 -10 10t-8 -3.5t-8.5 -6t-9.5 2.5q-12 13 -3 28q20 16 53.5 38t66.5 41.5t58.5 33t28.5 13.5z" />
    <glyph glyph-name="Eacute" unicode="&#xc9;" horiz-adv-x="684" 
d="M452 961q4 0 11 -10.5l15 -23.5q9 -15 18 -34q-13 -23 -31.5 -30.5t-38.5 -10.5t-39 -7t-33 -19q-10 7 -19 6t-17.5 -5.5t-16.5 -11t-17 -11.5q-6 10 -10 10t-8 -3.5t-8.5 -6t-9.5 2.5q-12 13 -3 28q20 16 53.5 38t66.5 41.5t58.5 33t28.5 13.5zM490 733q7 6 19 8t25.5 2
t28.5 -0.5t28 0.5q5 -5 7 -13.5t3 -17.5t3 -17t7 -13q0 -11 -8 -14t-12 -11q9 -21 10.5 -43.5t-4.5 -41t-20 -30.5t-37 -12q-12 9 -21.5 24.5l-19 32t-19.5 32t-24 25t-33 10t-45 -12.5q-12 10 -23.5 13.5t-24 2.5t-26.5 -3t-32 -2q-26 -17 -31 -45t-2 -59.5t5.5 -62
t-8.5 -51.5q4 -8 12 -11.5t9 -14.5h81q19 -12 37.5 -11.5t34.5 8.5t28.5 20.5t20.5 23.5q2 6 0 7.5t-5 2.5t-5 2.5t0 7.5q7 10 20 15t27.5 5t26.5 -6.5t17 -18.5q-9 -23 -10 -47t1 -49.5t5.5 -51t3.5 -49.5q-17 -11 -34.5 -21t-46.5 -10q-4 20 -14 40t-26 33.5t-36.5 17
t-44.5 -9.5q-7 10 -18 11.5t-23.5 -1t-24.5 -6.5t-21 -4l-15 -30q2 -18 5 -39t4.5 -43.5t0 -45t-9.5 -44.5q1 -11 10 -18.5t21 -11.5t24.5 -2t20.5 11q10 -5 28.5 -8t38 -3.5t37.5 2t28 9.5q33 -14 55.5 -4.5t39.5 29.5t30 44.5t27 42.5q22 4 33 -9.5t13.5 -34.5t-1.5 -43
t-10 -35q8 -9 10.5 -22t0.5 -26.5t-7.5 -25.5t-13.5 -17q-59 -6 -121.5 -3.5t-125 6t-123.5 4.5t-116 -7q-6 -1 -8 -2.5t-2 -7.5q-10 11 -30.5 11t-30.5 -11q-1 7 -6.5 9t-12 3l-13 2t-8.5 6q-2 12 0.5 19.5t5.5 14.5t5 15.5t-1 21.5q21 7 39.5 16t41.5 14q-3 17 0.5 32
l6.5 28.5t3 26.5t-10 25q8 -3 9 1t1 9t1 9t9 1q-6 13 -9 37t-3.5 49.5t2.5 49t10 36.5q-5 5 -8 15t-3 21t3 20.5t8 14.5q-5 5 -8 15t-3 20.5t3 20.5t8 15q-6 7 -8.5 18t-2.5 24.5t1 27.5t0 26q-8 9 -22 12.5t-28 6.5t-26 8t-15 19q4 20 14.5 33.5t25 19.5t31.5 3.5t35 -15.5
q33 17 72.5 18.5t81.5 -2t83 -5.5t77 9q11 -3 21.5 -6.5t14.5 -13.5zM427 907q4 0 11 -10.5l15 -23.5q9 -15 18 -34q-13 -23 -31.5 -30.5t-38.5 -10.5t-39 -7t-33 -19q-10 7 -19 6t-17.5 -5.5t-16.5 -11t-17 -11.5q-6 10 -10 10t-8 -3.5t-8.5 -6t-9.5 2.5q-12 13 -3 28
q20 16 53.5 38t66.5 41.5t58.5 33t28.5 13.5z" />
    <glyph glyph-name="eacute" unicode="&#xe9;" horiz-adv-x="452" 
d="M408 276q-9 -5 -19 -8.5t-17 -11.5q-26 3 -49.5 -1.5t-48 -10t-52.5 -9t-63 0.5q-7 -3 -10 -9t-5.5 -13t-6.5 -12.5t-13 -6.5q6 -39 25.5 -65t45.5 -46q30 -1 59.5 -1.5t53.5 4.5t40 18t19 40q8 -3 11.5 -1.5t6 4l5 5t8.5 2.5q14 -23 11.5 -40.5t-12 -33t-22 -29.5
t-18.5 -29l-28.5 -14t-35 -13.5t-37.5 -5t-36 12.5q-8 2 -11 -0.5t-5.5 -5.5t-6 -5t-12.5 1q-15 7 -30 12.5t-28.5 12t-24.5 15t-18 21.5q-3 5 -0.5 12.5t0.5 12.5q-5 7 -11 12.5t-12 12t-11 15t-7 21.5q-3 16 -1.5 34t2.5 36.5t-0.5 38t-10.5 38.5q2 13 7 29.5l9.5 32
t6 28.5t-2.5 21q9 2 18.5 4.5t17 6.5t11.5 11t4 19q12 -8 23 -4.5t20.5 11t16.5 15t11 8.5q12 3 30 2.5t35.5 -4.5t30.5 -11.5t15 -16.5h41q34 -28 52 -70.5t29 -92.5zM134 276h81q-1 10 6 12.5t9 8.5q33 1 47.5 11.5t15.5 25t-9.5 31.5t-26.5 31t-35.5 23.5t-36.5 8.5
q-6 -18 -19.5 -34.5t-25.5 -34t-16 -38t10 -45.5zM312 707q4 0 11 -10.5l15 -23.5q9 -15 18 -34q-13 -23 -31.5 -30.5t-38.5 -10.5t-39 -7t-33 -19q-10 7 -19 6t-17.5 -5.5t-16.5 -11t-17 -11.5q-6 10 -10 10t-8 -3.5t-8.5 -6t-9.5 2.5q-12 13 -3 28q20 16 53.5 38
t66.5 41.5t58.5 33t28.5 13.5z" />
    <glyph glyph-name="aacute" unicode="&#xe1;" 
d="M228 499q7 -7 12.5 -8t11 0.5t12 4.5t15.5 3q50 -11 83 -37.5t38 -83.5q-8 -16 -10 -38.5t-1 -47l2 -50t-1 -47.5q-8 -8 -10 -22.5t0 -32.5q8 -13 18.5 -23.5t19.5 -22.5t16 -26t7 -35q-14 -7 -36.5 -13.5t-46 -7t-43 6t-26.5 24.5q-38 -6 -72.5 -14t-59.5 -26
q-28 1 -46.5 12t-31.5 27t-23 35t-21 37q5 13 6 24.5t0.5 22.5t-2.5 24t-4 31q10 5 21 16t23 20.5t25 12.5t28 -9q19 10 48.5 10.5t57 3t48.5 11.5t23 36q-3 16 -7.5 31.5t-11.5 28t-18 21t-29 10.5q-27 -18 -58 -32.5t-53 -38.5q-21 1 -35.5 8t-30.5 13q25 50 68.5 82.5
t93.5 58.5zM167 114q3 -5 12.5 -9t22 -7t26.5 -4t25 0q29 11 40 39t6 73q-25 9 -52 9.5t-48 -10t-31 -32.5t-1 -59zM331 707q4 0 11 -10.5l15 -23.5q9 -15 18 -34q-13 -23 -31.5 -30.5t-38.5 -10.5t-39 -7t-33 -19q-10 7 -19 6t-17.5 -5.5t-16.5 -11t-17 -11.5q-6 10 -10 10
t-8 -3.5t-8.5 -6t-9.5 2.5q-12 13 -3 28q20 16 53.5 38t66.5 41.5t58.5 33t28.5 13.5z" />
    <glyph glyph-name="oacute" unicode="&#xf3;" horiz-adv-x="550" 
d="M301 -15q-7 8 -19.5 10t-26 3t-25 4t-15.5 14q-8 2 -13 1t-8.5 -3t-6.5 -4.5t-8 -3.5q-35 19 -64.5 50t-49 71t-25.5 88.5t7 104.5q6 -3 8 -0.5t2.5 5.5t2.5 5t8 0q15 130 162 132q3 10 9 10.5t12.5 -2.5l14 -6.5t14.5 -1.5q52 10 92.5 -5t69.5 -46.5t47 -75t24 -91.5
q-8 -110 -60 -175.5t-152 -83.5zM189 381q-5 -9 -9 -19t-9.5 -18.5t-12.5 -15t-19 -8.5q1 -31 2.5 -62t7 -57.5t17 -47.5t33.5 -31q9 -16 27.5 -26.5t40.5 -15.5t44.5 -3.5t39.5 10.5q12 6 18.5 15.5t12.5 19.5t12.5 17t17.5 9q3 22 1.5 40t-4.5 35t-5.5 34t-1.5 37
q-7 21 -19.5 35.5t-28 26.5t-32 22.5t-31.5 22.5q-17 1 -27.5 -3.5t-21 -9.5t-22.5 -8t-31 1zM361 707q4 0 11 -10.5l15 -23.5q9 -15 18 -34q-13 -23 -31.5 -30.5t-38.5 -10.5t-39 -7t-33 -19q-10 7 -19 6t-17.5 -5.5t-16.5 -11t-17 -11.5q-6 10 -10 10t-8 -3.5t-8.5 -6
t-9.5 2.5q-12 13 -3 28q20 16 53.5 38t66.5 41.5t58.5 33t28.5 13.5z" />
    <glyph glyph-name="uacute" unicode="&#xfa;" horiz-adv-x="525" 
d="M185 479q9 -24 6.5 -56t-7.5 -66.5t-7.5 -67.5t8.5 -58q-10 -10 -9.5 -21.5t3 -23t3.5 -21t-7 -15.5q16 -40 55 -57.5t92 1.5q20 15 34.5 36t31.5 40q0 9 -3.5 20.5t-6 22.5t-1.5 21t11 17q-8 4 -10 13.5t-1.5 21t1.5 24t0 22.5q-4 13 -12 21.5t-18 15t-21 12t-20 12.5
q22 40 65.5 58t106.5 18q4 -16 1.5 -29t-5.5 -24t-3.5 -20.5t7.5 -17.5q-4 -12 -8 -26.5t-6 -29t-1.5 -28t5.5 -23.5q-6 -21 -10 -52t-1.5 -61t12 -53.5t29.5 -30.5q4 -23 -2 -35t-17 -19.5t-24 -12.5t-23 -14q-11 0 -19 2.5l-16 5t-18 4t-23 -1.5q-3 12 1.5 16t9.5 9
q-3 4 -7.5 5.5t-3.5 9.5q-32 -11 -60.5 -25t-60.5 -25q-13 11 -22 7.5t-24 -7.5q-37 3 -55 24.5t-27 52.5t-12.5 67t-11.5 68q7 17 10 41.5t1.5 49.5t-7 47.5t-14.5 34.5q-17 -3 -26.5 1.5t-14.5 13.5q25 35 61.5 57t90.5 29zM348 707q4 0 11 -10.5l15 -23.5q9 -15 18 -34
q-13 -23 -31.5 -30.5t-38.5 -10.5t-39 -7t-33 -19q-10 7 -19 6t-17.5 -5.5t-16.5 -11t-17 -11.5q-6 10 -10 10t-8 -3.5t-8.5 -6t-9.5 2.5q-12 13 -3 28q20 16 53.5 38t66.5 41.5t58.5 33t28.5 13.5z" />
    <glyph glyph-name="yacute" unicode="&#xfd;" horiz-adv-x="634" 
d="M247 489q8 -9 9.5 -25.5t0.5 -35.5q-9 0 -15.5 -2t-12 -5.5l-11 -7t-12.5 -5.5q3 -41 12 -76t22 -65.5t29 -58t33 -53.5q8 6 13.5 15.5l11 18.5t12.5 16.5t19 9.5q3 29 17 58.5t23 56.5t3 50t-43 38q3 12 0.5 18.5t-5.5 12t-5.5 12t0.5 18.5q35 3 62 4.5t53 2.5t53.5 1.5
t64.5 1.5q8 -21 8 -35t-8 -36q-38 -3 -60.5 -20.5t-37.5 -43.5t-24.5 -57l-19.5 -61q-20 -14 -29 -39.5t-16.5 -52t-19 -49.5t-36.5 -32q2 -29 -4 -51t-26 -30q-19 -71 -52.5 -125.5t-79.5 -96.5h-41q-8 -2 -8.5 3.5t-6.5 6.5q-28 -15 -76 -10q-12 25 -7.5 43.5t20.5 30.5
t40.5 16.5t53.5 0.5q20 9 33 26t24 35.5l22 37t27 32.5q-1 17 -4 30.5t-7.5 26.5l-9.5 27t-9 33q-3 13 -14.5 23.5t-16.5 22.5q-3 8 -0.5 17.5t0.5 17.5q-3 12 -14 23t-16 23q-2 5 0 15.5t0 19.5q-2 8 -10.5 14t-10.5 11q-3 11 -3.5 22t-1.5 22.5t-4 22t-11 20.5
q-1 5 -7.5 4.5t-12.5 0.5q-3 15 -14 23.5t-23 15.5t-22 16t-12 26q3 14 16.5 18t30.5 3.5t36 -2.5t34 1q3 10 14.5 10t15.5 -10q3 7 10 9t17 2t20 -1t19 0zM403 707q4 0 11 -10.5l15 -23.5q9 -15 18 -34q-13 -23 -31.5 -30.5t-38.5 -10.5t-39 -7t-33 -19q-10 7 -19 6
t-17.5 -5.5t-16.5 -11t-17 -11.5q-6 10 -10 10t-8 -3.5t-8.5 -6t-9.5 2.5q-12 13 -3 28q20 16 53.5 38t66.5 41.5t58.5 33t28.5 13.5z" />
    <glyph glyph-name="grave" unicode="`" horiz-adv-x="833" 
d="M261 695q3 0 28.5 -13.5t58.5 -33t66.5 -41.5t53.5 -38q9 -15 -3 -28q-5 -5 -9.5 -2.5t-8.5 6t-8 3.5t-10 -10q-9 5 -17 11.5t-16.5 11t-17.5 5.5t-19 -6q-14 15 -33 19t-39 7t-38.5 10.5t-31.5 30.5q9 19 18 34l15 23.5t11 10.5z" />
    <glyph glyph-name="agrave" unicode="&#xe0;" 
d="M228 499q7 -7 12.5 -8t11 0.5t12 4.5t15.5 3q50 -11 83 -37.5t38 -83.5q-8 -16 -10 -38.5t-1 -47l2 -50t-1 -47.5q-8 -8 -10 -22.5t0 -32.5q8 -13 18.5 -23.5t19.5 -22.5t16 -26t7 -35q-14 -7 -36.5 -13.5t-46 -7t-43 6t-26.5 24.5q-38 -6 -72.5 -14t-59.5 -26
q-28 1 -46.5 12t-31.5 27t-23 35t-21 37q5 13 6 24.5t0.5 22.5t-2.5 24t-4 31q10 5 21 16t23 20.5t25 12.5t28 -9q19 10 48.5 10.5t57 3t48.5 11.5t23 36q-3 16 -7.5 31.5t-11.5 28t-18 21t-29 10.5q-27 -18 -58 -32.5t-53 -38.5q-21 1 -35.5 8t-30.5 13q25 50 68.5 82.5
t93.5 58.5zM167 114q3 -5 12.5 -9t22 -7t26.5 -4t25 0q29 11 40 39t6 73q-25 9 -52 9.5t-48 -10t-31 -32.5t-1 -59zM162 695q3 0 28.5 -13.5t58.5 -33t66.5 -41.5t53.5 -38q9 -15 -3 -28q-5 -5 -9.5 -2.5t-8.5 6t-8 3.5t-10 -10q-9 5 -17 11.5t-16.5 11t-17.5 5.5t-19 -6
q-14 15 -33 19t-39 7t-38.5 10.5t-31.5 30.5q9 19 18 34l15 23.5t11 10.5z" />
    <glyph glyph-name="egrave" unicode="&#xe8;" horiz-adv-x="452" 
d="M408 276q-9 -5 -19 -8.5t-17 -11.5q-26 3 -49.5 -1.5t-48 -10t-52.5 -9t-63 0.5q-7 -3 -10 -9t-5.5 -13t-6.5 -12.5t-13 -6.5q6 -39 25.5 -65t45.5 -46q30 -1 59.5 -1.5t53.5 4.5t40 18t19 40q8 -3 11.5 -1.5t6 4l5 5t8.5 2.5q14 -23 11.5 -40.5t-12 -33t-22 -29.5
t-18.5 -29l-28.5 -14t-35 -13.5t-37.5 -5t-36 12.5q-8 2 -11 -0.5t-5.5 -5.5t-6 -5t-12.5 1q-15 7 -30 12.5t-28.5 12t-24.5 15t-18 21.5q-3 5 -0.5 12.5t0.5 12.5q-5 7 -11 12.5t-12 12t-11 15t-7 21.5q-3 16 -1.5 34t2.5 36.5t-0.5 38t-10.5 38.5q2 13 7 29.5l9.5 32
t6 28.5t-2.5 21q9 2 18.5 4.5t17 6.5t11.5 11t4 19q12 -8 23 -4.5t20.5 11t16.5 15t11 8.5q12 3 30 2.5t35.5 -4.5t30.5 -11.5t15 -16.5h41q34 -28 52 -70.5t29 -92.5zM134 276h81q-1 10 6 12.5t9 8.5q33 1 47.5 11.5t15.5 25t-9.5 31.5t-26.5 31t-35.5 23.5t-36.5 8.5
q-6 -18 -19.5 -34.5t-25.5 -34t-16 -38t10 -45.5zM143 695q3 0 28.5 -13.5t58.5 -33t66.5 -41.5t53.5 -38q9 -15 -3 -28q-5 -5 -9.5 -2.5t-8.5 6t-8 3.5t-10 -10q-9 5 -17 11.5t-16.5 11t-17.5 5.5t-19 -6q-14 15 -33 19t-39 7t-38.5 10.5t-31.5 30.5q9 19 18 34l15 23.5
t11 10.5z" />
    <glyph glyph-name="ograve" unicode="&#xf2;" horiz-adv-x="550" 
d="M301 -15q-7 8 -19.5 10t-26 3t-25 4t-15.5 14q-8 2 -13 1t-8.5 -3t-6.5 -4.5t-8 -3.5q-35 19 -64.5 50t-49 71t-25.5 88.5t7 104.5q6 -3 8 -0.5t2.5 5.5t2.5 5t8 0q15 130 162 132q3 10 9 10.5t12.5 -2.5l14 -6.5t14.5 -1.5q52 10 92.5 -5t69.5 -46.5t47 -75t24 -91.5
q-8 -110 -60 -175.5t-152 -83.5zM189 381q-5 -9 -9 -19t-9.5 -18.5t-12.5 -15t-19 -8.5q1 -31 2.5 -62t7 -57.5t17 -47.5t33.5 -31q9 -16 27.5 -26.5t40.5 -15.5t44.5 -3.5t39.5 10.5q12 6 18.5 15.5t12.5 19.5t12.5 17t17.5 9q3 22 1.5 40t-4.5 35t-5.5 34t-1.5 37
q-7 21 -19.5 35.5t-28 26.5t-32 22.5t-31.5 22.5q-17 1 -27.5 -3.5t-21 -9.5t-22.5 -8t-31 1zM192 695q3 0 28.5 -13.5t58.5 -33t66.5 -41.5t53.5 -38q9 -15 -3 -28q-5 -5 -9.5 -2.5t-8.5 6t-8 3.5t-10 -10q-9 5 -17 11.5t-16.5 11t-17.5 5.5t-19 -6q-14 15 -33 19t-39 7
t-38.5 10.5t-31.5 30.5q9 19 18 34l15 23.5t11 10.5z" />
    <glyph glyph-name="ugrave" unicode="&#xf9;" horiz-adv-x="525" 
d="M185 479q9 -24 6.5 -56t-7.5 -66.5t-7.5 -67.5t8.5 -58q-10 -10 -9.5 -21.5t3 -23t3.5 -21t-7 -15.5q16 -40 55 -57.5t92 1.5q20 15 34.5 36t31.5 40q0 9 -3.5 20.5t-6 22.5t-1.5 21t11 17q-8 4 -10 13.5t-1.5 21t1.5 24t0 22.5q-4 13 -12 21.5t-18 15t-21 12t-20 12.5
q22 40 65.5 58t106.5 18q4 -16 1.5 -29t-5.5 -24t-3.5 -20.5t7.5 -17.5q-4 -12 -8 -26.5t-6 -29t-1.5 -28t5.5 -23.5q-6 -21 -10 -52t-1.5 -61t12 -53.5t29.5 -30.5q4 -23 -2 -35t-17 -19.5t-24 -12.5t-23 -14q-11 0 -19 2.5l-16 5t-18 4t-23 -1.5q-3 12 1.5 16t9.5 9
q-3 4 -7.5 5.5t-3.5 9.5q-32 -11 -60.5 -25t-60.5 -25q-13 11 -22 7.5t-24 -7.5q-37 3 -55 24.5t-27 52.5t-12.5 67t-11.5 68q7 17 10 41.5t1.5 49.5t-7 47.5t-14.5 34.5q-17 -3 -26.5 1.5t-14.5 13.5q25 35 61.5 57t90.5 29zM179 695q3 0 28.5 -13.5t58.5 -33t66.5 -41.5
t53.5 -38q9 -15 -3 -28q-5 -5 -9.5 -2.5t-8.5 6t-8 3.5t-10 -10q-9 5 -17 11.5t-16.5 11t-17.5 5.5t-19 -6q-14 15 -33 19t-39 7t-38.5 10.5t-31.5 30.5q9 19 18 34l15 23.5t11 10.5z" />
    <glyph glyph-name="Ugrave" unicode="&#xd9;" horiz-adv-x="780" 
d="M720 739q5 0 7.5 -2.5l5 -5t6 -4t11.5 1.5q1 -18 -6 -31.5t-17.5 -25t-22 -22t-18.5 -22.5t-7.5 -26.5t11.5 -34.5q-6 -5 -8.5 -15t-2.5 -21t2.5 -20.5t8.5 -14.5q-9 -22 -11.5 -51t-1 -60t5.5 -60.5l7 -51.5q-11 -12 -14.5 -24t-3.5 -26t2.5 -29t4.5 -33
q-20 -9 -29 -28.5t-17 -39.5t-20.5 -35.5t-39.5 -17.5q-20 -21 -49.5 -32t-72.5 -9q-2 -5 -6 -7t-8.5 -3.5t-9 -3.5t-6.5 -6h-25t-15 10q-6 2 -9 1t-4.5 -3t-3 -4.5t-4.5 -3.5q-15 5 -23.5 8.5t-21.5 -8.5q-15 4 -28 10.5l-25.5 13t-26.5 11.5t-32 6v20q-20 1 -29 12t-15 25
t-13.5 26.5t-23.5 17.5q-3 48 -12.5 89t-17.5 83q11 10 11.5 30.5t-1.5 43t-1.5 43t11.5 30.5q-6 4 -9 18.5t-3.5 30t2.5 29.5t10 18q-6 53 -27.5 89.5t-63.5 52.5q-4 32 10 51q16 3 30 0t26 -6.5t23 -3.5t22 10q22 -10 39.5 -10.5t34.5 2.5l35.5 6t42.5 2q-2 -17 1 -29.5
t9 -21.5q-5 -14 -16.5 -21.5t-24 -14t-23.5 -14.5t-17 -21q2 -23 1 -48.5l-2 -51t1 -48.5t10 -39q-11 -30 -9.5 -60.5t7 -62l11 -64.5t2.5 -67q11 -21 26.5 -36.5t23.5 -39.5h31q-1 -8 3.5 -11.5t10 -5t10.5 -4t6 -9.5h81q29 3 48.5 15t34.5 28.5t28.5 35t30.5 33.5
q-2 19 3 37l10 35.5t6 33.5t-9 30q7 14 10 34t-10 32q5 10 10.5 24t8.5 30t1.5 31t-10.5 27q12 0 10.5 3t-5 6.5t-5 7t9.5 3.5q-9 18 -10.5 44.5t-6 50t-18 38t-46.5 9.5q-3 17 -20 20q-1 19 0.5 35.5t9.5 25.5q30 3 59 -1t56.5 -7t52 -0.5t45.5 18.5zM305 925
q3 0 28.5 -13.5t58.5 -33t66.5 -41.5t53.5 -38q9 -15 -3 -28q-5 -5 -9.5 -2.5t-8.5 6t-8 3.5t-10 -10q-9 5 -17 11.5t-16.5 11t-17.5 5.5t-19 -6q-14 15 -33 19t-39 7t-38.5 10.5t-31.5 30.5q9 19 18 34l15 23.5t11 10.5z" />
    <glyph glyph-name="Igrave" unicode="&#xcc;" horiz-adv-x="428" 
d="M70 736q18 1 38 -3l39 -7.5t36 -4.5t29 5q10 -8 26.5 -7t34.5 5l36 8t33 2.5t24 -12.5t8 -36q-15 -14 -34.5 -22t-37 -18.5t-29.5 -26.5t-11 -45q-6 1 -8 -2.5t-3 -8.5t-2 -9.5t-7 -4.5q6 -3 8.5 -9.5t11.5 -5.5q-5 -17 -4 -30.5t2.5 -25.5t1 -24.5t-9.5 -26.5
q7 -29 9 -59.5t1 -61.5t-4 -59.5t-6 -52.5q7 -21 11.5 -45t13.5 -43.5t26 -31t50 -6.5q9 -9 10.5 -25.5t0.5 -35.5q-7 -2 -17 -1l-19.5 2t-16.5 -1t-8 -10q-52 4 -110.5 4.5t-112.5 -4.5q-13 3 -20 11.5t-9 20t0.5 24.5t8.5 25q11 -3 17 -1t11 5t11 5.5t16 0.5
q18 22 27 47.5t12.5 51.5t2 51t-5.5 48q7 27 6.5 58.5t-3.5 66t-5 71t2 72.5q10 -1 12 5.5t8 9.5q-15 9 -24.5 22.5l-19.5 27t-23 24t-34 12.5q-5 11 -10.5 20.5t-10.5 20.5q0 7 4.5 10.5l9 7t7 8t0.5 14.5zM131 935q3 0 28.5 -13.5t58.5 -33t66.5 -41.5t53.5 -38
q9 -15 -3 -28q-5 -5 -9.5 -2.5t-8.5 6t-8 3.5t-10 -10q-9 5 -17 11.5t-16.5 11t-17.5 5.5t-19 -6q-14 15 -33 19t-39 7t-38.5 10.5t-31.5 30.5q9 19 18 34l15 23.5t11 10.5z" />
    <glyph glyph-name="Egrave" unicode="&#xc8;" horiz-adv-x="684" 
d="M490 733q7 6 19 8t25.5 2t28.5 -0.5t28 0.5q5 -5 7 -13.5t3 -17.5t3 -17t7 -13q0 -11 -8 -14t-12 -11q9 -21 10.5 -43.5t-4.5 -41t-20 -30.5t-37 -12q-12 9 -21.5 24.5l-19 32t-19.5 32t-24 25t-33 10t-45 -12.5q-12 10 -23.5 13.5t-24 2.5t-26.5 -3t-32 -2
q-26 -17 -31 -45t-2 -59.5t5.5 -62t-8.5 -51.5q4 -8 12 -11.5t9 -14.5h81q19 -12 37.5 -11.5t34.5 8.5t28.5 20.5t20.5 23.5q2 6 0 7.5t-5 2.5t-5 2.5t0 7.5q7 10 20 15t27.5 5t26.5 -6.5t17 -18.5q-9 -23 -10 -47t1 -49.5t5.5 -51t3.5 -49.5q-17 -11 -34.5 -21t-46.5 -10
q-4 20 -14 40t-26 33.5t-36.5 17t-44.5 -9.5q-7 10 -18 11.5t-23.5 -1t-24.5 -6.5t-21 -4l-15 -30q2 -18 5 -39t4.5 -43.5t0 -45t-9.5 -44.5q1 -11 10 -18.5t21 -11.5t24.5 -2t20.5 11q10 -5 28.5 -8t38 -3.5t37.5 2t28 9.5q33 -14 55.5 -4.5t39.5 29.5t30 44.5t27 42.5
q22 4 33 -9.5t13.5 -34.5t-1.5 -43t-10 -35q8 -9 10.5 -22t0.5 -26.5t-7.5 -25.5t-13.5 -17q-59 -6 -121.5 -3.5t-125 6t-123.5 4.5t-116 -7q-6 -1 -8 -2.5t-2 -7.5q-10 11 -30.5 11t-30.5 -11q-1 7 -6.5 9t-12 3l-13 2t-8.5 6q-2 12 0.5 19.5t5.5 14.5t5 15.5t-1 21.5
q21 7 39.5 16t41.5 14q-3 17 0.5 32l6.5 28.5t3 26.5t-10 25q8 -3 9 1t1 9t1 9t9 1q-6 13 -9 37t-3.5 49.5t2.5 49t10 36.5q-5 5 -8 15t-3 21t3 20.5t8 14.5q-5 5 -8 15t-3 20.5t3 20.5t8 15q-6 7 -8.5 18t-2.5 24.5t1 27.5t0 26q-8 9 -22 12.5t-28 6.5t-26 8t-15 19
q4 20 14.5 33.5t25 19.5t31.5 3.5t35 -15.5q33 17 72.5 18.5t81.5 -2t83 -5.5t77 9q11 -3 21.5 -6.5t14.5 -13.5zM259 945q3 0 28.5 -13.5t58.5 -33t66.5 -41.5t53.5 -38q9 -15 -3 -28q-5 -5 -9.5 -2.5t-8.5 6t-8 3.5t-10 -10q-9 5 -17 11.5t-16.5 11t-17.5 5.5t-19 -6
q-14 15 -33 19t-39 7t-38.5 10.5t-31.5 30.5q9 19 18 34l15 23.5t11 10.5z" />
    <glyph glyph-name="Agrave" unicode="&#xc0;" horiz-adv-x="758" 
d="M424 742q21 -36 36.5 -77.5t30 -84.5l29.5 -85t36 -78q-5 -9 -9 -18.5t-1 -26.5q6 -3 8 -9.5t12 -5.5q-1 -17 3 -28.5t8.5 -23t8 -24.5t0.5 -31q6 -3 9 -10t5.5 -14t6 -13t10.5 -8q0 -37 12 -61.5t30 -43.5t37 -36.5t32 -41.5q-11 4 -10 -4.5t0 -15.5q-38 3 -72.5 1
t-66.5 -4.5t-63 -3t-62 6.5q-2 12 0.5 20t6 14.5t8 12.5t6.5 14h25q18 16 21 40.5t-3.5 51t-19 51t-23.5 39.5q-12 -1 -25.5 0t-26 1t-23 -2.5t-16.5 -8.5q0 10 -6.5 12t-9.5 8q-11 -2 -22.5 -6.5t-23 -7.5t-22 -3.5t-18.5 7.5q-12 -3 -18.5 -12t-12 -18.5t-12 -18.5
t-18.5 -12q-7 -18 -5 -35.5t3.5 -34t-1 -30.5t-17.5 -26q12 -3 21 -2t17.5 1.5t18.5 0t24 -4.5q-8 -9 -9.5 -25.5t-0.5 -35.5q-26 9 -57 10.5t-63 -0.5t-63.5 -5.5t-59.5 -4.5v81q24 2 44.5 8.5t34 19t20 33t2.5 50.5q31 31 45.5 76.5t25.5 96.5q25 26 36.5 65t14.5 87
q16 18 25.5 43t17.5 50.5t18.5 49.5t29.5 39v30q24 27 81 21zM292 306q20 10 40.5 10.5t41 -2t41 -3.5t39.5 5q-2 30 1.5 54.5t19.5 36.5q-26 2 -40.5 15.5t-22 33.5t-11 44.5t-7.5 48.5h-31q-7 -32 -18 -60l-22 -56.5t-20 -59t-11 -67.5zM460 448q3 1 4.5 7.5t1 13t-4.5 10
t-12 -0.5q-3 -1 -5 -7.5t-1 -13t5 -10t12 0.5zM495 397h10v20h-10v-20zM495 326q17 3 20 20q-17 -3 -20 -20zM495 245q25 4 20 41q-6 -3 -7.5 -0.5t-2.5 5.5t-2.5 5t-7.5 0v-51zM191 73q-2 6 0.5 8t5.5 3.5t5 4t-1 9.5q-5 3 -8.5 8t-7.5 9.5t-9.5 7t-14.5 1.5q-4 -24 6 -34
t24 -17zM294 935q3 0 28.5 -13.5t58.5 -33t66.5 -41.5t53.5 -38q9 -15 -3 -28q-5 -5 -9.5 -2.5t-8.5 6t-8 3.5t-10 -10q-9 5 -17 11.5t-16.5 11t-17.5 5.5t-19 -6q-14 15 -33 19t-39 7t-38.5 10.5t-31.5 30.5q9 19 18 34l15 23.5t11 10.5z" />
    <glyph glyph-name="Yacute" unicode="&#xdd;" horiz-adv-x="858" 
d="M703 761q11 -9 20.5 -9t20.5 9q6 -11 13.5 -14t16 -2.5t18.5 3.5t23 3q8 -38 -3.5 -55t-29.5 -28l-36 -22.5t-22 -36.5q-26 -2 -36.5 -20t-14.5 -41q-26 -17 -44 -42t-27 -59q-29 -27 -50.5 -61t-30.5 -81q-8 -1 -12 -5.5t-8 -9.5t-8.5 -9.5t-12.5 -5.5q-7 -35 -9.5 -74
t5 -72t27.5 -55t58 -22q5 -29 -2.5 -45.5t-22.5 -25.5q-11 2 -23.5 5.5t-26 5t-25.5 -0.5t-21 -10q-19 11 -49 10.5t-61 -1.5t-57 2.5t-36 23.5q-1 11 1 18t6 13l8 11.5t6 13.5q12 2 22 0t13 -10q37 29 46.5 71t1 85.5t-29.5 83t-43 64.5v25q-42 61 -81 124t-71 135
q-25 -3 -42.5 5t-27 23t-10 34t8.5 39q39 -2 74 -4.5t70 -3t71.5 1t78.5 6.5v-41q-20 -8 -37.5 -18t-33.5 -22q-6 -13 -3.5 -22.5t8.5 -17.5t13 -15t12 -16q3 -5 0.5 -12.5t-0.5 -12.5q3 -7 8 -12.5t11 -11l12 -11t10 -11.5q10 -17 14.5 -37.5t15.5 -38.5q6 -11 14 -19.5
t15.5 -18t13.5 -21t8 -27.5h25q6 8 9.5 19.5t7.5 22t10.5 18.5t18.5 11v40q5 0 7.5 2.5l5 5t6 4t11.5 -1.5q3 27 14.5 45.5t24 35.5t22.5 37t10 50q-12 17 -32 26t-39 19v51q29 3 54.5 0.5l47.5 -4.5t42 0t38 14zM513 947q4 0 11 -10.5l15 -23.5q9 -15 18 -34
q-13 -23 -31.5 -30.5t-38.5 -10.5t-39 -7t-33 -19q-10 7 -19 6t-17.5 -5.5t-16.5 -11t-17 -11.5q-6 10 -10 10t-8 -3.5t-8.5 -6t-9.5 2.5q-12 13 -3 28q20 16 53.5 38t66.5 41.5t58.5 33t28.5 13.5z" />
    <glyph glyph-name="Ograve" unicode="&#xd2;" horiz-adv-x="870" 
d="M506 790q11 4 10 -5t0 -16q72 -2 121.5 -23.5t71.5 -72.5q45 -25 73 -68t41.5 -98.5t14.5 -120.5t-8 -133q-6 2 -7.5 0t-2 -5.5t-2.5 -5.5t-8 0q3 -32 -6 -52t-21.5 -36.5l-25 -33t-18.5 -40.5q-36 -18 -76 -40.5t-84.5 -39t-95 -22.5t-108.5 11q-6 2 -8 0t-2.5 -5
t-2.5 -5t-8 0q-17 9 -34 17t-47 3q-23 11 -42.5 26l-38 30.5l-38 30.5t-43.5 25q1 15 -5 23.5t-12.5 16.5t-11 18t-1.5 28q-25 13 -34 37t-10.5 52.5t-1 58.5t-5.5 54q11 122 60 204t148 116q9 24 29.5 32.5t46 11t51.5 2t45 4.5q9 -4 23 -5t28.5 1t27 8t17.5 17zM223 668
v20h-21q-6 -26 21 -20zM243 638q3 -12 -1.5 -17.5t-12 -9t-15.5 -6.5t-12 -8q-5 -6 -6 -14t-3 -16t-6.5 -14t-14.5 -7q-9 -34 -15 -79t-6 -90.5t9 -85.5t32 -64q0 -6 -6 -6.5t-4 -8.5q23 -26 46.5 -50t44.5 -51q13 -4 28 -5.5t29.5 -4t26 -7t18.5 -14.5h162q7 14 22.5 18.5
t37.5 2.5q6 7 12 15.5t12.5 16t15.5 12.5t21 6q3 38 41 41q-2 27 4 55t11 56t5.5 55t-10.5 52q1 3 3.5 4t4.5 2.5t3 4.5t-1 9q-14 32 -25.5 68t-25.5 69q-5 1 -11.5 0.5t-8.5 4.5q-5 18 -16.5 28t-25.5 18.5l-27.5 17t-21.5 22.5q-22 -4 -38 3.5t-31 15.5t-29.5 11
t-33.5 -10q-6 12 -18 12t-25 -3t-23.5 -5t-14.5 6q-12 -7 -22.5 -15.5t-21.5 -16t-25 -13t-32 -5.5zM760 172v20h-21q3 -17 21 -20zM350 985q3 0 28.5 -13.5t58.5 -33t66.5 -41.5t53.5 -38q9 -15 -3 -28q-5 -5 -9.5 -2.5t-8.5 6t-8 3.5t-10 -10q-9 5 -17 11.5t-16.5 11
t-17.5 5.5t-19 -6q-14 15 -33 19t-39 7t-38.5 10.5t-31.5 30.5q9 19 18 34l15 23.5t11 10.5z" />
    <glyph glyph-name="Oacute" unicode="&#xd3;" horiz-adv-x="870" 
d="M506 790q11 4 10 -5t0 -16q72 -2 121.5 -23.5t71.5 -72.5q45 -25 73 -68t41.5 -98.5t14.5 -120.5t-8 -133q-6 2 -7.5 0t-2 -5.5t-2.5 -5.5t-8 0q3 -32 -6 -52t-21.5 -36.5l-25 -33t-18.5 -40.5q-36 -18 -76 -40.5t-84.5 -39t-95 -22.5t-108.5 11q-6 2 -8 0t-2.5 -5
t-2.5 -5t-8 0q-17 9 -34 17t-47 3q-23 11 -42.5 26l-38 30.5l-38 30.5t-43.5 25q1 15 -5 23.5t-12.5 16.5t-11 18t-1.5 28q-25 13 -34 37t-10.5 52.5t-1 58.5t-5.5 54q11 122 60 204t148 116q9 24 29.5 32.5t46 11t51.5 2t45 4.5q9 -4 23 -5t28.5 1t27 8t17.5 17zM223 668
v20h-21q-6 -26 21 -20zM243 638q3 -12 -1.5 -17.5t-12 -9t-15.5 -6.5t-12 -8q-5 -6 -6 -14t-3 -16t-6.5 -14t-14.5 -7q-9 -34 -15 -79t-6 -90.5t9 -85.5t32 -64q0 -6 -6 -6.5t-4 -8.5q23 -26 46.5 -50t44.5 -51q13 -4 28 -5.5t29.5 -4t26 -7t18.5 -14.5h162q7 14 22.5 18.5
t37.5 2.5q6 7 12 15.5t12.5 16t15.5 12.5t21 6q3 38 41 41q-2 27 4 55t11 56t5.5 55t-10.5 52q1 3 3.5 4t4.5 2.5t3 4.5t-1 9q-14 32 -25.5 68t-25.5 69q-5 1 -11.5 0.5t-8.5 4.5q-5 18 -16.5 28t-25.5 18.5l-27.5 17t-21.5 22.5q-22 -4 -38 3.5t-31 15.5t-29.5 11
t-33.5 -10q-6 12 -18 12t-25 -3t-23.5 -5t-14.5 6q-12 -7 -22.5 -15.5t-21.5 -16t-25 -13t-32 -5.5zM760 172v20h-21q3 -17 21 -20zM519 977q4 0 11 -10.5l15 -23.5q9 -15 18 -34q-13 -23 -31.5 -30.5t-38.5 -10.5t-39 -7t-33 -19q-10 7 -19 6t-17.5 -5.5t-16.5 -11
t-17 -11.5q-6 10 -10 10t-8 -3.5t-8.5 -6t-9.5 2.5q-12 13 -3 28q20 16 53.5 38t66.5 41.5t58.5 33t28.5 13.5z" />
    <glyph glyph-name="Uacute" unicode="&#xda;" horiz-adv-x="780" 
d="M720 739q5 0 7.5 -2.5l5 -5t6 -4t11.5 1.5q1 -18 -6 -31.5t-17.5 -25t-22 -22t-18.5 -22.5t-7.5 -26.5t11.5 -34.5q-6 -5 -8.5 -15t-2.5 -21t2.5 -20.5t8.5 -14.5q-9 -22 -11.5 -51t-1 -60t5.5 -60.5l7 -51.5q-11 -12 -14.5 -24t-3.5 -26t2.5 -29t4.5 -33
q-20 -9 -29 -28.5t-17 -39.5t-20.5 -35.5t-39.5 -17.5q-20 -21 -49.5 -32t-72.5 -9q-2 -5 -6 -7t-8.5 -3.5t-9 -3.5t-6.5 -6h-25t-15 10q-6 2 -9 1t-4.5 -3t-3 -4.5t-4.5 -3.5q-15 5 -23.5 8.5t-21.5 -8.5q-15 4 -28 10.5l-25.5 13t-26.5 11.5t-32 6v20q-20 1 -29 12t-15 25
t-13.5 26.5t-23.5 17.5q-3 48 -12.5 89t-17.5 83q11 10 11.5 30.5t-1.5 43t-1.5 43t11.5 30.5q-6 4 -9 18.5t-3.5 30t2.5 29.5t10 18q-6 53 -27.5 89.5t-63.5 52.5q-4 32 10 51q16 3 30 0t26 -6.5t23 -3.5t22 10q22 -10 39.5 -10.5t34.5 2.5l35.5 6t42.5 2q-2 -17 1 -29.5
t9 -21.5q-5 -14 -16.5 -21.5t-24 -14t-23.5 -14.5t-17 -21q2 -23 1 -48.5l-2 -51t1 -48.5t10 -39q-11 -30 -9.5 -60.5t7 -62l11 -64.5t2.5 -67q11 -21 26.5 -36.5t23.5 -39.5h31q-1 -8 3.5 -11.5t10 -5t10.5 -4t6 -9.5h81q29 3 48.5 15t34.5 28.5t28.5 35t30.5 33.5
q-2 19 3 37l10 35.5t6 33.5t-9 30q7 14 10 34t-10 32q5 10 10.5 24t8.5 30t1.5 31t-10.5 27q12 0 10.5 3t-5 6.5t-5 7t9.5 3.5q-9 18 -10.5 44.5t-6 50t-18 38t-46.5 9.5q-3 17 -20 20q-1 19 0.5 35.5t9.5 25.5q30 3 59 -1t56.5 -7t52 -0.5t45.5 18.5zM474 937q4 0 11 -10.5
l15 -23.5q9 -15 18 -34q-13 -23 -31.5 -30.5t-38.5 -10.5t-39 -7t-33 -19q-10 7 -19 6t-17.5 -5.5t-16.5 -11t-17 -11.5q-6 10 -10 10t-8 -3.5t-8.5 -6t-9.5 2.5q-12 13 -3 28q20 16 53.5 38t66.5 41.5t58.5 33t28.5 13.5z" />
    <glyph glyph-name="igrave" unicode="&#xec;" horiz-adv-x="251" 
d="M185 473q-1 -48 -5 -93.5t-15 -83.5q9 -17 8.5 -41l-1 -48.5t3 -48t19.5 -40.5q1 -6 -1 -8t-5 -3.5t-5 -4t1 -9.5q15 -3 27 -14t19 -26t6.5 -32.5t-11.5 -33.5q-12 -1 -21.5 2l-17.5 5.5t-16 2t-16 -9.5q3 8 -1 9t-9 1t-9 1t-1 9q-10 -10 -20.5 -10.5t-21.5 2.5
l-23.5 6.5t-26.5 1.5q-2 16 1 27.5t9 19t14.5 13t16.5 11.5q-2 19 0.5 34t19.5 17q-10 48 -10 104v113q-13 18 -29 32.5l-32 28.5q7 19 24.5 33.5t40 23.5t46 11.5t41.5 -2.5zM41 695q3 0 28.5 -13.5t58.5 -33t66.5 -41.5t53.5 -38q9 -15 -3 -28q-5 -5 -9.5 -2.5t-8.5 6
t-8 3.5t-10 -10q-9 5 -17 11.5t-16.5 11t-17.5 5.5t-19 -6q-14 15 -33 19t-39 7t-38.5 10.5t-31.5 30.5q9 19 18 34l15 23.5t11 10.5z" />
    <glyph glyph-name="Idieresis" unicode="&#xcf;" horiz-adv-x="428" 
d="M70 736q18 1 38 -3l39 -7.5t36 -4.5t29 5q10 -8 26.5 -7t34.5 5l36 8t33 2.5t24 -12.5t8 -36q-15 -14 -34.5 -22t-37 -18.5t-29.5 -26.5t-11 -45q-6 1 -8 -2.5t-3 -8.5t-2 -9.5t-7 -4.5q6 -3 8.5 -9.5t11.5 -5.5q-5 -17 -4 -30.5t2.5 -25.5t1 -24.5t-9.5 -26.5
q7 -29 9 -59.5t1 -61.5t-4 -59.5t-6 -52.5q7 -21 11.5 -45t13.5 -43.5t26 -31t50 -6.5q9 -9 10.5 -25.5t0.5 -35.5q-7 -2 -17 -1l-19.5 2t-16.5 -1t-8 -10q-52 4 -110.5 4.5t-112.5 -4.5q-13 3 -20 11.5t-9 20t0.5 24.5t8.5 25q11 -3 17 -1t11 5t11 5.5t16 0.5
q18 22 27 47.5t12.5 51.5t2 51t-5.5 48q7 27 6.5 58.5t-3.5 66t-5 71t2 72.5q10 -1 12 5.5t8 9.5q-15 9 -24.5 22.5l-19.5 27t-23 24t-34 12.5q-5 11 -10.5 20.5t-10.5 20.5q0 7 4.5 10.5l9 7t7 8t0.5 14.5zM426 880q-4 -14 -10 -22t-13.5 -15.5t-16 -17t-18.5 -24.5h-50
q-12 14 -23 25t-35 25q-3 20 2 31.5t7 25.5q17 4 25 16t16 26q17 6 29 6t29 -6q13 -19 28.5 -35t29.5 -35zM169 867q-6 -3 -16.5 -11t-20 -17.5t-16 -20t-5.5 -17.5q-22 1 -38 9t-28.5 19t-22 25.5l-18.5 29.5q14 21 33 37t33 37q21 0 33.5 -8t22.5 -18.5t19.5 -21.5
t23.5 -18v-25z" />
    <glyph glyph-name="idieresis" unicode="&#xef;" horiz-adv-x="251" 
d="M185 473q-1 -48 -5 -93.5t-15 -83.5q9 -17 8.5 -41l-1 -48.5t3 -48t19.5 -40.5q1 -6 -1 -8t-5 -3.5t-5 -4t1 -9.5q15 -3 27 -14t19 -26t6.5 -32.5t-11.5 -33.5q-12 -1 -21.5 2l-17.5 5.5t-16 2t-16 -9.5q3 8 -1 9t-9 1t-9 1t-1 9q-10 -10 -20.5 -10.5t-21.5 2.5
l-23.5 6.5t-26.5 1.5q-2 16 1 27.5t9 19t14.5 13t16.5 11.5q-2 19 0.5 34t19.5 17q-10 48 -10 104v113q-13 18 -29 32.5l-32 28.5q7 19 24.5 33.5t40 23.5t46 11.5t41.5 -2.5zM337 650q-4 -14 -10 -22t-13.5 -15.5t-16 -17t-18.5 -24.5h-50q-12 14 -23 25t-35 25
q-3 20 2 31.5t7 25.5q17 4 25 16t16 26q17 6 29 6t29 -6q13 -19 28.5 -35t29.5 -35zM80 637q-6 -3 -16.5 -11t-20 -17.5t-16 -20t-5.5 -17.5q-22 1 -38 9t-28.5 19t-22 25.5l-18.5 29.5q14 21 33 37t33 37q21 0 33.5 -8t22.5 -18.5t19.5 -21.5t23.5 -18v-25z" />
    <glyph glyph-name="exclamdown" unicode="&#xa1;" horiz-adv-x="375" 
d="M209 526.008q14 25.998 32.5 46.4971q18.5 20.498 38.5 39.4971q-1 21.999 -10.5 34.498t-21.5 22.499q-12 9.99902 -23.5 20.998q-11.5 11 -15.5 28.999q-20 -16.999 -40 0q-16 -3 -26 -12q-10 -8.99902 -19 -18.999q-9 -9.99902 -19.5 -18.498q-10.5 -8.5 -26.5 -11.5
q0 -8.99902 2.5 -15.499l5 -12.499t4 -13.499q1.5 -7.5 -1.5 -19.499q6 -6.99902 16 -11.499t18.5 -9.5q8.5 -4.99902 13.5 -13.999q5 -8.99902 2 -25.998q18 -2 32.5 -8q14.5 -5.99902 38.5 -1.99902zM118 -71.9561q8 6 23.5 8.99902q15.5 3 32.5 3t32.5 -3
q15.5 -2.99902 23.5 -8.99902q-2 6 -0.5 7.99902q1.5 2 5 2.5t8 0t7.5 0.5q1 4 0 9.5q-1 5.49902 -1 10.999t2 8.49902q2 3 9 1q-11 37.998 -17 68.9961t7 62.9961q-7 10.999 -9.5 31.998t-3 42.9971q-0.5 21.999 0.5 40.998t2 24.998q-14 21.999 -17.5 53.9971t-4 66.9961
t-1.5 69.9951q-1 34.998 -8 62.9961q-9 -0.999023 -14 1.5q-5 2.5 -9.5 5.5t-10.5 4.5t-16 -1.5q-14 -44.9971 -19 -98.4941t-8 -108.493q-3 -54.9971 -7.5 -108.993q-4.5 -53.9971 -16.5 -99.9941q13 -15.999 11.5 -37.498t-6 -43.4971q-4.5 -21.999 -6 -42.9971
q-1.5 -20.999 10.5 -37.998z" />
    <glyph glyph-name="questiondown" unicode="&#xbf;" horiz-adv-x="571" 
d="M142 -44.9531q35 -2 60.5 5.49902q25.5 7.5 48 17.999l44.5 21.499t49 15.999q-6 25.998 21 19.999q-4 11.999 0.5 15.999t9.5 8.99902q19 7 32 19.999t24 27.998t21 30.998t24 27.998q1 13 0 27.499t-1 28.498t2 25.998q2 12 9 18.999q-5 11.999 -11.5 21.999
q-6.5 9.99902 -12.5 20.499q-6 10.499 -10.5 21.998t-5.5 26.498q-19 8 -34 18.499q-15 10.5 -32 19.499q-17 9 -38.5 13.499q-21.5 4.5 -52.5 -0.5q-11 11 -12.5 21.499t1 22.499l5.5 25.998t1 30.998q-11 7.99902 -26 10.499t-25 10.5q2 -6 0.5 -8t-5 -2.5t-8 0t-7.5 -0.5
q2 -25.998 1 -48.9971q-1 -22.998 -3.5 -44.4971l-5 -42.9971t-2.5 -45.4971q11 -10 23 -9.5t24.5 3.5l27 6.5t31.5 -0.5q6 -3 10 -8.5q4 -5.49902 8.5 -10.999t10.5 -8.49902q6 -3 17 -2q13 -37.998 10 -96.9941q-4 -14.999 -12.5 -24.499q-8.5 -9.49902 -18 -18.499
q-9.5 -8.99902 -18 -18.998q-8.5 -10 -12.5 -23.999q-9 -1 -16.5 -3.5t-15.5 -4.49902q-8 -2 -17.5 -3t-21.5 1q-3 -9 -12 -15.499q-9 -6.5 -20 -9.5t-21.5 -2t-17.5 7q-17 -1 -22.5 -13.499t-7 -28.498t-2.5 -32.498t-9 -26.499q11 -4.99902 15 -15.999
q4 -10.999 6 -24.998zM273 563.01q8 29.998 32 44.4971t50 26.498q2 11 1 18.499q-1 7.5 -3.5 13.999q-2.5 6.5 -5.5 12.999q-3 6.5 -3 15.5q-26 1.99902 -35.5 19.498t-14.5 40.498q-18 5 -36.5 9.49902q-18.5 4.5 -44.5 1.5q-10 -8.99902 -17 -20.999
q-7 -11.999 -13.5 -24.998t-13.5 -24.998q-7 -12 -17 -20.999q6 -8 9 -20.499t1 -29.498q5 0 7.5 -2.5l5 -5q2.5 -2.49902 6 -3.99902t11.5 1.5q5 -28.999 24.5 -42.498t56.5 -8.49902z" />
    <glyph glyph-name="cent" unicode="&#xa2;" horiz-adv-x="451" 
d="M396 102q-2 -8 4 -8.5t6 -6.5q-3 -20 -13.5 -32.5t-23.5 -22l-26.5 -19t-22.5 -22.5q-6 1 -13 4.5t-14 5t-13.5 0t-10.5 -9.5q-8 -2 -15.5 -2.5t-13.5 -0.5q-1 -1 -1.5 -2t-1.5 -2q6 -8 4 -20.5t4 -20.5q-6 -11 -16 -18t-29 -2q2 5 -0.5 6t-5.5 2q-2 11 2.5 15t7.5 9
q-11 18 -6 45q-12 5 -25 9t-31 2q-5 6 -7 13.5t-5.5 14t-9.5 10.5t-18 3q-3 8 -5 17.5t-4.5 18.5t-7.5 15.5t-14 9.5q-5 27 -9 51.5t-5.5 48.5t-0.5 49t5 54l25.5 30.5t15.5 40.5h20v30q18 3 28.5 13.5t22 20.5t26 16t40.5 1q4 0 4 4t1 6q5 -4 10.5 -5t11.5 -1q1 15 3 27
q4 7 6.5 16.5t7 16t12 9.5t22.5 -3q6 -29 3 -65q9 -3 15 -15q10 10 18 9t14.5 -6.5t13.5 -12.5t15 -10q5 -28 -2 -43t-18 -28q-22 -4 -38 -2t-30 6l-15 -84t-9 -76q-5 -8 -9 -21t-6.5 -28t-2.5 -29t4 -22q-10 -12 -13 -29q32 -5 68 0.5t71 19.5zM162 138q11 -16 24.5 -26.5
t29.5 -18.5q-2 10 -4 16q8 22 12.5 46t7 49t4 48.5t3.5 43.5q5 20 9 43l8 47q-14 3 -38 1q-16 -16 -33 -30.5t-43 -20.5q0 -14 0.5 -28t-10.5 -18q6 -3 9 -15t3 -25.5t-3 -25.5t-9 -15q9 -16 19 -31t11 -40z" />
    <glyph glyph-name="numbersign" unicode="#" horiz-adv-x="617" 
d="M543 445q-9 -19 -9.5 -21.5t0 -2t0 -2t-9.5 -21.5q-10 1 -31 0.5t-46 -2.5q-9 -21 -25 -43q7 -5 7.5 -11t-1.5 -13.5t-5.5 -15t-4.5 -14.5q-10 -12 -15 -20t-7 -15.5t-3.5 -15.5t-5.5 -21q-2 -1 -5 -6q14 1 28.5 4t30.5 11q4 -5 19.5 -3t26.5 4q3 -6 -0.5 -17.5
t-8.5 -24.5l-54 -8.5t-54 -9.5q-5 -21 -9.5 -47.5t-9.5 -52.5t-11 -48.5t-12 -35.5h-57q1 11 2.5 17.5t3 11.5t2.5 12t2 19q4 19 9.5 32l10 24.5t7 22t0.5 25.5l5.5 9.5t4.5 9.5q-23 0 -46 1.5t-46 0.5q-3 -19 -12 -44.5l-18 -51t-16.5 -49.5t-7.5 -40h-57q-7 10 -3.5 15
t9.5 9t11.5 9.5t2.5 17.5q11 13 15.5 27t5.5 28.5t-0.5 28.5t-3.5 29q3 7 8 13q-18 0 -27.5 1.5l-16 2.5t-14 0.5t-20.5 -3.5q-5 -2 -9 -0.5t-7.5 3t-7 2.5t-9.5 -1q9 19 9.5 21.5t0 2.5t0 2.5t9.5 21.5q13 -2 26 -0.5l25 3t23 1.5t21 -4q9 6 27 3q2 14 -3 29q14 7 15.5 24
t-9.5 27q12 11 14.5 22.5t2.5 23.5t0.5 24t6.5 23q-13 -1 -26 -4t-29 -11q-3 5 -18 3t-26 -4q-3 6 1 17.5t9 24.5l24.5 3.5t19.5 3t19 3t22 3.5l14 2q0 9 4 17t7 16t3.5 16.5t-6.5 17.5q19 13 24.5 28.5t6.5 31t2.5 29.5t11.5 23l70 2q-6 -17 -8.5 -20.5t-3.5 -4.5t-1.5 -5
t-1.5 -21q-16 -13 -22 -21t4 -23q-14 -21 -19.5 -41.5t-8.5 -40.5l46 -2t46 0q0 15 9.5 28.5t13.5 36.5q15 21 17.5 36.5t2 27t0 20.5t10.5 18l72 12q-6 -17 -8.5 -20.5t-3.5 -4.5t-1.5 -5t-1.5 -21q-9 -14 -11.5 -22.5l-6.5 -21.5q-4 -20 -5.5 -39.5t-5.5 -37.5q7 -1 12 -2
t10 -1.5t11 0.5t16 3q5 1 8.5 0t7 -2.5t7 -2.5t9.5 1zM96 192q6 2 13 -0.5t9 8.5h-19q-1 -2 -1.5 -4t-1.5 -4zM200 230q10 -3 14 -8h1q2 2 7 4q0 3 -0.5 7t-5.5 7q-4 -2 -8 -4.5t-8 -5.5zM343 255q14 7 11 20t-5 31q7 16 9.5 29t3 23t1 18.5t4.5 16.5q-18 0 -29.5 1t-12.5 4
q-12 -2 -22.5 -2.5t-20.5 -0.5q-4 -14 -9 -28.5t-16 -28.5q7 -5 7.5 -8.5t0 -7t-0.5 -7t7 -7.5q-10 -12 -16 -21.5t-10 -18.5t-7 -18.5l-7 -21.5q11 1 22.5 -1.5t19.5 -4.5q17 3 32 3t29 -1q3 12 9 31z" />
    <glyph glyph-name="circumflex" unicode="&#x2c6;" horiz-adv-x="630" 
d="M489 634q2 -8 2.5 -11t0 -5t-1.5 -3.5t-2 -5.5q-13 -2 -18 -1t-9 4.5t-9.5 9t-19.5 11.5q0 2 -4 5t-9 6t-9.5 5t-6.5 2q-30 9 -50 18.5t-41 24.5q-44 -32 -102 -51q-4 -1 -3 -5.5t0 -9.5q-12 1 -19 -3t-12.5 -9.5t-12.5 -9.5t-20 -2q1 6 0 8t-2 3.5t-1.5 3.5t1.5 10
q9 9 17 20.5t17.5 22t22 19t32.5 10.5q6 1 3.5 9t-0.5 13q14 3 27 16t26 24v1q11 15 25 15q7 2 13.5 -0.5t14.5 -10.5q0 -1 -1 -1q13 -10 26.5 -22.5t28.5 -20.5q2 -5 5.5 -9.5t8.5 -5.5q16 -8 27.5 -17.5t20.5 -19.5t16.5 -20t17.5 -18z" />
    <glyph glyph-name="ucircumflex" unicode="&#xfb;" horiz-adv-x="525" 
d="M185 479q9 -24 6.5 -56t-7.5 -66.5t-7.5 -67.5t8.5 -58q-10 -10 -9.5 -21.5t3 -23t3.5 -21t-7 -15.5q16 -40 55 -57.5t92 1.5q20 15 34.5 36t31.5 40q0 9 -3.5 20.5t-6 22.5t-1.5 21t11 17q-8 4 -10 13.5t-1.5 21t1.5 24t0 22.5q-4 13 -12 21.5t-18 15t-21 12t-20 12.5
q22 40 65.5 58t106.5 18q4 -16 1.5 -29t-5.5 -24t-3.5 -20.5t7.5 -17.5q-4 -12 -8 -26.5t-6 -29t-1.5 -28t5.5 -23.5q-6 -21 -10 -52t-1.5 -61t12 -53.5t29.5 -30.5q4 -23 -2 -35t-17 -19.5t-24 -12.5t-23 -14q-11 0 -19 2.5l-16 5t-18 4t-23 -1.5q-3 12 1.5 16t9.5 9
q-3 4 -7.5 5.5t-3.5 9.5q-32 -11 -60.5 -25t-60.5 -25q-13 11 -22 7.5t-24 -7.5q-37 3 -55 24.5t-27 52.5t-12.5 67t-11.5 68q7 17 10 41.5t1.5 49.5t-7 47.5t-14.5 34.5q-17 -3 -26.5 1.5t-14.5 13.5q25 35 61.5 57t90.5 29zM437 543q2 -8 2.5 -11t0 -5t-1.5 -3.5t-2 -5.5
q-13 -2 -18 -1t-9 4.5t-9.5 9t-19.5 11.5q0 2 -4 5t-9 6t-9.5 5t-6.5 2q-30 9 -50 18.5t-41 24.5q-44 -32 -102 -51q-4 -1 -3 -5.5t0 -9.5q-12 1 -19 -3t-12.5 -9.5t-12.5 -9.5t-20 -2q1 6 0 8t-2 3.5t-1.5 3.5t1.5 10q9 9 17 20.5t17.5 22t22 19t32.5 10.5q6 1 3.5 9
t-0.5 13q14 3 27 16t26 24v1q11 15 25 15q7 2 13.5 -0.5t14.5 -10.5q0 -1 -1 -1q13 -10 26.5 -22.5t28.5 -20.5q2 -5 5.5 -9.5t8.5 -5.5q16 -8 27.5 -17.5t20.5 -19.5t16.5 -20t17.5 -18z" />
    <glyph glyph-name="Ucircumflex" unicode="&#xdb;" horiz-adv-x="780" 
d="M720 739q5 0 7.5 -2.5l5 -5t6 -4t11.5 1.5q1 -18 -6 -31.5t-17.5 -25t-22 -22t-18.5 -22.5t-7.5 -26.5t11.5 -34.5q-6 -5 -8.5 -15t-2.5 -21t2.5 -20.5t8.5 -14.5q-9 -22 -11.5 -51t-1 -60t5.5 -60.5l7 -51.5q-11 -12 -14.5 -24t-3.5 -26t2.5 -29t4.5 -33
q-20 -9 -29 -28.5t-17 -39.5t-20.5 -35.5t-39.5 -17.5q-20 -21 -49.5 -32t-72.5 -9q-2 -5 -6 -7t-8.5 -3.5t-9 -3.5t-6.5 -6h-25t-15 10q-6 2 -9 1t-4.5 -3t-3 -4.5t-4.5 -3.5q-15 5 -23.5 8.5t-21.5 -8.5q-15 4 -28 10.5l-25.5 13t-26.5 11.5t-32 6v20q-20 1 -29 12t-15 25
t-13.5 26.5t-23.5 17.5q-3 48 -12.5 89t-17.5 83q11 10 11.5 30.5t-1.5 43t-1.5 43t11.5 30.5q-6 4 -9 18.5t-3.5 30t2.5 29.5t10 18q-6 53 -27.5 89.5t-63.5 52.5q-4 32 10 51q16 3 30 0t26 -6.5t23 -3.5t22 10q22 -10 39.5 -10.5t34.5 2.5l35.5 6t42.5 2q-2 -17 1 -29.5
t9 -21.5q-5 -14 -16.5 -21.5t-24 -14t-23.5 -14.5t-17 -21q2 -23 1 -48.5l-2 -51t1 -48.5t10 -39q-11 -30 -9.5 -60.5t7 -62l11 -64.5t2.5 -67q11 -21 26.5 -36.5t23.5 -39.5h31q-1 -8 3.5 -11.5t10 -5t10.5 -4t6 -9.5h81q29 3 48.5 15t34.5 28.5t28.5 35t30.5 33.5
q-2 19 3 37l10 35.5t6 33.5t-9 30q7 14 10 34t-10 32q5 10 10.5 24t8.5 30t1.5 31t-10.5 27q12 0 10.5 3t-5 6.5t-5 7t9.5 3.5q-9 18 -10.5 44.5t-6 50t-18 38t-46.5 9.5q-3 17 -20 20q-1 19 0.5 35.5t9.5 25.5q30 3 59 -1t56.5 -7t52 -0.5t45.5 18.5zM563 834q2 -8 2.5 -11
t0 -5t-1.5 -3.5t-2 -5.5q-13 -2 -18 -1t-9 4.5t-9.5 9t-19.5 11.5q0 2 -4 5t-9 6t-9.5 5t-6.5 2q-30 9 -50 18.5t-41 24.5q-44 -32 -102 -51q-4 -1 -3 -5.5t0 -9.5q-12 1 -19 -3t-12.5 -9.5t-12.5 -9.5t-20 -2q1 6 0 8t-2 3.5t-1.5 3.5t1.5 10q9 9 17 20.5t17.5 22t22 19
t32.5 10.5q6 1 3.5 9t-0.5 13q14 3 27 16t26 24v1q11 15 25 15q7 2 13.5 -0.5t14.5 -10.5q0 -1 -1 -1q13 -10 26.5 -22.5t28.5 -20.5q2 -5 5.5 -9.5t8.5 -5.5q16 -8 27.5 -17.5t20.5 -19.5t16.5 -20t17.5 -18z" />
    <glyph glyph-name="Ocircumflex" unicode="&#xd4;" horiz-adv-x="870" 
d="M506 790q11 4 10 -5t0 -16q72 -2 121.5 -23.5t71.5 -72.5q45 -25 73 -68t41.5 -98.5t14.5 -120.5t-8 -133q-6 2 -7.5 0t-2 -5.5t-2.5 -5.5t-8 0q3 -32 -6 -52t-21.5 -36.5l-25 -33t-18.5 -40.5q-36 -18 -76 -40.5t-84.5 -39t-95 -22.5t-108.5 11q-6 2 -8 0t-2.5 -5
t-2.5 -5t-8 0q-17 9 -34 17t-47 3q-23 11 -42.5 26l-38 30.5l-38 30.5t-43.5 25q1 15 -5 23.5t-12.5 16.5t-11 18t-1.5 28q-25 13 -34 37t-10.5 52.5t-1 58.5t-5.5 54q11 122 60 204t148 116q9 24 29.5 32.5t46 11t51.5 2t45 4.5q9 -4 23 -5t28.5 1t27 8t17.5 17zM223 668
v20h-21q-6 -26 21 -20zM243 638q3 -12 -1.5 -17.5t-12 -9t-15.5 -6.5t-12 -8q-5 -6 -6 -14t-3 -16t-6.5 -14t-14.5 -7q-9 -34 -15 -79t-6 -90.5t9 -85.5t32 -64q0 -6 -6 -6.5t-4 -8.5q23 -26 46.5 -50t44.5 -51q13 -4 28 -5.5t29.5 -4t26 -7t18.5 -14.5h162q7 14 22.5 18.5
t37.5 2.5q6 7 12 15.5t12.5 16t15.5 12.5t21 6q3 38 41 41q-2 27 4 55t11 56t5.5 55t-10.5 52q1 3 3.5 4t4.5 2.5t3 4.5t-1 9q-14 32 -25.5 68t-25.5 69q-5 1 -11.5 0.5t-8.5 4.5q-5 18 -16.5 28t-25.5 18.5l-27.5 17t-21.5 22.5q-22 -4 -38 3.5t-31 15.5t-29.5 11
t-33.5 -10q-6 12 -18 12t-25 -3t-23.5 -5t-14.5 6q-12 -7 -22.5 -15.5t-21.5 -16t-25 -13t-32 -5.5zM760 172v20h-21q3 -17 21 -20zM608 834q2 -8 2.5 -11t0 -5t-1.5 -3.5t-2 -5.5q-13 -2 -18 -1t-9 4.5t-9.5 9t-19.5 11.5q0 2 -4 5t-9 6t-9.5 5t-6.5 2q-30 9 -50 18.5
t-41 24.5q-44 -32 -102 -51q-4 -1 -3 -5.5t0 -9.5q-12 1 -19 -3t-12.5 -9.5t-12.5 -9.5t-20 -2q1 6 0 8t-2 3.5t-1.5 3.5t1.5 10q9 9 17 20.5t17.5 22t22 19t32.5 10.5q6 1 3.5 9t-0.5 13q14 3 27 16t26 24v1q11 15 25 15q7 2 13.5 -0.5t14.5 -10.5q0 -1 -1 -1
q13 -10 26.5 -22.5t28.5 -20.5q2 -5 5.5 -9.5t8.5 -5.5q16 -8 27.5 -17.5t20.5 -19.5t16.5 -20t17.5 -18z" />
    <glyph glyph-name="ocircumflex" unicode="&#xf4;" horiz-adv-x="550" 
d="M301 -15q-7 8 -19.5 10t-26 3t-25 4t-15.5 14q-8 2 -13 1t-8.5 -3t-6.5 -4.5t-8 -3.5q-35 19 -64.5 50t-49 71t-25.5 88.5t7 104.5q6 -3 8 -0.5t2.5 5.5t2.5 5t8 0q15 130 162 132q3 10 9 10.5t12.5 -2.5l14 -6.5t14.5 -1.5q52 10 92.5 -5t69.5 -46.5t47 -75t24 -91.5
q-8 -110 -60 -175.5t-152 -83.5zM189 381q-5 -9 -9 -19t-9.5 -18.5t-12.5 -15t-19 -8.5q1 -31 2.5 -62t7 -57.5t17 -47.5t33.5 -31q9 -16 27.5 -26.5t40.5 -15.5t44.5 -3.5t39.5 10.5q12 6 18.5 15.5t12.5 19.5t12.5 17t17.5 9q3 22 1.5 40t-4.5 35t-5.5 34t-1.5 37
q-7 21 -19.5 35.5t-28 26.5t-32 22.5t-31.5 22.5q-17 1 -27.5 -3.5t-21 -9.5t-22.5 -8t-31 1zM450 521q2 -8 2.5 -11t0 -5t-1.5 -3.5t-2 -5.5q-13 -2 -18 -1t-9 4.5t-9.5 9t-19.5 11.5q0 2 -4 5t-9 6t-9.5 5t-6.5 2q-30 9 -50 18.5t-41 24.5q-44 -32 -102 -51q-4 -1 -3 -5.5
t0 -9.5q-12 1 -19 -3t-12.5 -9.5t-12.5 -9.5t-20 -2q1 6 0 8t-2 3.5t-1.5 3.5t1.5 10q9 9 17 20.5t17.5 22t22 19t32.5 10.5q6 1 3.5 9t-0.5 13q14 3 27 16t26 24v1q11 15 25 15q7 2 13.5 -0.5t14.5 -10.5q0 -1 -1 -1q13 -10 26.5 -22.5t28.5 -20.5q2 -5 5.5 -9.5t8.5 -5.5
q16 -8 27.5 -17.5t20.5 -19.5t16.5 -20t17.5 -18z" />
    <glyph glyph-name="icircumflex" unicode="&#xee;" horiz-adv-x="251" 
d="M185 473q-1 -48 -5 -93.5t-15 -83.5q9 -17 8.5 -41l-1 -48.5t3 -48t19.5 -40.5q1 -6 -1 -8t-5 -3.5t-5 -4t1 -9.5q15 -3 27 -14t19 -26t6.5 -32.5t-11.5 -33.5q-12 -1 -21.5 2l-17.5 5.5t-16 2t-16 -9.5q3 8 -1 9t-9 1t-9 1t-1 9q-10 -10 -20.5 -10.5t-21.5 2.5
l-23.5 6.5t-26.5 1.5q-2 16 1 27.5t9 19t14.5 13t16.5 11.5q-2 19 0.5 34t19.5 17q-10 48 -10 104v113q-13 18 -29 32.5l-32 28.5q7 19 24.5 33.5t40 23.5t46 11.5t41.5 -2.5zM299 554q2 -8 2.5 -11t0 -5t-1.5 -3.5t-2 -5.5q-13 -2 -18 -1t-9 4.5t-9.5 9t-19.5 11.5
q0 2 -4 5t-9 6t-9.5 5t-6.5 2q-30 9 -50 18.5t-41 24.5q-44 -32 -102 -51q-4 -1 -3 -5.5t0 -9.5q-12 1 -19 -3t-12.5 -9.5t-12.5 -9.5t-20 -2q1 6 0 8t-2 3.5t-1.5 3.5t1.5 10q9 9 17 20.5t17.5 22t22 19t32.5 10.5q6 1 3.5 9t-0.5 13q14 3 27 16t26 24v1q11 15 25 15
q7 2 13.5 -0.5t14.5 -10.5q0 -1 -1 -1q13 -10 26.5 -22.5t28.5 -20.5q2 -5 5.5 -9.5t8.5 -5.5q16 -8 27.5 -17.5t20.5 -19.5t16.5 -20t17.5 -18z" />
    <glyph glyph-name="Icircumflex" unicode="&#xce;" horiz-adv-x="428" 
d="M70 736q18 1 38 -3l39 -7.5t36 -4.5t29 5q10 -8 26.5 -7t34.5 5l36 8t33 2.5t24 -12.5t8 -36q-15 -14 -34.5 -22t-37 -18.5t-29.5 -26.5t-11 -45q-6 1 -8 -2.5t-3 -8.5t-2 -9.5t-7 -4.5q6 -3 8.5 -9.5t11.5 -5.5q-5 -17 -4 -30.5t2.5 -25.5t1 -24.5t-9.5 -26.5
q7 -29 9 -59.5t1 -61.5t-4 -59.5t-6 -52.5q7 -21 11.5 -45t13.5 -43.5t26 -31t50 -6.5q9 -9 10.5 -25.5t0.5 -35.5q-7 -2 -17 -1l-19.5 2t-16.5 -1t-8 -10q-52 4 -110.5 4.5t-112.5 -4.5q-13 3 -20 11.5t-9 20t0.5 24.5t8.5 25q11 -3 17 -1t11 5t11 5.5t16 0.5
q18 22 27 47.5t12.5 51.5t2 51t-5.5 48q7 27 6.5 58.5t-3.5 66t-5 71t2 72.5q10 -1 12 5.5t8 9.5q-15 9 -24.5 22.5l-19.5 27t-23 24t-34 12.5q-5 11 -10.5 20.5t-10.5 20.5q0 7 4.5 10.5l9 7t7 8t0.5 14.5zM389 834q2 -8 2.5 -11t0 -5t-1.5 -3.5t-2 -5.5q-13 -2 -18 -1
t-9 4.5t-9.5 9t-19.5 11.5q0 2 -4 5t-9 6t-9.5 5t-6.5 2q-30 9 -50 18.5t-41 24.5q-44 -32 -102 -51q-4 -1 -3 -5.5t0 -9.5q-12 1 -19 -3t-12.5 -9.5t-12.5 -9.5t-20 -2q1 6 0 8t-2 3.5t-1.5 3.5t1.5 10q9 9 17 20.5t17.5 22t22 19t32.5 10.5q6 1 3.5 9t-0.5 13q14 3 27 16
t26 24v1q11 15 25 15q7 2 13.5 -0.5t14.5 -10.5q0 -1 -1 -1q13 -10 26.5 -22.5t28.5 -20.5q2 -5 5.5 -9.5t8.5 -5.5q16 -8 27.5 -17.5t20.5 -19.5t16.5 -20t17.5 -18z" />
    <glyph glyph-name="ecircumflex" unicode="&#xea;" horiz-adv-x="452" 
d="M408 276q-9 -5 -19 -8.5t-17 -11.5q-26 3 -49.5 -1.5t-48 -10t-52.5 -9t-63 0.5q-7 -3 -10 -9t-5.5 -13t-6.5 -12.5t-13 -6.5q6 -39 25.5 -65t45.5 -46q30 -1 59.5 -1.5t53.5 4.5t40 18t19 40q8 -3 11.5 -1.5t6 4l5 5t8.5 2.5q14 -23 11.5 -40.5t-12 -33t-22 -29.5
t-18.5 -29l-28.5 -14t-35 -13.5t-37.5 -5t-36 12.5q-8 2 -11 -0.5t-5.5 -5.5t-6 -5t-12.5 1q-15 7 -30 12.5t-28.5 12t-24.5 15t-18 21.5q-3 5 -0.5 12.5t0.5 12.5q-5 7 -11 12.5t-12 12t-11 15t-7 21.5q-3 16 -1.5 34t2.5 36.5t-0.5 38t-10.5 38.5q2 13 7 29.5l9.5 32
t6 28.5t-2.5 21q9 2 18.5 4.5t17 6.5t11.5 11t4 19q12 -8 23 -4.5t20.5 11t16.5 15t11 8.5q12 3 30 2.5t35.5 -4.5t30.5 -11.5t15 -16.5h41q34 -28 52 -70.5t29 -92.5zM134 276h81q-1 10 6 12.5t9 8.5q33 1 47.5 11.5t15.5 25t-9.5 31.5t-26.5 31t-35.5 23.5t-36.5 8.5
q-6 -18 -19.5 -34.5t-25.5 -34t-16 -38t10 -45.5zM401 531q2 -8 2.5 -11t0 -5t-1.5 -3.5t-2 -5.5q-13 -2 -18 -1t-9 4.5t-9.5 9t-19.5 11.5q0 2 -4 5t-9 6t-9.5 5t-6.5 2q-30 9 -50 18.5t-41 24.5q-44 -32 -102 -51q-4 -1 -3 -5.5t0 -9.5q-12 1 -19 -3t-12.5 -9.5
t-12.5 -9.5t-20 -2q1 6 0 8t-2 3.5t-1.5 3.5t1.5 10q9 9 17 20.5t17.5 22t22 19t32.5 10.5q6 1 3.5 9t-0.5 13q14 3 27 16t26 24v1q11 15 25 15q7 2 13.5 -0.5t14.5 -10.5q0 -1 -1 -1q13 -10 26.5 -22.5t28.5 -20.5q2 -5 5.5 -9.5t8.5 -5.5q16 -8 27.5 -17.5t20.5 -19.5
t16.5 -20t17.5 -18z" />
    <glyph glyph-name="Ecircumflex" unicode="&#xca;" horiz-adv-x="684" 
d="M490 733q7 6 19 8t25.5 2t28.5 -0.5t28 0.5q5 -5 7 -13.5t3 -17.5t3 -17t7 -13q0 -11 -8 -14t-12 -11q9 -21 10.5 -43.5t-4.5 -41t-20 -30.5t-37 -12q-12 9 -21.5 24.5l-19 32t-19.5 32t-24 25t-33 10t-45 -12.5q-12 10 -23.5 13.5t-24 2.5t-26.5 -3t-32 -2
q-26 -17 -31 -45t-2 -59.5t5.5 -62t-8.5 -51.5q4 -8 12 -11.5t9 -14.5h81q19 -12 37.5 -11.5t34.5 8.5t28.5 20.5t20.5 23.5q2 6 0 7.5t-5 2.5t-5 2.5t0 7.5q7 10 20 15t27.5 5t26.5 -6.5t17 -18.5q-9 -23 -10 -47t1 -49.5t5.5 -51t3.5 -49.5q-17 -11 -34.5 -21t-46.5 -10
q-4 20 -14 40t-26 33.5t-36.5 17t-44.5 -9.5q-7 10 -18 11.5t-23.5 -1t-24.5 -6.5t-21 -4l-15 -30q2 -18 5 -39t4.5 -43.5t0 -45t-9.5 -44.5q1 -11 10 -18.5t21 -11.5t24.5 -2t20.5 11q10 -5 28.5 -8t38 -3.5t37.5 2t28 9.5q33 -14 55.5 -4.5t39.5 29.5t30 44.5t27 42.5
q22 4 33 -9.5t13.5 -34.5t-1.5 -43t-10 -35q8 -9 10.5 -22t0.5 -26.5t-7.5 -25.5t-13.5 -17q-59 -6 -121.5 -3.5t-125 6t-123.5 4.5t-116 -7q-6 -1 -8 -2.5t-2 -7.5q-10 11 -30.5 11t-30.5 -11q-1 7 -6.5 9t-12 3l-13 2t-8.5 6q-2 12 0.5 19.5t5.5 14.5t5 15.5t-1 21.5
q21 7 39.5 16t41.5 14q-3 17 0.5 32l6.5 28.5t3 26.5t-10 25q8 -3 9 1t1 9t1 9t9 1q-6 13 -9 37t-3.5 49.5t2.5 49t10 36.5q-5 5 -8 15t-3 21t3 20.5t8 14.5q-5 5 -8 15t-3 20.5t3 20.5t8 15q-6 7 -8.5 18t-2.5 24.5t1 27.5t0 26q-8 9 -22 12.5t-28 6.5t-26 8t-15 19
q4 20 14.5 33.5t25 19.5t31.5 3.5t35 -15.5q33 17 72.5 18.5t81.5 -2t83 -5.5t77 9q11 -3 21.5 -6.5t14.5 -13.5zM515 834q2 -8 2.5 -11t0 -5t-1.5 -3.5t-2 -5.5q-13 -2 -18 -1t-9 4.5t-9.5 9t-19.5 11.5q0 2 -4 5t-9 6t-9.5 5t-6.5 2q-30 9 -50 18.5t-41 24.5
q-44 -32 -102 -51q-4 -1 -3 -5.5t0 -9.5q-12 1 -19 -3t-12.5 -9.5t-12.5 -9.5t-20 -2q1 6 0 8t-2 3.5t-1.5 3.5t1.5 10q9 9 17 20.5t17.5 22t22 19t32.5 10.5q6 1 3.5 9t-0.5 13q14 3 27 16t26 24v1q11 15 25 15q7 2 13.5 -0.5t14.5 -10.5q0 -1 -1 -1q13 -10 26.5 -22.5
t28.5 -20.5q2 -5 5.5 -9.5t8.5 -5.5q16 -8 27.5 -17.5t20.5 -19.5t16.5 -20t17.5 -18z" />
    <glyph glyph-name="acircumflex" unicode="&#xe2;" 
d="M228 499q7 -7 12.5 -8t11 0.5t12 4.5t15.5 3q50 -11 83 -37.5t38 -83.5q-8 -16 -10 -38.5t-1 -47l2 -50t-1 -47.5q-8 -8 -10 -22.5t0 -32.5q8 -13 18.5 -23.5t19.5 -22.5t16 -26t7 -35q-14 -7 -36.5 -13.5t-46 -7t-43 6t-26.5 24.5q-38 -6 -72.5 -14t-59.5 -26
q-28 1 -46.5 12t-31.5 27t-23 35t-21 37q5 13 6 24.5t0.5 22.5t-2.5 24t-4 31q10 5 21 16t23 20.5t25 12.5t28 -9q19 10 48.5 10.5t57 3t48.5 11.5t23 36q-3 16 -7.5 31.5t-11.5 28t-18 21t-29 10.5q-27 -18 -58 -32.5t-53 -38.5q-21 1 -35.5 8t-30.5 13q25 50 68.5 82.5
t93.5 58.5zM167 114q3 -5 12.5 -9t22 -7t26.5 -4t25 0q29 11 40 39t6 73q-25 9 -52 9.5t-48 -10t-31 -32.5t-1 -59zM420 565q2 -8 2.5 -11t0 -5t-1.5 -3.5t-2 -5.5q-13 -2 -18 -1t-9 4.5t-9.5 9t-19.5 11.5q0 2 -4 5t-9 6t-9.5 5t-6.5 2q-30 9 -50 18.5t-41 24.5
q-44 -32 -102 -51q-4 -1 -3 -5.5t0 -9.5q-12 1 -19 -3t-12.5 -9.5t-12.5 -9.5t-20 -2q1 6 0 8t-2 3.5t-1.5 3.5t1.5 10q9 9 17 20.5t17.5 22t22 19t32.5 10.5q6 1 3.5 9t-0.5 13q14 3 27 16t26 24v1q11 15 25 15q7 2 13.5 -0.5t14.5 -10.5q0 -1 -1 -1q13 -10 26.5 -22.5
t28.5 -20.5q2 -5 5.5 -9.5t8.5 -5.5q16 -8 27.5 -17.5t20.5 -19.5t16.5 -20t17.5 -18z" />
    <glyph glyph-name="Acircumflex" unicode="&#xc2;" horiz-adv-x="758" 
d="M424 742q21 -36 36.5 -77.5t30 -84.5l29.5 -85t36 -78q-5 -9 -9 -18.5t-1 -26.5q6 -3 8 -9.5t12 -5.5q-1 -17 3 -28.5t8.5 -23t8 -24.5t0.5 -31q6 -3 9 -10t5.5 -14t6 -13t10.5 -8q0 -37 12 -61.5t30 -43.5t37 -36.5t32 -41.5q-11 4 -10 -4.5t0 -15.5q-38 3 -72.5 1
t-66.5 -4.5t-63 -3t-62 6.5q-2 12 0.5 20t6 14.5t8 12.5t6.5 14h25q18 16 21 40.5t-3.5 51t-19 51t-23.5 39.5q-12 -1 -25.5 0t-26 1t-23 -2.5t-16.5 -8.5q0 10 -6.5 12t-9.5 8q-11 -2 -22.5 -6.5t-23 -7.5t-22 -3.5t-18.5 7.5q-12 -3 -18.5 -12t-12 -18.5t-12 -18.5
t-18.5 -12q-7 -18 -5 -35.5t3.5 -34t-1 -30.5t-17.5 -26q12 -3 21 -2t17.5 1.5t18.5 0t24 -4.5q-8 -9 -9.5 -25.5t-0.5 -35.5q-26 9 -57 10.5t-63 -0.5t-63.5 -5.5t-59.5 -4.5v81q24 2 44.5 8.5t34 19t20 33t2.5 50.5q31 31 45.5 76.5t25.5 96.5q25 26 36.5 65t14.5 87
q16 18 25.5 43t17.5 50.5t18.5 49.5t29.5 39v30q24 27 81 21zM292 306q20 10 40.5 10.5t41 -2t41 -3.5t39.5 5q-2 30 1.5 54.5t19.5 36.5q-26 2 -40.5 15.5t-22 33.5t-11 44.5t-7.5 48.5h-31q-7 -32 -18 -60l-22 -56.5t-20 -59t-11 -67.5zM460 448q3 1 4.5 7.5t1 13t-4.5 10
t-12 -0.5q-3 -1 -5 -7.5t-1 -13t5 -10t12 0.5zM495 397h10v20h-10v-20zM495 326q17 3 20 20q-17 -3 -20 -20zM495 245q25 4 20 41q-6 -3 -7.5 -0.5t-2.5 5.5t-2.5 5t-7.5 0v-51zM191 73q-2 6 0.5 8t5.5 3.5t5 4t-1 9.5q-5 3 -8.5 8t-7.5 9.5t-9.5 7t-14.5 1.5q-4 -24 6 -34
t24 -17zM552 834q2 -8 2.5 -11t0 -5t-1.5 -3.5t-2 -5.5q-13 -2 -18 -1t-9 4.5t-9.5 9t-19.5 11.5q0 2 -4 5t-9 6t-9.5 5t-6.5 2q-30 9 -50 18.5t-41 24.5q-44 -32 -102 -51q-4 -1 -3 -5.5t0 -9.5q-12 1 -19 -3t-12.5 -9.5t-12.5 -9.5t-20 -2q1 6 0 8t-2 3.5t-1.5 3.5t1.5 10
q9 9 17 20.5t17.5 22t22 19t32.5 10.5q6 1 3.5 9t-0.5 13q14 3 27 16t26 24v1q11 15 25 15q7 2 13.5 -0.5t14.5 -10.5q0 -1 -1 -1q13 -10 26.5 -22.5t28.5 -20.5q2 -5 5.5 -9.5t8.5 -5.5q16 -8 27.5 -17.5t20.5 -19.5t16.5 -20t17.5 -18z" />
    <glyph glyph-name="Aacute" unicode="&#xc1;" horiz-adv-x="758" 
d="M424 742q21 -36 36.5 -77.5t30 -84.5l29.5 -85t36 -78q-5 -9 -9 -18.5t-1 -26.5q6 -3 8 -9.5t12 -5.5q-1 -17 3 -28.5t8.5 -23t8 -24.5t0.5 -31q6 -3 9 -10t5.5 -14t6 -13t10.5 -8q0 -37 12 -61.5t30 -43.5t37 -36.5t32 -41.5q-11 4 -10 -4.5t0 -15.5q-38 3 -72.5 1
t-66.5 -4.5t-63 -3t-62 6.5q-2 12 0.5 20t6 14.5t8 12.5t6.5 14h25q18 16 21 40.5t-3.5 51t-19 51t-23.5 39.5q-12 -1 -25.5 0t-26 1t-23 -2.5t-16.5 -8.5q0 10 -6.5 12t-9.5 8q-11 -2 -22.5 -6.5t-23 -7.5t-22 -3.5t-18.5 7.5q-12 -3 -18.5 -12t-12 -18.5t-12 -18.5
t-18.5 -12q-7 -18 -5 -35.5t3.5 -34t-1 -30.5t-17.5 -26q12 -3 21 -2t17.5 1.5t18.5 0t24 -4.5q-8 -9 -9.5 -25.5t-0.5 -35.5q-26 9 -57 10.5t-63 -0.5t-63.5 -5.5t-59.5 -4.5v81q24 2 44.5 8.5t34 19t20 33t2.5 50.5q31 31 45.5 76.5t25.5 96.5q25 26 36.5 65t14.5 87
q16 18 25.5 43t17.5 50.5t18.5 49.5t29.5 39v30q24 27 81 21zM292 306q20 10 40.5 10.5t41 -2t41 -3.5t39.5 5q-2 30 1.5 54.5t19.5 36.5q-26 2 -40.5 15.5t-22 33.5t-11 44.5t-7.5 48.5h-31q-7 -32 -18 -60l-22 -56.5t-20 -59t-11 -67.5zM460 448q3 1 4.5 7.5t1 13t-4.5 10
t-12 -0.5q-3 -1 -5 -7.5t-1 -13t5 -10t12 0.5zM495 397h10v20h-10v-20zM495 326q17 3 20 20q-17 -3 -20 -20zM495 245q25 4 20 41q-6 -3 -7.5 -0.5t-2.5 5.5t-2.5 5t-7.5 0v-51zM191 73q-2 6 0.5 8t5.5 3.5t5 4t-1 9.5q-5 3 -8.5 8t-7.5 9.5t-9.5 7t-14.5 1.5q-4 -24 6 -34
t24 -17zM463 907q4 0 11 -10.5l15 -23.5q9 -15 18 -34q-13 -23 -31.5 -30.5t-38.5 -10.5t-39 -7t-33 -19q-10 7 -19 6t-17.5 -5.5t-16.5 -11t-17 -11.5q-6 10 -10 10t-8 -3.5t-8.5 -6t-9.5 2.5q-12 13 -3 28q20 16 53.5 38t66.5 41.5t58.5 33t28.5 13.5z" />
    <glyph glyph-name="caron" unicode="&#x2c7;" horiz-adv-x="636" 
d="M489 747q-10 -8 -17.5 -18t-16.5 -20t-20.5 -19.5t-27.5 -17.5q-5 -1 -8.5 -5.5t-5.5 -9.5q-15 -8 -28.5 -20.5t-26.5 -22.5q1 0 1 -1q-8 -8 -14.5 -10.5t-13.5 -0.5q-14 0 -25 15v1q-13 11 -26 24t-27 16q-2 5 0.5 13t-3.5 9q-20 2 -32.5 10.5t-22 19t-17.5 22t-17 20.5
q-2 7 -1.5 9.5t1.5 4t2 3.5t0 8q13 1 20 -2.5t12.5 -9t12.5 -9.5t19 -3q1 -5 0 -9.5t3 -5.5q58 -20 102 -51q21 15 41 24.5t50 18.5q2 0 6.5 2t9.5 5t9 6t4 5q14 6 19.5 11.5t9.5 9t9 4.5t18 -1q1 -4 2 -5.5t1.5 -3.5t0 -5.5t-2.5 -10.5z" />
    <glyph glyph-name="Zcaron" unicode="&#x17d;" horiz-adv-x="853" 
d="M147 748q94 -7 172 -30q4 3 10.5 6t13.5 4t13 -1t9 -9q4 5 18.5 8.5t30 3.5t29.5 -2.5t18 -9.5q37 14 76.5 14.5t77.5 -1t73.5 0t66.5 16.5q9 -7 21 -9.5t30 -0.5q11 -11 10 -35t0 -46q-34 -27 -64 -57.5t-58 -64.5q-44 -6 -50 -50q-30 -15 -54 -35t-47 -41.5
t-47.5 -41.5t-54.5 -34q3 -9 0.5 -13t-5.5 -7.5t-5.5 -7.5t0.5 -13q-33 -12 -55 -35.5t-46 -45.5q-8 0 -10 5.5t-1.5 13.5t1.5 17t-1 15h-20q7 -12 6.5 -21t-2 -17t-1.5 -16t7 -17q-6 -18 -20 -29t-29 -21t-27 -22.5t-15 -34.5q31 4 73.5 3.5t86.5 0t85 5t69 17.5
q25 -3 55.5 2t59 17.5t50 33t28.5 48.5q12 -1 25 0t25.5 1t23.5 -2.5t17 -8.5q-11 -14 -16 -34.5t-9 -42t-9 -42t-17 -33.5q9 -11 9 -21.5t-4 -22t-9.5 -23.5t-5.5 -24h-30v30q-37 -1 -51 20q-29 1 -54 -1.5t-50 -5.5t-51.5 -4.5t-57.5 1.5q-4 4 -12 7t-16.5 4t-16 -1.5
t-10.5 -9.5q-13 7 -26 6t-26.5 -3.5t-28.5 -2t-31 9.5q-6 -7 -18.5 -8t-26 -0.5t-25 -1t-16.5 -10.5q-18 11 -34 13.5t-33.5 1t-38 -4t-46.5 -0.5q-10 23 -9 40.5t7.5 32.5t15.5 29t16 30q37 14 60.5 41.5t41.5 59.5l30.5 17.5t29 19t24.5 24t17 31.5q33 -3 30 30
q21 6 34 19.5t24.5 28.5t25.5 27.5t38 15.5q1 19 12 28.5t23.5 17.5t23 17.5t12.5 27.5q24 2 37.5 15.5t25 28.5t26.5 26.5t43 10.5q2 10 -0.5 15t-7 8t-9 6.5t-4.5 11.5q-38 -3 -79 -1.5t-82 2.5t-79 -0.5t-69 -10.5q-33 0 -57 -9t-43 -22.5t-36 -29.5t-36 -30
q-8 -2 -11 0.5t-5.5 5.5t-6.5 5t-12 -1q3 25 8.5 47t11.5 43.5t11.5 44t8.5 47.5zM188 677q4 1 9.5 0t11 -1t8.5 2t1 9h-30v-10zM600 947q-10 -8 -17.5 -18t-16.5 -20t-20.5 -19.5t-27.5 -17.5q-5 -1 -8.5 -5.5t-5.5 -9.5q-15 -8 -28.5 -20.5t-26.5 -22.5q1 0 1 -1
q-8 -8 -14.5 -10.5t-13.5 -0.5q-14 0 -25 15v1q-13 11 -26 24t-27 16q-2 5 0.5 13t-3.5 9q-20 2 -32.5 10.5t-22 19t-17.5 22t-17 20.5q-2 7 -1.5 9.5t1.5 4t2 3.5t0 8q13 1 20 -2.5t12.5 -9t12.5 -9.5t19 -3q1 -5 0 -9.5t3 -5.5q58 -20 102 -51q21 15 41 24.5t50 18.5
q2 0 6.5 2t9.5 5t9 6t4 5q14 6 19.5 11.5t9.5 9t9 4.5t18 -1q1 -4 2 -5.5t1.5 -3.5t0 -5.5t-2.5 -10.5z" />
    <glyph glyph-name="zcaron" unicode="&#x17e;" horiz-adv-x="510" 
d="M132 449q51 9 90.5 8.5t76.5 -3t75.5 -3.5t86.5 8q9 -9 10.5 -25.5t-0.5 -35.5q-7 0 -10 -4t-5.5 -8t-6.5 -7t-13 -1q-15 -28 -36.5 -48.5t-44.5 -40t-43.5 -41.5t-32.5 -53q-36 -21 -61.5 -52.5l-50.5 -63.5q10 -2 28 -4.5t36.5 -3t34.5 2t23 10.5q30 -14 51.5 -6
t39.5 24l36.5 33t44.5 20q9 -19 9.5 -42.5t-3 -48t-9 -48.5t-7.5 -44q-15 -2 -25.5 0t-18 7t-14 11.5t-13.5 12.5q-4 -4 -16 -7.5t-25.5 -4.5t-25 1.5t-14.5 10.5q-35 -10 -66 -9t-62.5 4t-64.5 4t-70 -9q3 7 1.5 11t-4 6.5l-5 5t-2.5 7.5q-2 9 0.5 14t5.5 10t5 10.5
t-1 16.5q67 78 140 148t143 145q-10 16 -32.5 20t-49 2.5t-52.5 -6t-43 -5.5q-20 -17 -36.5 -37t-39.5 -34q-9 18 -10.5 41t1.5 46.5t8.5 45.5t10.5 39q10 0 17.5 -4t13.5 -8.5t11.5 -9.5t13.5 -8zM430 654q-10 -8 -17.5 -18t-16.5 -20t-20.5 -19.5t-27.5 -17.5
q-5 -1 -8.5 -5.5t-5.5 -9.5q-15 -8 -28.5 -20.5t-26.5 -22.5q1 0 1 -1q-8 -8 -14.5 -10.5t-13.5 -0.5q-14 0 -25 15v1q-13 11 -26 24t-27 16q-2 5 0.5 13t-3.5 9q-20 2 -32.5 10.5t-22 19t-17.5 22t-17 20.5q-2 7 -1.5 9.5t1.5 4t2 3.5t0 8q13 1 20 -2.5t12.5 -9t12.5 -9.5
t19 -3q1 -5 0 -9.5t3 -5.5q58 -20 102 -51q21 15 41 24.5t50 18.5q2 0 6.5 2t9.5 5t9 6t4 5q14 6 19.5 11.5t9.5 9t9 4.5t18 -1q1 -4 2 -5.5t1.5 -3.5t0 -5.5t-2.5 -10.5z" />
    <glyph glyph-name="cedilla" unicode="&#xb8;" horiz-adv-x="833" 
d="M426 24q-10 -2 -21.5 -13t-21 -26.5t-14.5 -32.5t-3 -31t14 -22.5t37 -6.5q8 -14 8.5 -25t-2.5 -21.5t-8 -21.5t-8 -24q-25 -1 -31.5 -19t-8.5 -42q-12 3 -16 -1.5t-9 -9.5q-23 3 -37.5 12.5t-27 22l-24.5 25.5t-29 21q2 46 24 71q6 -2 14 -10.5t12 -9.5q5 -2 9.5 -7
t4.5 -11q0 -7 1 -9q0 -2 1 -3l10 -4q10 -4 14 -4q3 0 13 2q4 1 9 2l6 18l-4 16q-2 6 -12.5 15.5t-21.5 20.5l-14 12t-16 12v21q16 18 28.5 40t27 42t34 34.5t51.5 17.5q7 -9 10 -21.5t1 -29.5z" />
    <glyph glyph-name="ccedilla" unicode="&#xe7;" horiz-adv-x="437" 
d="M391 119q-2 -9 3.5 -9.5t6.5 -6.5q-3 -20 -13.5 -32t-23.5 -22t-27 -19t-23 -23q-6 1 -13.5 4.5t-15.5 5.5q-15 -11 -29 -32.5t-18 -43t6.5 -37t44.5 -13.5q8 -14 8.5 -25.5t-2.5 -22t-8 -21t-8 -23.5q-25 -1 -31.5 -19t-8.5 -42q-12 3 -16 -1.5t-9 -9.5
q-23 3 -37.5 12.5t-27 22l-24.5 25.5t-29 21q2 46 24 71q5 -2 13.5 -10.5t12.5 -9.5q5 -2 9.5 -7t4.5 -11q0 -7 1 -9q0 -2 1 -3l10 -4q10 -4 14 -4q3 0 13 2q4 1 9 2l6 18l-4 16q-2 6 -12.5 15.5t-21.5 20.5l-14 12t-16 12v21q15 17 26 36.5t24 37.5l-26 10t-33 3
q-5 6 -7.5 13.5t-6 14t-9.5 10.5t-18 3q-3 8 -4.5 18t-4.5 18.5t-8 15.5t-14 9q-5 27 -9 51.5t-5.5 48.5t-0.5 49t5 54l25.5 30.5t15.5 40.5h20v31q18 3 29 13l22 20t25.5 16t40.5 1q4 1 4 4.5t1 6.5q9 -8 22 -7t26 2.5t25 -0.5t19 -16q10 10 17.5 9.5t14.5 -6t13.5 -13
t15.5 -10.5q5 -28 -2.5 -43t-18.5 -28q-26 -4 -44.5 -0.5t-35.5 9t-34.5 10t-42.5 1.5l-33.5 -30t-42.5 -21q-1 -14 -0.5 -28t-10.5 -17q6 -4 9 -16t3 -25.5t-3 -25t-9 -15.5l20 -31t11 -40q19 -27 45.5 -40.5t57.5 -16.5t64.5 3t66.5 19z" />
    <glyph glyph-name="Ccedilla" unicode="&#xc7;" horiz-adv-x="756" 
d="M721 198q6 -33 -2.5 -53t-21.5 -35t-27 -29t-20 -36q-38 -6 -68.5 -20t-58.5 -31q-14 -2 -28 -3.5t-28 -3.5q-11 -15 -18 -33.5t-6 -34t13 -25.5t39 -8q8 -14 8.5 -25t-2.5 -21.5t-8 -21.5t-8 -24q-25 -1 -31.5 -19t-8.5 -42q-12 3 -16 -1.5t-9 -9.5q-23 3 -37.5 12.5
t-27 22l-24.5 25.5t-29 21q2 46 24 71q6 -2 14 -10.5t12 -9.5q5 -2 9.5 -7t4.5 -11q0 -7 1 -9q0 -2 1 -3l10 -4q10 -4 14 -4q3 0 13 2q4 1 9 2l6 18l-4 16q-2 6 -12.5 15.5t-21.5 20.5l-14 12t-16 12v21q11 12 19.5 25t16.5 27q-75 6 -135.5 34.5t-90.5 79.5q-1 5 -7.5 4.5
t-12.5 0.5q-14 33 -34 58t-37 54q0 22 -6 37.5t-14 28.5q-2 9 -1 20t1 21.5t-2 18.5t-9 11q8 17 8 25.5t-8 25.5q2 29 9.5 53t16.5 45.5t19 43t16 46.5q6 0 8.5 2.5l5 5t6 4t11.5 -1.5v41q19 1 27.5 12.5t14.5 24.5t15 24t29 10q21 25 54.5 42.5t73.5 26.5t84.5 10t87.5 -8
q4 -9 9 -16t1 -24q15 -2 21.5 4t9.5 16q3 8 -1 9t-9 1t-9.5 1t-1.5 9q7 -2 8.5 1.5t2.5 8.5q18 -8 36.5 -7t37.5 3t38.5 2.5t39.5 -8.5q-4 -17 1.5 -24t8.5 -16q-6 -11 -9 -30.5t-3 -41t3 -41t9 -30.5q-9 -3 -16 -8.5t-24 -1.5q-14 34 -39 61t-58.5 44t-74.5 22t-88 -5
q-13 -15 -31 -24.5t-50 -5.5l-75.5 -77t-61.5 -91q6 -35 5 -72.5t-1 -75.5t4.5 -75.5t21.5 -71.5q21 -14 34 -36t28 -42t35.5 -34.5t55.5 -14.5q-2 -6 0 -7.5t5 -2.5t5 -2.5t0 -7.5q113 -10 181.5 25.5t103.5 106.5q17 2 29.5 -1t20.5 -9z" />
    <glyph glyph-name="tilde" unicode="&#x2dc;" horiz-adv-x="750" 
d="M544 779q-3 0 -6 -7t-6 -15q-4 -10 -6 -22l-12 -28q-1 -3 -6 -8.5l-10.5 -11.5t-11 -11t-7.5 -7q-5 -3 -17.5 -6.5t-18.5 -2.5l-6 2l-6 2q-4 1 -6 2q-2 -1 -5 -2q-6 -2 -11 -2q-4 0 -18 0.5t-30 1.5l-42 2h-54q-6 0 -8 -5t-10 -8q-9 -5 -15 -12q-4 -4 -6 -9h-3
q-2 0 -4.5 -1t-4.5 -2q-6 -2 -6.5 -8.5t-5.5 -9.5t-12 -1q-3 1 -5 2v9q0 4 1.5 7.5t3.5 10.5q0 3 2.5 9t5.5 12l7 14l15 16l1 8q1 3 5 7.5t9.5 9t11.5 8t9 3.5q7 0 26 2.5t29 2.5q5 0 12.5 -1t15.5 -3t17 -4q2 1 5 3q2 2 5 2.5t5 2.5q2 1 12 1.5l21 1t20.5 0.5h11.5
q1 0 6 0.5t11 1.5l11.5 2t8.5 2t9.5 8.5l13.5 15.5q8 10 18 21q2 1 4 3q3 3 9 3q5 -1 11 -7q3 -3 6 -5z" />
    <glyph glyph-name="otilde" unicode="&#xf5;" horiz-adv-x="550" 
d="M301 -15q-7 8 -19.5 10t-26 3t-25 4t-15.5 14q-8 2 -13 1t-8.5 -3t-6.5 -4.5t-8 -3.5q-35 19 -64.5 50t-49 71t-25.5 88.5t7 104.5q6 -3 8 -0.5t2.5 5.5t2.5 5t8 0q15 130 162 132q3 10 9 10.5t12.5 -2.5l14 -6.5t14.5 -1.5q52 10 92.5 -5t69.5 -46.5t47 -75t24 -91.5
q-8 -110 -60 -175.5t-152 -83.5zM189 381q-5 -9 -9 -19t-9.5 -18.5t-12.5 -15t-19 -8.5q1 -31 2.5 -62t7 -57.5t17 -47.5t33.5 -31q9 -16 27.5 -26.5t40.5 -15.5t44.5 -3.5t39.5 10.5q12 6 18.5 15.5t12.5 19.5t12.5 17t17.5 9q3 22 1.5 40t-4.5 35t-5.5 34t-1.5 37
q-7 21 -19.5 35.5t-28 26.5t-32 22.5t-31.5 22.5q-17 1 -27.5 -3.5t-21 -9.5t-22.5 -8t-31 1zM456 645q-3 0 -6 -7t-6 -15q-4 -10 -6 -22l-12 -28q-1 -3 -6 -8.5l-10.5 -11.5t-11 -11t-7.5 -7q-5 -3 -17.5 -6.5t-18.5 -2.5l-6 2l-6 2q-4 1 -6 2q-2 -1 -5 -2q-6 -2 -11 -2
q-4 0 -18 0.5t-30 1.5l-42 2h-54q-6 0 -8 -5t-10 -8q-9 -5 -15 -12q-4 -4 -6 -9h-3q-2 0 -4.5 -1t-4.5 -2q-6 -2 -6.5 -8.5t-5.5 -9.5t-12 -1q-3 1 -5 2v9q0 4 1.5 7.5t3.5 10.5q0 3 2.5 9t5.5 12l7 14l15 16l1 8q1 3 5 7.5t9.5 9t11.5 8t9 3.5q7 0 26 2.5t29 2.5
q5 0 12.5 -1t15.5 -3t17 -4q2 1 5 3q2 2 5 2.5t5 2.5q2 1 12 1.5l21 1t20.5 0.5h11.5q1 0 6 0.5t11 1.5l11.5 2t8.5 2t9.5 8.5l13.5 15.5q8 10 18 21q2 1 4 3q3 3 9 3q5 -1 11 -7q3 -3 6 -5z" />
    <glyph glyph-name="Otilde" unicode="&#xd5;" horiz-adv-x="870" 
d="M506 790q11 4 10 -5t0 -16q72 -2 121.5 -23.5t71.5 -72.5q45 -25 73 -68t41.5 -98.5t14.5 -120.5t-8 -133q-6 2 -7.5 0t-2 -5.5t-2.5 -5.5t-8 0q3 -32 -6 -52t-21.5 -36.5l-25 -33t-18.5 -40.5q-36 -18 -76 -40.5t-84.5 -39t-95 -22.5t-108.5 11q-6 2 -8 0t-2.5 -5
t-2.5 -5t-8 0q-17 9 -34 17t-47 3q-23 11 -42.5 26l-38 30.5l-38 30.5t-43.5 25q1 15 -5 23.5t-12.5 16.5t-11 18t-1.5 28q-25 13 -34 37t-10.5 52.5t-1 58.5t-5.5 54q11 122 60 204t148 116q9 24 29.5 32.5t46 11t51.5 2t45 4.5q9 -4 23 -5t28.5 1t27 8t17.5 17zM223 668
v20h-21q-6 -26 21 -20zM243 638q3 -12 -1.5 -17.5t-12 -9t-15.5 -6.5t-12 -8q-5 -6 -6 -14t-3 -16t-6.5 -14t-14.5 -7q-9 -34 -15 -79t-6 -90.5t9 -85.5t32 -64q0 -6 -6 -6.5t-4 -8.5q23 -26 46.5 -50t44.5 -51q13 -4 28 -5.5t29.5 -4t26 -7t18.5 -14.5h162q7 14 22.5 18.5
t37.5 2.5q6 7 12 15.5t12.5 16t15.5 12.5t21 6q3 38 41 41q-2 27 4 55t11 56t5.5 55t-10.5 52q1 3 3.5 4t4.5 2.5t3 4.5t-1 9q-14 32 -25.5 68t-25.5 69q-5 1 -11.5 0.5t-8.5 4.5q-5 18 -16.5 28t-25.5 18.5l-27.5 17t-21.5 22.5q-22 -4 -38 3.5t-31 15.5t-29.5 11
t-33.5 -10q-6 12 -18 12t-25 -3t-23.5 -5t-14.5 6q-12 -7 -22.5 -15.5t-21.5 -16t-25 -13t-32 -5.5zM760 172v20h-21q3 -17 21 -20zM614 979q-3 0 -6 -7t-6 -15q-4 -10 -6 -22l-12 -28q-1 -3 -6 -8.5l-10.5 -11.5t-11 -11t-7.5 -7q-5 -3 -17.5 -6.5t-18.5 -2.5l-6 2l-6 2
q-4 1 -6 2q-2 -1 -5 -2q-6 -2 -11 -2q-4 0 -18 0.5t-30 1.5l-42 2h-54q-6 0 -8 -5t-10 -8q-9 -5 -15 -12q-4 -4 -6 -9h-3q-2 0 -4.5 -1t-4.5 -2q-6 -2 -6.5 -8.5t-5.5 -9.5t-12 -1q-3 1 -5 2v9q0 4 1.5 7.5t3.5 10.5q0 3 2.5 9t5.5 12l7 14l15 16l1 8q1 3 5 7.5t9.5 9
t11.5 8t9 3.5q7 0 26 2.5t29 2.5q5 0 12.5 -1t15.5 -3t17 -4q2 1 5 3q2 2 5 2.5t5 2.5q2 1 12 1.5l21 1t20.5 0.5h11.5q1 0 6 0.5t11 1.5l11.5 2t8.5 2t9.5 8.5l13.5 15.5q8 10 18 21q2 1 4 3q3 3 9 3q5 -1 11 -7q3 -3 6 -5z" />
    <glyph glyph-name="ntilde" unicode="&#xf1;" horiz-adv-x="586" 
d="M500 73q9 -6 18.5 -11t17 -12t12 -17t3.5 -26q-10 -3 -25 -8.5t-30.5 -9.5t-30.5 -3t-25 11q-10 -9 -21 -10t-23 1t-24 5.5t-24 3.5v50q10 2 16.5 7l12.5 10t13.5 9.5t18.5 4.5q4 32 -10 51q9 13 10.5 33.5t1 43.5t-2 46.5t0.5 43.5q-10 24 -27 41.5l-34 34.5h-50
q-11 -6 -24 -10l-26.5 -8t-25.5 -9t-21 -14q-8 -14 -14.5 -30.5t-20.5 -25.5q1 -17 3.5 -36t3.5 -39.5t0 -41.5t-7 -40q4 -19 15.5 -30.5t23.5 -22t22 -23.5t10 -35q-25 -13 -47 -16t-44.5 -1.5t-47 5t-54.5 2.5q-1 15 3 26t10 19.5t13.5 15.5t14.5 15q-4 21 -1 49l6.5 59.5
t6 65.5t-1.5 69q-16 14 -28.5 29.5t-32.5 26.5q4 9 9 16t1 24q23 1 38 10.5t29 19.5t31 17t44 4q-3 -12 1.5 -16t8.5 -9q3 -8 0.5 -11t-5.5 -5t-5 -5t0 -10q2 -5 8.5 -4.5t12.5 -0.5l39 26.5t41 24.5t49 17t63 3q17 -5 29 -14.5t21.5 -21l19 -24t21.5 -21.5q10 -39 8.5 -79
t-4.5 -80.5t-4 -80.5t10 -79zM474 684q-3 0 -6 -7t-6 -15q-4 -10 -6 -22l-12 -28q-1 -3 -6 -8.5l-10.5 -11.5t-11 -11t-7.5 -7q-5 -3 -17.5 -6.5t-18.5 -2.5l-6 2l-6 2q-4 1 -6 2q-2 -1 -5 -2q-6 -2 -11 -2q-4 0 -18 0.5t-30 1.5l-42 2h-54q-6 0 -8 -5t-10 -8q-9 -5 -15 -12
q-4 -4 -6 -9h-3q-2 0 -4.5 -1t-4.5 -2q-6 -2 -6.5 -8.5t-5.5 -9.5t-12 -1q-3 1 -5 2v9q0 4 1.5 7.5t3.5 10.5q0 3 2.5 9t5.5 12l7 14l15 16l1 8q1 3 5 7.5t9.5 9t11.5 8t9 3.5q7 0 26 2.5t29 2.5q5 0 12.5 -1t15.5 -3t17 -4q2 1 5 3q2 2 5 2.5t5 2.5q2 1 12 1.5l21 1
t20.5 0.5h11.5q1 0 6 0.5t11 1.5l11.5 2t8.5 2t9.5 8.5l13.5 15.5q8 10 18 21q2 1 4 3q3 3 9 3q5 -1 11 -7q3 -3 6 -5z" />
    <glyph glyph-name="Ntilde" unicode="&#xd1;" horiz-adv-x="881" 
d="M235 743l14 -21.5t26 -9.5q1 -18 8 -30t15.5 -22.5t16.5 -22t11 -26.5q14 0 23 -5t16.5 -11.5l15 -13.5t16.5 -11q2 -25 14 -40t27 -27.5l29.5 -25t20.5 -33.5q27 -15 47.5 -36.5t39.5 -44l38 -45.5t42 -41q8 2 12 11.5t4 21t-3 22t-8 15.5q8 -3 9.5 1.5t1 9.5t1 9t9.5 1
q-9 5 -10 18t0 28t0 27.5t-11 17.5q8 32 9.5 67.5t-8 66.5t-31.5 52.5t-61 26.5q-4 28 3.5 44.5t22.5 26.5q54 -10 113 -7.5t125 7.5q12 -19 16.5 -38.5t-6.5 -42.5q-30 4 -47.5 -12t-25 -40.5t-6.5 -52t8 -47.5q-6 -14 -4 -40.5t4 -56.5t1.5 -59t-11.5 -47l4.5 -35
t3.5 -39.5t-0.5 -40t-7.5 -37.5q5 -23 8.5 -48t5 -48t1 -43t-4.5 -33h-91q-9 21 -31 30q3 13 1.5 23t-3.5 18t-5 16t-3 19q-14 9 -23.5 21l-19 25t-21 23.5t-27.5 16.5q-12 16 -22 34t-20.5 35t-24.5 31t-34 22q-9 27 -27 44.5t-37 33.5t-35.5 35t-22.5 49q-13 4 -23 11
t-19 15.5t-17 17.5t-17 17q-17 -13 -18.5 -31t0.5 -38t3 -40t-10 -38q9 -13 10 -37t-0.5 -52.5t-2.5 -57.5t3 -51q3 -20 10 -32.5t18 -21.5t26.5 -15t36.5 -12q6 -14 8.5 -31t1 -34t-6 -32t-13.5 -24q-32 14 -66 16t-69.5 0t-73 -3.5t-75.5 7.5v81q13 0 21 5.5t15 11.5
t16 10.5t24 2.5q21 28 25.5 66t3.5 79l-2 81.5t9 72.5q-5 10 -8 28.5t-4 38t2 37.5t10 28q-8 4 -10 13.5t-1.5 21t1.5 24t0 22.5q-7 11 -18 17.5t-23 12.5t-22.5 13t-17.5 18q1 20 7.5 35t12.5 31h162zM620 979q-3 0 -6 -7t-6 -15q-4 -10 -6 -22l-12 -28q-1 -3 -6 -8.5
l-10.5 -11.5t-11 -11t-7.5 -7q-5 -3 -17.5 -6.5t-18.5 -2.5l-6 2l-6 2q-4 1 -6 2q-2 -1 -5 -2q-6 -2 -11 -2q-4 0 -18 0.5t-30 1.5l-42 2h-54q-6 0 -8 -5t-10 -8q-9 -5 -15 -12q-4 -4 -6 -9h-3q-2 0 -4.5 -1t-4.5 -2q-6 -2 -6.5 -8.5t-5.5 -9.5t-12 -1q-3 1 -5 2v9
q0 4 1.5 7.5t3.5 10.5q0 3 2.5 9t5.5 12l7 14l15 16l1 8q1 3 5 7.5t9.5 9t11.5 8t9 3.5q7 0 26 2.5t29 2.5q5 0 12.5 -1t15.5 -3t17 -4q2 1 5 3q2 2 5 2.5t5 2.5q2 1 12 1.5l21 1t20.5 0.5h11.5q1 0 6 0.5t11 1.5l11.5 2t8.5 2t9.5 8.5l13.5 15.5q8 10 18 21q2 1 4 3
q3 3 9 3q5 -1 11 -7q3 -3 6 -5z" />
    <glyph glyph-name="atilde" unicode="&#xe3;" 
d="M228 499q7 -7 12.5 -8t11 0.5t12 4.5t15.5 3q50 -11 83 -37.5t38 -83.5q-8 -16 -10 -38.5t-1 -47l2 -50t-1 -47.5q-8 -8 -10 -22.5t0 -32.5q8 -13 18.5 -23.5t19.5 -22.5t16 -26t7 -35q-14 -7 -36.5 -13.5t-46 -7t-43 6t-26.5 24.5q-38 -6 -72.5 -14t-59.5 -26
q-28 1 -46.5 12t-31.5 27t-23 35t-21 37q5 13 6 24.5t0.5 22.5t-2.5 24t-4 31q10 5 21 16t23 20.5t25 12.5t28 -9q19 10 48.5 10.5t57 3t48.5 11.5t23 36q-3 16 -7.5 31.5t-11.5 28t-18 21t-29 10.5q-27 -18 -58 -32.5t-53 -38.5q-21 1 -35.5 8t-30.5 13q25 50 68.5 82.5
t93.5 58.5zM167 114q3 -5 12.5 -9t22 -7t26.5 -4t25 0q29 11 40 39t6 73q-25 9 -52 9.5t-48 -10t-31 -32.5t-1 -59zM426 674q-3 0 -6 -7t-6 -15q-4 -10 -6 -22l-12 -28q-1 -3 -6 -8.5l-10.5 -11.5t-11 -11t-7.5 -7q-5 -3 -17.5 -6.5t-18.5 -2.5l-6 2l-6 2q-4 1 -6 2
q-2 -1 -5 -2q-6 -2 -11 -2q-4 0 -18 0.5t-30 1.5l-42 2h-54q-6 0 -8 -5t-10 -8q-9 -5 -15 -12q-4 -4 -6 -9h-3q-2 0 -4.5 -1t-4.5 -2q-6 -2 -6.5 -8.5t-5.5 -9.5t-12 -1q-3 1 -5 2v9q0 4 1.5 7.5t3.5 10.5q0 3 2.5 9t5.5 12l7 14l15 16l1 8q1 3 5 7.5t9.5 9t11.5 8t9 3.5
q7 0 26 2.5t29 2.5q5 0 12.5 -1t15.5 -3t17 -4q2 1 5 3q2 2 5 2.5t5 2.5q2 1 12 1.5l21 1t20.5 0.5h11.5q1 0 6 0.5t11 1.5l11.5 2t8.5 2t9.5 8.5l13.5 15.5q8 10 18 21q2 1 4 3q3 3 9 3q5 -1 11 -7q3 -3 6 -5z" />
    <glyph glyph-name="Atilde" unicode="&#xc3;" horiz-adv-x="758" 
d="M424 742q21 -36 36.5 -77.5t30 -84.5l29.5 -85t36 -78q-5 -9 -9 -18.5t-1 -26.5q6 -3 8 -9.5t12 -5.5q-1 -17 3 -28.5t8.5 -23t8 -24.5t0.5 -31q6 -3 9 -10t5.5 -14t6 -13t10.5 -8q0 -37 12 -61.5t30 -43.5t37 -36.5t32 -41.5q-11 4 -10 -4.5t0 -15.5q-38 3 -72.5 1
t-66.5 -4.5t-63 -3t-62 6.5q-2 12 0.5 20t6 14.5t8 12.5t6.5 14h25q18 16 21 40.5t-3.5 51t-19 51t-23.5 39.5q-12 -1 -25.5 0t-26 1t-23 -2.5t-16.5 -8.5q0 10 -6.5 12t-9.5 8q-11 -2 -22.5 -6.5t-23 -7.5t-22 -3.5t-18.5 7.5q-12 -3 -18.5 -12t-12 -18.5t-12 -18.5
t-18.5 -12q-7 -18 -5 -35.5t3.5 -34t-1 -30.5t-17.5 -26q12 -3 21 -2t17.5 1.5t18.5 0t24 -4.5q-8 -9 -9.5 -25.5t-0.5 -35.5q-26 9 -57 10.5t-63 -0.5t-63.5 -5.5t-59.5 -4.5v81q24 2 44.5 8.5t34 19t20 33t2.5 50.5q31 31 45.5 76.5t25.5 96.5q25 26 36.5 65t14.5 87
q16 18 25.5 43t17.5 50.5t18.5 49.5t29.5 39v30q24 27 81 21zM292 306q20 10 40.5 10.5t41 -2t41 -3.5t39.5 5q-2 30 1.5 54.5t19.5 36.5q-26 2 -40.5 15.5t-22 33.5t-11 44.5t-7.5 48.5h-31q-7 -32 -18 -60l-22 -56.5t-20 -59t-11 -67.5zM460 448q3 1 4.5 7.5t1 13t-4.5 10
t-12 -0.5q-3 -1 -5 -7.5t-1 -13t5 -10t12 0.5zM495 397h10v20h-10v-20zM495 326q17 3 20 20q-17 -3 -20 -20zM495 245q25 4 20 41q-6 -3 -7.5 -0.5t-2.5 5.5t-2.5 5t-7.5 0v-51zM191 73q-2 6 0.5 8t5.5 3.5t5 4t-1 9.5q-5 3 -8.5 8t-7.5 9.5t-9.5 7t-14.5 1.5q-4 -24 6 -34
t24 -17zM558 979q-3 0 -6 -7t-6 -15q-4 -10 -6 -22l-12 -28q-1 -3 -6 -8.5l-10.5 -11.5t-11 -11t-7.5 -7q-5 -3 -17.5 -6.5t-18.5 -2.5l-6 2l-6 2q-4 1 -6 2q-2 -1 -5 -2q-6 -2 -11 -2q-4 0 -18 0.5t-30 1.5l-42 2h-54q-6 0 -8 -5t-10 -8q-9 -5 -15 -12q-4 -4 -6 -9h-3
q-2 0 -4.5 -1t-4.5 -2q-6 -2 -6.5 -8.5t-5.5 -9.5t-12 -1q-3 1 -5 2v9q0 4 1.5 7.5t3.5 10.5q0 3 2.5 9t5.5 12l7 14l15 16l1 8q1 3 5 7.5t9.5 9t11.5 8t9 3.5q7 0 26 2.5t29 2.5q5 0 12.5 -1t15.5 -3t17 -4q2 1 5 3q2 2 5 2.5t5 2.5q2 1 12 1.5l21 1t20.5 0.5h11.5
q1 0 6 0.5t11 1.5l11.5 2t8.5 2t9.5 8.5l13.5 15.5q8 10 18 21q2 1 4 3q3 3 9 3q5 -1 11 -7q3 -3 6 -5z" />
    <glyph glyph-name="scaron" unicode="&#x161;" horiz-adv-x="409" 
d="M281 459q13 -16 33.5 -23t37.5 -18q3 -63 -25 -91q-29 11 -52.5 26.5t-33.5 44.5q-48 4 -81.5 -5.5t-40.5 -45.5q3 -17 20 -20v-25q21 -15 47 -25.5t53 -19.5l53.5 -18.5t49.5 -23.5q7 -26 18 -48t23 -43q-2 -21 -8.5 -37.5t-15.5 -30.5t-18.5 -26.5t-18.5 -26.5
q-34 -9 -73.5 -14.5t-78.5 -5t-73.5 9.5t-58.5 30q1 16 0 35t-1 37t1.5 33.5t9.5 26.5q6 0 8.5 -2.5l5 -5t6 -4t11.5 1.5q-7 -47 40 -41q6 -16 22.5 -27.5t38 -17.5t43.5 -5.5t39.5 9.5t26 27.5t2.5 48.5q-18 28 -51.5 41t-70 22.5t-70 22.5t-51.5 41q-11 33 -8 60t14 49.5
t28.5 40.5t36.5 33q21 4 43.5 5.5t44 1.5h41t33.5 3zM379 647q-10 -8 -17.5 -18t-16.5 -20t-20.5 -19.5t-27.5 -17.5q-5 -1 -8.5 -5.5t-5.5 -9.5q-15 -8 -28.5 -20.5t-26.5 -22.5q1 0 1 -1q-8 -8 -14.5 -10.5t-13.5 -0.5q-14 0 -25 15v1q-13 11 -26 24t-27 16q-2 5 0.5 13
t-3.5 9q-20 2 -32.5 10.5t-22 19t-17.5 22t-17 20.5q-2 7 -1.5 9.5t1.5 4t2 3.5t0 8q13 1 20 -2.5t12.5 -9t12.5 -9.5t19 -3q1 -5 0 -9.5t3 -5.5q58 -20 102 -51q21 15 41 24.5t50 18.5q2 0 6.5 2t9.5 5t9 6t4 5q14 6 19.5 11.5t9.5 9t9 4.5t18 -1q1 -4 2 -5.5t1.5 -3.5
t0 -5.5t-2.5 -10.5z" />
    <glyph glyph-name="ydieresis" unicode="&#xff;" horiz-adv-x="634" 
d="M247 489q8 -9 9.5 -25.5t0.5 -35.5q-9 0 -15.5 -2t-12 -5.5l-11 -7t-12.5 -5.5q3 -41 12 -76t22 -65.5t29 -58t33 -53.5q8 6 13.5 15.5l11 18.5t12.5 16.5t19 9.5q3 29 17 58.5t23 56.5t3 50t-43 38q3 12 0.5 18.5t-5.5 12t-5.5 12t0.5 18.5q35 3 62 4.5t53 2.5t53.5 1.5
t64.5 1.5q8 -21 8 -35t-8 -36q-38 -3 -60.5 -20.5t-37.5 -43.5t-24.5 -57l-19.5 -61q-20 -14 -29 -39.5t-16.5 -52t-19 -49.5t-36.5 -32q2 -29 -4 -51t-26 -30q-19 -71 -52.5 -125.5t-79.5 -96.5h-41q-8 -2 -8.5 3.5t-6.5 6.5q-28 -15 -76 -10q-12 25 -7.5 43.5t20.5 30.5
t40.5 16.5t53.5 0.5q20 9 33 26t24 35.5l22 37t27 32.5q-1 17 -4 30.5t-7.5 26.5l-9.5 27t-9 33q-3 13 -14.5 23.5t-16.5 22.5q-3 8 -0.5 17.5t0.5 17.5q-3 12 -14 23t-16 23q-2 5 0 15.5t0 19.5q-2 8 -10.5 14t-10.5 11q-3 11 -3.5 22t-1.5 22.5t-4 22t-11 20.5
q-1 5 -7.5 4.5t-12.5 0.5q-3 15 -14 23.5t-23 15.5t-22 16t-12 26q3 14 16.5 18t30.5 3.5t36 -2.5t34 1q3 10 14.5 10t15.5 -10q3 7 10 9t17 2t20 -1t19 0zM528 615q-4 -14 -10 -22t-13.5 -15.5t-16 -17t-18.5 -24.5h-50q-12 14 -23 25t-35 25q-3 20 2 31.5t7 25.5
q17 4 25 16t16 26q17 6 29 6t29 -6q13 -19 28.5 -35t29.5 -35zM271 602q-6 -3 -16.5 -11t-20 -17.5t-16 -20t-5.5 -17.5q-22 1 -38 9t-28.5 19t-22 25.5l-18.5 29.5q14 21 33 37t33 37q21 0 33.5 -8t22.5 -18.5t19.5 -21.5t23.5 -18v-25z" />
    <glyph glyph-name="ellipsis" unicode="&#x2026;" horiz-adv-x="1027" 
d="M399 15q4 16 15.5 26t23.5 19t21.5 20.5t10.5 31.5h61q7 -9 14 -19t15 -18.5t18 -15t24 -9.5q2 -12 1.5 -21t-3 -17.5t-5 -16t-3.5 -16.5q-11 -2 -21 -4.5t-17.5 -8t-11 -14t-1.5 -23.5q-22 -8 -35.5 -8t-35.5 8q-3 16 -12 27t-19.5 20.5t-21 18t-18.5 20.5zM714 30
q8 3 14 8.5t12.5 10.5t14.5 8.5t20 3.5q-3 10 -1.5 16t4.5 11t5.5 10t1.5 14q27 -2 47 -11t35.5 -23.5t27 -32l22.5 -35.5q-9 -13 -19.5 -24l-21 -21.5l-21 -22t-19.5 -24.5q-26 0 -41.5 10t-28 23t-24 26.5t-28.5 22.5v30zM218 128q14 -32 37.5 -54t43.5 -48
q-7 -12 -16.5 -22l-18.5 -20t-16 -22t-10 -28q-17 4 -24 -1t-17 -9q-16 5 -27 14t-21 19.5l-20 20.5t-23 17q-3 23 5 35.5t18.5 22.5t19.5 21.5t8 32.5q8 2 14 6l12.5 8t14.5 6t20 1z" />
    <glyph glyph-name="quoteleft" unicode="&#x2018;" 
d="M140 522q7 1 11.5 5.5t8.5 10t8.5 9.5t12.5 6q4 36 16.5 64t30 51t37 44t37.5 43q54 3 51 -50l-28.5 -29.5t-27 -34t-14.5 -40t9 -48.5q18 -2 29.5 -9t21.5 -17q-3 -14 -9 -24.5t-1 -30.5q-21 -4 -34.5 -23t-26.5 -35.5t-28.5 -21.5t-42.5 19q2 23 -9 34t-24 19.5
t-22.5 20t-5.5 37.5z" />
    <glyph glyph-name="quotedblbase" unicode="&#x201e;" horiz-adv-x="663" 
d="M288 7q-10 -2 -14.5 -8.5t-7.5 -15t-6.5 -16.5t-11.5 -11q-2 -33 -12 -59t-24.5 -47t-31.5 -39t-33 -37q-18 -2 -30 0.5t-21 9.5q-6 28 2.5 40.5t20.5 22t22 21.5t6 38q6 -3 7.5 -0.5t2 5.5t2.5 5t8 0q-1 13 -3 25t-7.5 20.5t-15 12.5t-25.5 3q0 9 -2.5 15l-5 12.5t-4 14
t1.5 18.5q21 15 38.5 32.5t22.5 48.5q16 -4 23.5 1.5t16.5 9.5q12 -14 25.5 -26t25 -25.5t20 -30.5t10.5 -40zM562 -3q-8 -2 -12 -6t-8 -9.5t-8.5 -10t-12.5 -5.5q-4 -36 -16.5 -64t-30 -51t-37 -44t-37.5 -43q-54 -3 -51 50l28.5 29.5t27 34t14.5 40t-9 48.5q-18 2 -29.5 9
t-21.5 17q3 14 9 24.5t1 30.5q21 4 34.5 23l26 35.5t28.5 21.5t43 -19q-2 -23 9 -34t24 -19.5t22.5 -20.5t5.5 -37z" />
    <glyph glyph-name="underscore" unicode="_" horiz-adv-x="620" 
d="M557 -226q-1 -3 -6.5 -4.5t-13 -2l-15.5 -1t-14 -0.5q-13 5 -34.5 8.5t-45 4t-45 -2.5t-33.5 -10q-23 12 -48 13t-51 -1t-52.5 -2t-51.5 10q-5 -5 -13.5 -6.5l-17.5 -3t-17 -3.5t-13 -7q-19 7 -31 20t-10 41q7 -2 8.5 1.5t1.5 8.5q17 4 24 -1t17 -9q21 18 51 18t62.5 -4
t65.5 -6t60 12q25 -5 60.5 -6t69 0t57.5 2t26 0t4 -11t3.5 -22t2 -22.5t-0.5 -13.5z" />
    <glyph glyph-name="endash" unicode="&#x2013;" horiz-adv-x="632" 
d="M54 331q4 2 15 3t23.5 1h26h23.5q37 -3 82.5 -3.5t92 0t91 1.5t80.5 2q13 -4 29 -6t28.5 -6.5t19 -15.5t0.5 -33q-31 -9 -79 -13.5t-102.5 -6.5t-110 -1.5t-101 1.5t-75 2.5t-32.5 0.5q-5 -1 -8.5 9.5t-6 24t-2 26t5.5 14.5z" />
    <glyph glyph-name="backslash" unicode="\" horiz-adv-x="435" 
d="M269 4q-4 6 -7 8q-3 36 -12.5 73.5t-22 73.5l-25.5 70.5t-23 64.5q-7 34 -18 74.5t-24 81.5l-26 79.5l-23 70.5q1 11 -1 23.5t-2 23.5q0 2 4 3.5t4 3.5t-3.5 4.5t-2.5 4.5q3 9 11.5 15t27.5 7q28 -41 48.5 -102t38.5 -128.5l36.5 -134.5t41.5 -119q-1 -14 2.5 -33t10 -40
t14.5 -41t17 -36q-2 -13 1.5 -28t0.5 -21q-2 -3 -13 -3t-23 1q-15 1 -32 4z" />
    <glyph glyph-name="slash" unicode="/" horiz-adv-x="417" 
d="M266 673q17 3 32 4q12 1 23 0.5t13 -2.5q3 -6 -0.5 -21t-1.5 -28q-9 -16 -17 -36t-14.5 -41t-10 -40.5t-2.5 -32.5q-23 -53 -41.5 -119.5l-36.5 -134t-38.5 -128.5t-48.5 -102q-19 1 -27.5 7t-11.5 15q-1 2 2.5 4.5t3.5 4.5t-4 3.5t-4 3.5q0 11 2 23.5t1 23.5l23 70
l26 80t24 81.5t18 74.5q10 30 23 64.5l25.5 70.5t22 73.5t12.5 73.5q3 2 7 8z" />
    <glyph glyph-name="Eth" unicode="&#xd0;" horiz-adv-x="898" 
d="M859 373q7 -12 9 -29t2 -36.5t-1.5 -39.5t0.5 -38q-3 -11 -8.5 -19t-11 -17t-8.5 -19.5t-2 -25.5q-22 -18 -40.5 -39.5l-37.5 -42.5t-40.5 -39.5t-49.5 -30.5q-40 -3 -84 -9.5t-90 -10t-91 -3t-86 11.5q-8 3 -11.5 1.5t-6 -4l-5 -5t-7.5 -2.5q-9 10 -24.5 8t-32 -5.5
t-33 -4t-27.5 11.5q-8 -11 -20.5 -17.5t-35.5 -2.5q-9 9 -10.5 25.5t0.5 35.5q5 1 8 3.5t6.5 4.5t8 3t12.5 -1q7 9 16 16t18.5 13.5t17.5 14t14 17.5q4 51 0.5 107.5t-0.5 107.5q-18 -2 -27 -12q-12 12 -24.5 13t-25 -1t-26 -2t-26.5 11q-2 -5 -6.5 -7t-9 -3.5t-8.5 -3.5
t-6 -7q-10 7 -16.5 20t-4.5 41q3 -2 4 1.5t1 8.5q8 4 12 -1t9 -9q10 18 25 18.5t31.5 -3.5t33 -6t30.5 12q10 -5 20.5 -6.5t21.5 -2.5l3 9q2 6 0 7.5t-5.5 2.5t-5.5 2.5t0 7.5q6 6 8 16.5t3 21.5t3 21t7 17l-10 64.5t-17 58.5t-34 41.5t-61 13.5q-2 19 -0.5 35.5t10.5 25.5
q49 -2 93.5 -4t87.5 -2.5t87 0.5t93 6q33 13 63.5 10t60.5 -12.5t58.5 -21.5t56.5 -16q2 -20 17 -28t33 -13q-1 -19 9.5 -26.5t21.5 -14.5q0 -28 12.5 -43t28.5 -28q5 -30 12 -58t18 -54q-3 -9 -8.5 -16t-1.5 -24zM249 474h10v21h-10v-21zM818 525q-13 1 -19.5 -4
t-10.5 -13.5t-7 -18t-9 -15.5q-20 1 -30 12.5t-17.5 26t-15.5 28.5t-23 20v25q-35 16 -73 31.5t-79.5 25t-87.5 12t-95 -7.5q-14 -12 -21.5 -36t-10 -52t0 -56.5t10.5 -48.5q-12 -30 -12 -72q1 0 1.5 0.5t2.5 0.5q17 -3 38 -4t43 -0.5t42.5 2t37.5 2.5q6 -5 13.5 -6.5
t13 -6.5t8.5 -15.5t0 -32.5q-18 -12 -41.5 -16.5t-49 -5t-53 1t-52.5 2.5q3 -36 4.5 -68.5t-6.5 -55.5q7 -8 9 -19.5t2 -25.5t-1 -29t0 -28q29 -17 55 -19t53 1.5l57.5 7.5t68.5 0q5 10 14.5 15.5t22.5 8.5t27 3.5t28 2.5v12.5t5 8.5q15 6 23.5 18t16 25.5t15.5 26.5t21 21
q0 33 6 60t14 52q-12 13 -11.5 28.5t4 32.5l7.5 35t0 36h41q-6 24 2.5 33l17.5 18v20z" />
    <glyph glyph-name="dotlessi" unicode="&#x131;" horiz-adv-x="251" 
d="M185 473q-1 -48 -5 -93.5t-15 -83.5q9 -17 8.5 -41l-1 -48.5t3 -48t19.5 -40.5q1 -6 -1 -8t-5 -3.5t-5 -4t1 -9.5q15 -3 27 -14t19 -26t6.5 -32.5t-11.5 -33.5q-12 -1 -21.5 2l-17.5 5.5t-16 2t-16 -9.5q3 8 -1 9t-9 1t-9 1t-1 9q-10 -10 -20.5 -10.5t-21.5 2.5
l-23.5 6.5t-26.5 1.5q-2 16 1 27.5t9 19t14.5 13t16.5 11.5q-2 19 0.5 34t19.5 17q-10 48 -10 104v113q-13 18 -29 32.5l-32 28.5q7 19 24.5 33.5t40 23.5t46 11.5t41.5 -2.5z" />
    <glyph glyph-name="OE" unicode="&#x152;" horiz-adv-x="1105" 
d="M988 206q22 4 33 -9.5t14 -34.5t-1 -43t-10 -35q7 -9 9.5 -22.5t0.5 -27t-7.5 -25t-12.5 -16.5q-47 -5 -96 -4.5t-98.5 3.5t-99 5.5t-96.5 2.5q-49 -22 -105.5 -31t-122.5 10q-6 2 -8 0t-2.5 -5t-2 -5.5t-7.5 0.5l-34.5 16.5t-47.5 3.5q-23 11 -42.5 26l-38 30.5
l-38 30.5t-43.5 25q0 15 -5.5 24t-12.5 17t-11.5 17.5t-1.5 27.5q-25 13 -33.5 37.5t-10.5 53t-1.5 58.5t-5.5 55q11 122 60.5 204t148.5 116q9 24 29.5 33t46 11.5t51.5 2t45 4.5q9 -5 23.5 -6t29 1t27 8t17.5 17q11 4 10 -4.5t0 -15.5q20 -1 38 -2.5t34 -5.5q29 1 60 -1.5
t61.5 -4.5t59.5 -1.5t55 8.5q11 -3 21 -6.5t14 -13.5q7 7 19.5 9t26.5 2t28.5 -1t27.5 0q5 -5 7 -13.5t3 -17.5t3 -17t7 -13q0 -11 -8 -14.5t-12 -11.5q9 -21 10.5 -43t-4.5 -40.5t-20 -31t-37 -12.5q-18 14 -31 40.5t-29 49t-39.5 32.5t-62.5 -10q-12 10 -23.5 13.5
t-24 2.5t-27 -3.5t-32.5 -2.5q-26 -17 -31 -45t-2 -59.5t5.5 -62t-8.5 -51.5q4 -8 12 -11.5t9 -14.5h81q19 -12 37.5 -11.5t34.5 8.5t29 20.5t21 23.5q2 6 0 8t-5 2.5t-5 2t0 7.5q7 10 20 15t27.5 5t26.5 -6.5t17 -18.5q-9 -23 -10 -47t1 -49.5t5.5 -51t3.5 -50.5
q-17 -11 -35 -21t-46 -9q-4 20 -14 40t-26 33.5t-36.5 17t-45.5 -9.5q-6 10 -17 11t-23.5 -1.5t-24.5 -6t-21 -3.5q-8 -13 -16 -31q2 -18 5 -39t4.5 -43t0 -45t-9.5 -45q1 -11 10 -18.5t21.5 -11.5t25 -2t20.5 11q10 -5 28.5 -8t38 -3.5t37.5 2t28 9.5q33 -14 55.5 -4.5
t39.5 29.5t30 44.5t27 42.5zM223 680q-6 -26 20 -20v20h-20zM294 101q13 -3 28 -5t29.5 -4.5t26 -7t18.5 -14.5h29q0 2 -0.5 2.5t-0.5 1.5q21 7 39.5 16.5t41.5 14.5q-3 16 1 31t7 29t2.5 26.5t-10.5 24.5q8 -3 9.5 1t1 9.5t1 9.5t9.5 1q-6 13 -9 37t-3.5 49.5t2.5 49
t10 36.5q-6 5 -8.5 15t-2.5 21t2.5 21t8.5 15q-6 5 -8.5 14.5t-2.5 20.5t2.5 21t8.5 15q-7 7 -9 18t-2 24.5t1 27.5t0 26q-11 13 -30.5 15.5t-36.5 7.5q-2 0 -2 -1q-1 1 -1 1.5t-1 1.5q-7 3 -14 8q-9 2 -19 0t-19.5 -4.5t-17 -2.5t-10.5 6q-12 -7 -22.5 -15.5t-21.5 -16
t-25 -13t-32 -6.5q3 -11 -1.5 -17t-12 -9.5t-15.5 -6t-12 -7.5q-5 -6 -6 -14.5t-3 -16t-6.5 -13.5t-14.5 -7q-9 -34 -15.5 -79.5t-6 -91t9.5 -85.5t32 -64q-1 -6 -6.5 -6.5t-3.5 -8.5l46.5 -50.5t44.5 -51.5z" />
    <glyph glyph-name="asciitilde" unicode="~" horiz-adv-x="530" 
d="M442 270q-1 -2 -3 -8l-4 -12t-5 -10t-6 -3t-6.5 -4t-7 -12l-6.5 -13.5t-5 -8.5t-9.5 -5.5l-16.5 -7.5l-17.5 -7.5t-12.5 -4.5t-12.5 -1.5t-18 -0.5t-18 0.5t-11.5 1.5q-4 1 -7.5 2t-6.5 1h-7q-8 -2 -15 -3q-6 -1 -12 -1.5t-10 -0.5h-24.5t-31.5 -1q-8 -1 -13 -3.5
t-8 -4.5q-4 -4 -6 -7q-6 -2 -10 -5q-4 -2 -8.5 -4.5t-6.5 -4.5q-3 -2 -6 -6.5t-5 -9.5q-3 -5 -4 -12l-8 -8q-5 -5 -11 -9q-3 -2 -5 -4l-10 2q-9 2 -14 5q-5 2 -3.5 7t1.5 10q0 9 6 27q2 4 8 15l12.5 22t11.5 21t6 13t5 5.5t9.5 5t10 5t6.5 4.5t10.5 4t19.5 3.5t21.5 2
t16.5 -0.5q5 -1 15.5 -1h20.5h25q8 0 16 1q13 0 23 2q8 1 27 1.5t30 4.5q11 3 18 11.5l11 13.5q2 2 4.5 8.5l5.5 14.5q4 9 7 19q1 1 3 2t3.5 2t3.5 1q3 0 9 -4l6 -4q1 1 4 3q2 1 4.5 2t6.5 1q7 0 10.5 -2.5t10.5 -6.5q-3 -10 -7 -19q-3 -8 -6 -15t-4 -9zM103 199l-4 -7l6 -6
l7 18z" />
    <glyph glyph-name="Scaron" unicode="&#x160;" horiz-adv-x="604" 
d="M515 759q1 -17 0 -37t-1 -39.5t1.5 -36.5t9.5 -29q-5 -10 -6 -24t-4.5 -26t-12.5 -18.5t-28 -2.5q-5 10 -9 21.5t-9 21.5t-12.5 17.5t-19.5 10.5q-3 28 -24 39t-49.5 12t-59.5 -3.5t-55 -6.5q-8 -12 -15 -25.5t-14.5 -26t-16 -24t-20.5 -20.5q16 -10 24 -28t17.5 -34.5
t25 -27.5t45.5 -7q51 -49 142 -60q1 -8 5.5 -12.5t9.5 -8.5t9.5 -8.5t5.5 -11.5q21 3 31 -5t16.5 -19l13 -22t20.5 -15q-1 -17 2.5 -29t9 -22.5l11 -21t8.5 -23.5q1 -11 -1.5 -17t-4.5 -10t-1.5 -8t7.5 -11q-8 0 -10 -5.5t-1.5 -13.5t1.5 -16.5t0 -14.5q-23 -18 -38.5 -43
t-32.5 -48q-23 -3 -43.5 -7.5t-27.5 -23.5q-4 4 -13.5 4.5t-20 -1t-21 -5t-16.5 -8.5q-27 3 -62.5 5t-74.5 2.5t-79.5 -1t-77.5 -6.5q-5 26 -5 54t1 57t0.5 59.5t-6.5 62.5q9 9 25.5 10t35.5 0q-2 -19 8.5 -26.5t21.5 -13.5q4 -41 26 -65t55 -34.5t74 -10t83 7.5l44.5 40
t31.5 52q2 6 0 7.5t-5 2t-5 2.5t0 8q-2 6 0 7.5t5 2.5t5 2.5t0 7.5q-13 46 -47.5 69t-84.5 32q0 7 -3 10t-7 5.5t-7 5.5t-3 10q-62 11 -114 32.5t-89 58.5q4 11 0.5 20.5t-9.5 18l-12.5 17.5t-8.5 20q-4 19 -2.5 39.5t7 39t15 33.5t21.5 25q-3 14 -1.5 20.5t6 10.5t12.5 7.5
t18 11.5t20 17.5t22 17.5t27.5 12.5t36.5 3.5q34 6 66 7.5t65 0.5t68 -1t75 3zM477 947q-10 -8 -17.5 -18t-16.5 -20t-20.5 -19.5t-27.5 -17.5q-5 -1 -8.5 -5.5t-5.5 -9.5q-15 -8 -28.5 -20.5t-26.5 -22.5q1 0 1 -1q-8 -8 -14.5 -10.5t-13.5 -0.5q-14 0 -25 15v1
q-13 11 -26 24t-27 16q-2 5 0.5 13t-3.5 9q-20 2 -32.5 10.5t-22 19t-17.5 22t-17 20.5q-2 7 -1.5 9.5t1.5 4t2 3.5t0 8q13 1 20 -2.5t12.5 -9t12.5 -9.5t19 -3q1 -5 0 -9.5t3 -5.5q58 -20 102 -51q21 15 41 24.5t50 18.5q2 0 6.5 2t9.5 5t9 6t4 5q14 6 19.5 11.5t9.5 9
t9 4.5t18 -1q1 -4 2 -5.5t1.5 -3.5t0 -5.5t-2.5 -10.5z" />
    <glyph glyph-name="at" unicode="@" horiz-adv-x="768" 
d="M454 338q0 3 5 14.5t11 23.5l15 31q-1 3 -4 7q-4 6 -14 10q-10 3 -15 3.5t-9 0.5q-2 0 -10.5 -6l-19 -13.5t-19.5 -15.5t-11 -11q-2 -4 -4 -7l-4 -6q-3 -4 -4 -7q-11 -20 -21 -36l-15.5 -26t-9.5 -13t-3.5 -6.5t-2.5 -11.5l-2 -12t-1 -7q-2 -4 -4 -15.5t-1 -20.5
q2 -9 3.5 -11.5t7.5 -2.5q3 0 16 9.5l28 21.5l28 22.5t15 12.5q1 2 8 12l15 22.5l14.5 23.5t7.5 14zM503 452q3 5 7 10q3 4 6 8.5t5 8.5t4 7t4 5l3 3l24 -10q7 0 13 1q5 1 10 1.5t7 0.5q3 0 6 -6.5t1 -11.5q-1 -3 -2 -9t-3.5 -13.5t-7 -14.5t-12.5 -13t-17 -31t-17.5 -54
l-15.5 -53t-10 -27q-4 -3 -5 -9l-2 -12q-1 -7 -1 -15l-24 -24q-7 -7 6.5 -7t32.5 2.5t37 6t20 4.5q5 2 12 7t9 8q1 2 5.5 3.5t9.5 3.5t10 4.5t7 5.5q1 3 7 11l13 17l12.5 16.5t6.5 9.5q0 1 1 7.5l2 13.5t2 13t1 8t2 5.5t4 8.5q3 5 7 11q0 1 -1 4q-1 2 -2 5t-3 7t-4 18l-4 29
q-2 18 -4 39q-3 8 -6 15q-2 6 -5.5 11.5t-6.5 9.5l-12.5 12l-20.5 19l-21.5 19t-14.5 12q-9 7 -13.5 18.5t-11.5 12.5q-3 1 -18.5 2.5t-33 4l-32.5 4.5t-18 4t-11 3t-17 1t-17 -1t-11 -3q-7 -3 -23.5 -3t-33.5 -1q-8 -1 -16.5 -2.5t-15.5 -3.5q-8 -3 -16 -5l-18 -1
q-2 -3 -5 -5q-2 -2 -4 -3.5t-4 -3.5q-4 -4 -7 -16.5t-8 -19.5q-3 -3 -14.5 -17.5l-24.5 -31l-24 -30.5t-12 -16l-5.5 -11t-9 -19.5l-8.5 -20t-4 -13.5t-1.5 -18.5t-3.5 -31t-3.5 -31.5t-2.5 -21t-0.5 -14t1.5 -16l2 -18l-6 -15q-2 -6 3.5 -21t13.5 -32q9 -19 21 -42
q5 -5 9 -11q4 -5 8.5 -12t9.5 -14q4 -8 12.5 -15t18.5 -14t19.5 -12.5t15.5 -8.5t15 -7t18 -7.5t16.5 -6l10.5 -3.5t14.5 -4l25 -6.5t25.5 -6t14 -2.5t9 2t15 4l20 7q5 2 9 3t9 1.5t12 -1.5q12 -3 30 0.5t27 7.5q11 4 22 10q6 4 13 8q-2 -9 -3 -17q-2 -7 -2.5 -13t-2.5 -8
t-9 -5.5l-14.5 -7l-14.5 -6.5t-9 -3q-2 -1 -9 -2.5l-17 -3.5t-19.5 -4.5t-15.5 -4.5q-13 -5 -31.5 -2.5t-28.5 2.5h-8t-5.5 1t-6.5 2l-12 3q-8 1 -18.5 0.5t-21.5 -1.5t-20.5 -2t-15.5 1l-16 5.5t-20.5 8l-21 9l-17.5 7.5q-15 7 -23 15.5t-19 16.5q-6 4 -21 18l-31.5 30
l-29.5 29.5t-14 16.5q-2 5 4 7q3 1 6 1q-3 1 -6 4l-5.5 5.5t-6.5 8.5q-3 4 -7 18.5t-7 33.5t-5.5 39.5t-2.5 37.5q-1 17 2.5 37t8 38t9.5 32l7 20q2 5 4 9.5t4 7.5q2 4 4 6q1 3 3 7q2 3 3 7.5t3 9.5q3 8 10 17l8 8l4 17q2 6 21 23.5t42 36.5l59 48l12 6q5 2 9.5 4t6.5 2
t7.5 -2l10.5 -4l14 -6l6 6q1 2 4 5l4.5 4.5t4.5 6.5q2 3 12 6.5t22 6t24 4.5t19 4q14 4 30.5 3t24.5 -3q4 0 11.5 -1t16 -1.5t15.5 -1.5t11 -2t13.5 -1h19.5h24l15 -8q6 -3 20 -13l30 -22l29 -22t17 -12q8 -3 11.5 -8.5t14.5 -16.5q5 -6 12 -28.5t14 -48.5l17 -66l-7 -15
l-6 -8q-3 -4 -6 -7.5t-5 -8.5t-4 -18t-3.5 -27t-3.5 -26.5t-4 -15.5t-13.5 -16l-24 -27.5l-24 -27t-13.5 -13.5q-5 -2 -17 -8t-35 -11q-12 -3 -32 -5.5t-39 -4.5q-22 -3 -46 -4q-12 3 -22 7q-8 3 -16 5.5t-10 4.5t-2 8t2 13l4 18l-7 1q-3 0 -6 -1q-6 -2 -9 -6q-4 -5 -9 -9.5
t-14 -10.5q-9 -5 -19 -9.5t-15 -8.5q-6 -3 -18.5 -5t-17.5 -2q-6 0 -22.5 0.5t-28.5 2.5q-13 1 -18.5 0.5t-10.5 0.5q-5 2 -7.5 6t-4.5 15q-2 5 1.5 17.5t8.5 24.5q5 14 13 30l4 15q2 6 12 25l21.5 40l21 38t11.5 19t14.5 10l27.5 18q18 11 39 26l27 12l11 -3q2 3 6 7l7 7
t9 7q4 3 7 3.5t5.5 0.5h6h10.5q7 1 14 -1.5t14 -5.5q7 -4 15 -8z" />
    <glyph glyph-name="registered" unicode="&#xae;" horiz-adv-x="779" 
d="M587 137q-9 8 -21 11.5t-24 6.5q-4 2 -12 4q-2 11 -8.5 18.5t-11.5 12.5q-7 6 -11 11t-4 16v7l-7 2q-1 1 -5 1q1 9 -3.5 16.5t-8.5 13.5q-3 4 -5.5 7t-4.5 7q23 11 35.5 30.5t22.5 41.5q2 2 3 5t3 5l2 5l-3 5q-2 5 -3 11.5t-2 14.5t-1.5 14.5t-2.5 12.5l-1 3l-2 1
q-5 5 -10.5 9t-10.5 7l-12.5 9t-10.5 10l-3 3l-4 1q-7 0 -14 1t-15 3q-11 2 -21.5 3.5t-21.5 1.5q-19 0 -36 -7q-8 5 -15.5 5.5t-12.5 0.5h-5h-4q-7 0 -8 1l-7 3l-5 -6q0 -1 -1 -1h-4q-8 0 -17 3l-10.5 2t-10.5 1q-10 0 -15.5 -3.5t-7.5 -7.5q-6 -9 -2.5 -17t6.5 -13
q3 -3 5 -7l1 -9h9h3q13 0 19 -6q9 -10 9.5 -30.5t-1.5 -43.5q-2 -20 -1.5 -39.5t5.5 -34.5q-5 -16 -5 -35.5t1 -39.5q0 -11 0.5 -21t-0.5 -20q-1 0 -7 -2q-7 -2 -15 -5t-14 -8.5t-9 -14.5t0 -24l1 -8h8q26 -2 47.5 -3t41.5 -1q17 0 34 1t35 3l9 1v39l-5 3q-6 5 -13 6.5
t-15 3.5q-5 2 -9.5 3t-8.5 3v1q1 5 0.5 10.5t-3.5 10.5q4 11 3.5 22.5t-2.5 22.5q-2 17 -1 28t12 17q21 -5 31.5 -13t10.5 -27v-4l3 -3l19.5 -22.5l18.5 -23.5l20.5 -25.5l21.5 -24.5l2 -2l3 -1q11 -2 18.5 -5.5t10.5 -9.5l3 -6l7 1h4q6 0 10.5 -1.5t9.5 -3.5t11.5 -4
t15.5 -2q6 0 10 1l7 1l1 8q3 34 -19 52zM444 347q-7 -19 -25 -28t-39 -17q-3 -1 -5.5 -2t-5.5 -2q-8 2 -14 20q2 13 2.5 25.5t0.5 27.5v17t1 19q7 4 17 4q4 0 7 0.5t7 1.5l6 -2l6 -2q11 -2 20 -5.5t14 -9.5q2 -10 2 -17q2 -8 3 -15.5t3 -14.5zM384 655q9 -10 25 -13t35 -3.5
t39 1t38 0.5q13 -18 32 -29.5t39.5 -22t38.5 -23t28 -32.5q7 -41 20 -76l26.5 -69t25.5 -69.5t19 -76.5q-5 -5 -7 -12t-4.5 -14t-6.5 -12.5t-12 -6.5q-1 -38 -11.5 -65.5t-25 -51.5t-30 -47t-25.5 -50q-29 -9 -64 -24.5t-72.5 -26.5t-76.5 -12.5t-77 17.5q-9 3 -11.5 0
t-4 -7.5t-4 -8t-11.5 0.5q4 12 -1.5 13.5t-13.5 1.5t-14 1.5t-1 13.5q-54 4 -91 25.5t-62.5 54t-43 73.5t-32.5 84q4 21 1.5 34.5t-7 25t-8.5 24t-2 30.5q-2 10 3 12.5t13 3.5v91q16 9 23 26.5t13.5 35.5t18 31.5t36.5 13.5q6 26 21.5 42.5t36.5 27t46 17.5l50.5 13.5t49 15
t41.5 22.5zM182 552q4 -29 -8 -41.5t-32 -17.5q2 -31 -5 -52.5t-16 -41t-15.5 -42t-2.5 -54.5q9 -30 18.5 -58.5t17.5 -58.5t14.5 -62.5t8.5 -68.5q37 -28 78 -49.5t87.5 -33t99.5 -12t113 14.5q24 16 42.5 37.5t34.5 45t31 48.5t32 48q6 48 -1 83.5t-17 68t-18 67t-4 80.5
q-41 41 -90.5 71t-107 44t-123 11t-137.5 -27z" />
    <glyph glyph-name="copyright" unicode="&#xa9;" horiz-adv-x="786" 
d="M386 655q10 -10 26 -13t35.5 -3t40 1t38.5 0q13 -18 33 -30t40 -22.5t38.5 -23t28.5 -33.5q8 -41 21 -76.5l27 -70.5t26.5 -71t19.5 -78q-5 -5 -7 -12.5t-4.5 -15t-6.5 -13t-13 -6.5q-1 -38 -12 -66t-25.5 -52.5t-30 -48t-26.5 -51.5q-30 -9 -65 -24.5t-73.5 -27
t-78.5 -13t-79 17.5q-9 4 -11.5 0.5t-4 -8t-4 -8t-11.5 0.5q4 12 -1.5 14t-14 1.5t-14.5 1.5t-1 14q-56 4 -93 25.5t-63 55t-43.5 75t-33.5 85.5q4 21 1.5 35t-7 26t-8.5 25t-2 31q-2 10 3 12.5t13 3.5v93q16 9 23 27l14 36.5t18.5 32t37.5 13.5q6 26 22 43t37.5 28t47 18
l51 13.5t49 15t42.5 22.5zM184 546q4 -29 -8 -42t-32 -18q2 -31 -5 -52.5t-16 -41t-15.5 -41.5t-3.5 -54l36.5 -118.5t23.5 -131.5q37 -28 78.5 -49.5t88 -33t99.5 -12t113 14.5q24 16 42.5 37.5t34.5 45.5l31 48.5t32 48.5q6 48 -1 83.5t-17 68t-18 67t-4 80.5
q-41 42 -90.5 72t-107 44t-123 11t-138.5 -27zM397 491q9 -7 21 -6t24.5 2.5t23.5 -0.5t17 -15q9 10 16.5 9t13.5 -6t12.5 -12t14.5 -10q5 -26 -2 -40.5t-17 -25.5q-25 -4 -42.5 -1t-33 8.5t-32.5 9.5t-40 2q-15 -15 -31 -29t-40 -19q-1 -13 -0.5 -26.5t-9.5 -16.5
q6 -3 8.5 -14.5t2.5 -24t-2.5 -23.5t-8.5 -14l18.5 -29.5t10.5 -37.5q18 -25 42.5 -38t53.5 -16t60.5 3t62.5 18q-2 -8 3.5 -8.5t6.5 -6.5q-3 -18 -13 -30t-22.5 -21l-25 -17.5t-20.5 -21.5q-6 1 -12.5 4t-13.5 4.5t-12.5 0t-9.5 -8.5q-22 -5 -36.5 -2t-26.5 8t-25 9.5
t-31 3.5q-4 5 -6.5 12.5t-6 13.5t-9.5 9.5t-17 2.5q-5 16 -8 34t-20 23q-5 25 -9 48t-5.5 45.5t-0.5 46.5t5 51l24 28.5t14 38.5h20v28q16 3 26.5 12.5l20.5 18.5t24 15t38 2q4 0 4 3.5t1 5.5z" />
    </font>
</defs>
</svg>
